<?xml version="1.0" encoding="utf-8" standalone="no"?>
<!DOCTYPE svg PUBLIC "-//W3C//DTD SVG 1.1//EN"
  "http://www.w3.org/Graphics/SVG/1.1/DTD/svg11.dtd">
<svg xmlns:xlink="http://www.w3.org/1999/xlink" width="371.52pt" height="415.079304pt" viewBox="0 0 371.52 415.079304" xmlns="http://www.w3.org/2000/svg" version="1.1">
 <metadata>
  <rdf:RDF xmlns:dc="http://purl.org/dc/elements/1.1/" xmlns:cc="http://creativecommons.org/ns#" xmlns:rdf="http://www.w3.org/1999/02/22-rdf-syntax-ns#">
   <cc:Work>
    <dc:type rdf:resource="http://purl.org/dc/dcmitype/StillImage"/>
    <dc:date>2023-03-13T17:01:05.043588</dc:date>
    <dc:format>image/svg+xml</dc:format>
    <dc:creator>
     <cc:Agent>
      <dc:title>Matplotlib v3.5.3, https://matplotlib.org/</dc:title>
     </cc:Agent>
    </dc:creator>
   </cc:Work>
  </rdf:RDF>
 </metadata>
 <defs>
  <style type="text/css">*{stroke-linejoin: round; stroke-linecap: butt}</style>
 </defs>
 <g id="figure_1">
  <g id="patch_1">
   <path d="M 0 415.079304 
L 371.52 415.079304 
L 371.52 0 
L 0 0 
z
" style="fill: #ffffff"/>
  </g>
  <g id="axes_1">
   <g id="matplotlib.axis_1"/>
   <g id="matplotlib.axis_2"/>
   <g id="patch_2">
    <path d="M 77.071304 126.432 
C 77.071304 122.416209 76.292341 118.438282 74.777666 114.719097 
C 73.262992 110.999911 71.041169 107.609603 68.235567 104.736421 
C 65.429966 101.863238 62.093491 99.561364 58.411405 97.95861 
C 54.729319 96.355856 50.771056 95.482448 46.756402 95.386882 
C 42.741748 95.291315 38.746411 95.975393 34.992233 97.40113 
C 31.238055 98.826868 27.795832 100.96738 24.856697 103.703812 
C 21.917562 106.440244 19.536939 109.720994 17.847014 113.363896 
C 16.157089 117.006797 15.189731 120.943154 14.998652 124.954397 
C 14.807573 128.965639 15.396377 132.976125 16.73237 136.763169 
C 18.068363 140.550213 20.126352 144.0424 22.792065 147.045823 
C 25.457777 150.049247 28.680945 152.50727 32.282599 154.283409 
C 35.884252 156.059548 39.796473 157.120308 43.802033 157.406791 
C 47.807592 157.693274 51.830954 157.200077 55.648719 155.954585 
C 59.466484 154.709093 63.006657 152.734793 66.072668 150.14131 
C 69.138679 147.547827 71.67271 144.384068 73.534057 140.825702 
C 75.395403 137.267336 76.548965 133.381467 76.93069 129.383859 
L 46.017391 126.432 
L 77.071304 126.432 
z
" style="fill: #b0c4de"/>
   </g>
   <g id="patch_3">
    <path d="M 76.93069 129.383859 
C 76.977528 128.893346 77.012685 128.401788 77.036131 127.909602 
C 77.059577 127.417416 77.071304 126.924741 77.071304 126.431997 
L 46.017391 126.432 
L 76.93069 129.383859 
z
" style="fill: #f08080"/>
   </g>
   <g id="text_1">
    <!-- 98% -->
    <g transform="translate(16.292866 128.304813)scale(0.1 -0.1)">
     <defs>
      <path id="DejaVuSans-39" d="M 703 97 
L 703 672 
Q 941 559 1184 500 
Q 1428 441 1663 441 
Q 2288 441 2617 861 
Q 2947 1281 2994 2138 
Q 2813 1869 2534 1725 
Q 2256 1581 1919 1581 
Q 1219 1581 811 2004 
Q 403 2428 403 3163 
Q 403 3881 828 4315 
Q 1253 4750 1959 4750 
Q 2769 4750 3195 4129 
Q 3622 3509 3622 2328 
Q 3622 1225 3098 567 
Q 2575 -91 1691 -91 
Q 1453 -91 1209 -44 
Q 966 3 703 97 
z
M 1959 2075 
Q 2384 2075 2632 2365 
Q 2881 2656 2881 3163 
Q 2881 3666 2632 3958 
Q 2384 4250 1959 4250 
Q 1534 4250 1286 3958 
Q 1038 3666 1038 3163 
Q 1038 2656 1286 2365 
Q 1534 2075 1959 2075 
z
" transform="scale(0.015625)"/>
      <path id="DejaVuSans-38" d="M 2034 2216 
Q 1584 2216 1326 1975 
Q 1069 1734 1069 1313 
Q 1069 891 1326 650 
Q 1584 409 2034 409 
Q 2484 409 2743 651 
Q 3003 894 3003 1313 
Q 3003 1734 2745 1975 
Q 2488 2216 2034 2216 
z
M 1403 2484 
Q 997 2584 770 2862 
Q 544 3141 544 3541 
Q 544 4100 942 4425 
Q 1341 4750 2034 4750 
Q 2731 4750 3128 4425 
Q 3525 4100 3525 3541 
Q 3525 3141 3298 2862 
Q 3072 2584 2669 2484 
Q 3125 2378 3379 2068 
Q 3634 1759 3634 1313 
Q 3634 634 3220 271 
Q 2806 -91 2034 -91 
Q 1263 -91 848 271 
Q 434 634 434 1313 
Q 434 1759 690 2068 
Q 947 2378 1403 2484 
z
M 1172 3481 
Q 1172 3119 1398 2916 
Q 1625 2713 2034 2713 
Q 2441 2713 2670 2916 
Q 2900 3119 2900 3481 
Q 2900 3844 2670 4047 
Q 2441 4250 2034 4250 
Q 1625 4250 1398 4047 
Q 1172 3844 1172 3481 
z
" transform="scale(0.015625)"/>
      <path id="DejaVuSans-25" d="M 4653 2053 
Q 4381 2053 4226 1822 
Q 4072 1591 4072 1178 
Q 4072 772 4226 539 
Q 4381 306 4653 306 
Q 4919 306 5073 539 
Q 5228 772 5228 1178 
Q 5228 1588 5073 1820 
Q 4919 2053 4653 2053 
z
M 4653 2450 
Q 5147 2450 5437 2106 
Q 5728 1763 5728 1178 
Q 5728 594 5436 251 
Q 5144 -91 4653 -91 
Q 4153 -91 3862 251 
Q 3572 594 3572 1178 
Q 3572 1766 3864 2108 
Q 4156 2450 4653 2450 
z
M 1428 4353 
Q 1159 4353 1004 4120 
Q 850 3888 850 3481 
Q 850 3069 1003 2837 
Q 1156 2606 1428 2606 
Q 1700 2606 1854 2837 
Q 2009 3069 2009 3481 
Q 2009 3884 1853 4118 
Q 1697 4353 1428 4353 
z
M 4250 4750 
L 4750 4750 
L 1831 -91 
L 1331 -91 
L 4250 4750 
z
M 1428 4750 
Q 1922 4750 2215 4408 
Q 2509 4066 2509 3481 
Q 2509 2891 2217 2550 
Q 1925 2209 1428 2209 
Q 931 2209 642 2551 
Q 353 2894 353 3481 
Q 353 4063 643 4406 
Q 934 4750 1428 4750 
z
" transform="scale(0.015625)"/>
     </defs>
     <use xlink:href="#DejaVuSans-39"/>
     <use xlink:href="#DejaVuSans-38" x="63.623047"/>
     <use xlink:href="#DejaVuSans-25" x="127.246094"/>
    </g>
   </g>
   <g id="text_2">
    <!-- 2% -->
    <g transform="translate(56.696604 130.077936)scale(0.1 -0.1)">
     <defs>
      <path id="DejaVuSans-32" d="M 1228 531 
L 3431 531 
L 3431 0 
L 469 0 
L 469 531 
Q 828 903 1448 1529 
Q 2069 2156 2228 2338 
Q 2531 2678 2651 2914 
Q 2772 3150 2772 3378 
Q 2772 3750 2511 3984 
Q 2250 4219 1831 4219 
Q 1534 4219 1204 4116 
Q 875 4013 500 3803 
L 500 4441 
Q 881 4594 1212 4672 
Q 1544 4750 1819 4750 
Q 2544 4750 2975 4387 
Q 3406 4025 3406 3419 
Q 3406 3131 3298 2873 
Q 3191 2616 2906 2266 
Q 2828 2175 2409 1742 
Q 1991 1309 1228 531 
z
" transform="scale(0.015625)"/>
     </defs>
     <use xlink:href="#DejaVuSans-32"/>
     <use xlink:href="#DejaVuSans-25" x="63.623047"/>
    </g>
   </g>
   <g id="text_3">
    <!-- base -->
    <g transform="translate(28.853266 81.614609)scale(0.144 -0.144)">
     <defs>
      <path id="DejaVuSans-62" d="M 3116 1747 
Q 3116 2381 2855 2742 
Q 2594 3103 2138 3103 
Q 1681 3103 1420 2742 
Q 1159 2381 1159 1747 
Q 1159 1113 1420 752 
Q 1681 391 2138 391 
Q 2594 391 2855 752 
Q 3116 1113 3116 1747 
z
M 1159 2969 
Q 1341 3281 1617 3432 
Q 1894 3584 2278 3584 
Q 2916 3584 3314 3078 
Q 3713 2572 3713 1747 
Q 3713 922 3314 415 
Q 2916 -91 2278 -91 
Q 1894 -91 1617 61 
Q 1341 213 1159 525 
L 1159 0 
L 581 0 
L 581 4863 
L 1159 4863 
L 1159 2969 
z
" transform="scale(0.015625)"/>
      <path id="DejaVuSans-61" d="M 2194 1759 
Q 1497 1759 1228 1600 
Q 959 1441 959 1056 
Q 959 750 1161 570 
Q 1363 391 1709 391 
Q 2188 391 2477 730 
Q 2766 1069 2766 1631 
L 2766 1759 
L 2194 1759 
z
M 3341 1997 
L 3341 0 
L 2766 0 
L 2766 531 
Q 2569 213 2275 61 
Q 1981 -91 1556 -91 
Q 1019 -91 701 211 
Q 384 513 384 1019 
Q 384 1609 779 1909 
Q 1175 2209 1959 2209 
L 2766 2209 
L 2766 2266 
Q 2766 2663 2505 2880 
Q 2244 3097 1772 3097 
Q 1472 3097 1187 3025 
Q 903 2953 641 2809 
L 641 3341 
Q 956 3463 1253 3523 
Q 1550 3584 1831 3584 
Q 2591 3584 2966 3190 
Q 3341 2797 3341 1997 
z
" transform="scale(0.015625)"/>
      <path id="DejaVuSans-73" d="M 2834 3397 
L 2834 2853 
Q 2591 2978 2328 3040 
Q 2066 3103 1784 3103 
Q 1356 3103 1142 2972 
Q 928 2841 928 2578 
Q 928 2378 1081 2264 
Q 1234 2150 1697 2047 
L 1894 2003 
Q 2506 1872 2764 1633 
Q 3022 1394 3022 966 
Q 3022 478 2636 193 
Q 2250 -91 1575 -91 
Q 1294 -91 989 -36 
Q 684 19 347 128 
L 347 722 
Q 666 556 975 473 
Q 1284 391 1588 391 
Q 1994 391 2212 530 
Q 2431 669 2431 922 
Q 2431 1156 2273 1281 
Q 2116 1406 1581 1522 
L 1381 1569 
Q 847 1681 609 1914 
Q 372 2147 372 2553 
Q 372 3047 722 3315 
Q 1072 3584 1716 3584 
Q 2034 3584 2315 3537 
Q 2597 3491 2834 3397 
z
" transform="scale(0.015625)"/>
      <path id="DejaVuSans-65" d="M 3597 1894 
L 3597 1613 
L 953 1613 
Q 991 1019 1311 708 
Q 1631 397 2203 397 
Q 2534 397 2845 478 
Q 3156 559 3463 722 
L 3463 178 
Q 3153 47 2828 -22 
Q 2503 -91 2169 -91 
Q 1331 -91 842 396 
Q 353 884 353 1716 
Q 353 2575 817 3079 
Q 1281 3584 2069 3584 
Q 2775 3584 3186 3129 
Q 3597 2675 3597 1894 
z
M 3022 2063 
Q 3016 2534 2758 2815 
Q 2500 3097 2075 3097 
Q 1594 3097 1305 2825 
Q 1016 2553 972 2059 
L 3022 2063 
z
" transform="scale(0.015625)"/>
     </defs>
     <use xlink:href="#DejaVuSans-62"/>
     <use xlink:href="#DejaVuSans-61" x="63.476562"/>
     <use xlink:href="#DejaVuSans-73" x="124.755859"/>
     <use xlink:href="#DejaVuSans-65" x="176.855469"/>
    </g>
   </g>
  </g>
  <g id="axes_2">
   <g id="matplotlib.axis_3"/>
   <g id="matplotlib.axis_4"/>
   <g id="patch_4">
    <path d="M 170.233043 126.432 
C 170.233043 122.900566 169.630654 119.394867 168.451837 116.065991 
C 167.27302 112.737114 165.534957 109.633579 163.312553 106.889139 
C 161.09015 104.144699 158.415798 101.799356 155.404755 99.954186 
C 152.393712 98.109017 149.089866 96.790916 145.635602 96.056689 
C 142.181338 95.322463 138.627003 95.182813 135.125781 95.643758 
C 131.624559 96.104702 128.227479 97.159523 125.080948 98.762761 
C 121.934417 100.365999 119.084296 102.494285 116.653417 105.055897 
C 114.222538 107.617509 112.246333 110.575111 110.809969 113.801236 
C 109.373605 117.027362 108.498019 120.474991 108.220946 123.995539 
C 107.943873 127.516087 108.269352 131.058242 109.183354 134.469345 
C 110.097357 137.880449 111.586562 141.110784 113.586788 144.021131 
C 115.587015 146.931478 118.069109 149.479419 120.926099 151.555144 
C 123.78309 153.630869 126.973335 155.204124 130.359344 156.207105 
C 133.745353 157.210086 137.277773 157.628176 140.804368 157.443355 
C 144.330963 157.258534 147.80033 156.473496 151.06295 155.122074 
C 154.32557 153.770653 157.333888 151.872545 159.958255 149.509554 
L 139.17913 126.432 
L 170.233043 126.432 
z
" style="fill: #b0c4de"/>
   </g>
   <g id="patch_5">
    <path d="M 159.958255 149.509554 
C 163.192222 146.597677 165.778284 143.038267 167.548293 139.062762 
C 169.318301 135.087257 170.233044 130.783729 170.233043 126.431997 
L 139.17913 126.432 
L 159.958255 149.509554 
z
" style="fill: #f08080"/>
   </g>
   <g id="text_4">
    <!-- 87% -->
    <g transform="translate(111.044352 121.612917)scale(0.1 -0.1)">
     <defs>
      <path id="DejaVuSans-37" d="M 525 4666 
L 3525 4666 
L 3525 4397 
L 1831 0 
L 1172 0 
L 2766 4134 
L 525 4134 
L 525 4666 
z
" transform="scale(0.015625)"/>
     </defs>
     <use xlink:href="#DejaVuSans-38"/>
     <use xlink:href="#DejaVuSans-37" x="63.623047"/>
     <use xlink:href="#DejaVuSans-25" x="127.246094"/>
    </g>
   </g>
   <g id="text_5">
    <!-- 13% -->
    <g transform="translate(145.087346 136.769832)scale(0.1 -0.1)">
     <defs>
      <path id="DejaVuSans-31" d="M 794 531 
L 1825 531 
L 1825 4091 
L 703 3866 
L 703 4441 
L 1819 4666 
L 2450 4666 
L 2450 531 
L 3481 531 
L 3481 0 
L 794 0 
L 794 531 
z
" transform="scale(0.015625)"/>
      <path id="DejaVuSans-33" d="M 2597 2516 
Q 3050 2419 3304 2112 
Q 3559 1806 3559 1356 
Q 3559 666 3084 287 
Q 2609 -91 1734 -91 
Q 1441 -91 1130 -33 
Q 819 25 488 141 
L 488 750 
Q 750 597 1062 519 
Q 1375 441 1716 441 
Q 2309 441 2620 675 
Q 2931 909 2931 1356 
Q 2931 1769 2642 2001 
Q 2353 2234 1838 2234 
L 1294 2234 
L 1294 2753 
L 1863 2753 
Q 2328 2753 2575 2939 
Q 2822 3125 2822 3475 
Q 2822 3834 2567 4026 
Q 2313 4219 1838 4219 
Q 1578 4219 1281 4162 
Q 984 4106 628 3988 
L 628 4550 
Q 988 4650 1302 4700 
Q 1616 4750 1894 4750 
Q 2613 4750 3031 4423 
Q 3450 4097 3450 3541 
Q 3450 3153 3228 2886 
Q 3006 2619 2597 2516 
z
" transform="scale(0.015625)"/>
     </defs>
     <use xlink:href="#DejaVuSans-31"/>
     <use xlink:href="#DejaVuSans-33" x="63.623047"/>
     <use xlink:href="#DejaVuSans-25" x="127.246094"/>
    </g>
   </g>
   <g id="text_6">
    <!-- zwsp -->
    <g transform="translate(121.19038 81.614609)scale(0.144 -0.144)">
     <defs>
      <path id="DejaVuSans-7a" d="M 353 3500 
L 3084 3500 
L 3084 2975 
L 922 459 
L 3084 459 
L 3084 0 
L 275 0 
L 275 525 
L 2438 3041 
L 353 3041 
L 353 3500 
z
" transform="scale(0.015625)"/>
      <path id="DejaVuSans-77" d="M 269 3500 
L 844 3500 
L 1563 769 
L 2278 3500 
L 2956 3500 
L 3675 769 
L 4391 3500 
L 4966 3500 
L 4050 0 
L 3372 0 
L 2619 2869 
L 1863 0 
L 1184 0 
L 269 3500 
z
" transform="scale(0.015625)"/>
      <path id="DejaVuSans-70" d="M 1159 525 
L 1159 -1331 
L 581 -1331 
L 581 3500 
L 1159 3500 
L 1159 2969 
Q 1341 3281 1617 3432 
Q 1894 3584 2278 3584 
Q 2916 3584 3314 3078 
Q 3713 2572 3713 1747 
Q 3713 922 3314 415 
Q 2916 -91 2278 -91 
Q 1894 -91 1617 61 
Q 1341 213 1159 525 
z
M 3116 1747 
Q 3116 2381 2855 2742 
Q 2594 3103 2138 3103 
Q 1681 3103 1420 2742 
Q 1159 2381 1159 1747 
Q 1159 1113 1420 752 
Q 1681 391 2138 391 
Q 2594 391 2855 752 
Q 3116 1113 3116 1747 
z
" transform="scale(0.015625)"/>
     </defs>
     <use xlink:href="#DejaVuSans-7a"/>
     <use xlink:href="#DejaVuSans-77" x="52.490234"/>
     <use xlink:href="#DejaVuSans-73" x="134.277344"/>
     <use xlink:href="#DejaVuSans-70" x="186.376953"/>
    </g>
   </g>
  </g>
  <g id="axes_3">
   <g id="matplotlib.axis_5"/>
   <g id="matplotlib.axis_6"/>
   <g id="patch_6">
    <path d="M 263.394783 126.432 
C 263.394783 122.64698 262.702774 118.893657 261.352955 115.357506 
C 260.003136 111.821356 258.018112 108.561602 255.495977 105.739332 
C 252.973842 102.917062 249.956837 100.579542 246.594053 98.842287 
C 243.231269 97.105031 239.579026 95.997135 235.817806 95.573348 
C 232.056586 95.14956 228.249382 95.416978 224.584334 96.362386 
C 220.919286 97.307795 217.457777 98.915361 214.370863 101.105643 
C 211.283949 103.295925 208.62333 106.03224 206.520486 109.179368 
C 204.417641 112.326497 202.90779 115.831731 202.065544 119.521852 
C 201.223297 123.211973 201.062762 127.025179 201.591871 130.773034 
C 202.120979 134.520889 203.330871 138.140624 205.161756 141.453362 
C 206.992641 144.7661 209.413856 147.716359 212.305752 150.158348 
C 215.197648 152.600337 218.511792 154.493156 222.084409 155.74327 
C 225.657026 156.993383 229.428281 157.579853 233.211812 157.473697 
C 236.995342 157.367542 240.727781 156.57054 244.224684 155.122076 
C 247.721586 153.673613 250.924385 151.597946 253.674809 148.99765 
C 256.425233 146.397353 258.677217 143.315977 260.319476 139.905792 
L 232.34087 126.432 
L 263.394783 126.432 
z
" style="fill: #b0c4de"/>
   </g>
   <g id="patch_7">
    <path d="M 260.319476 139.905792 
C 261.32837 137.810804 262.098775 135.609113 262.616195 133.34215 
C 263.133615 131.075188 263.394782 128.757266 263.394783 126.432004 
L 232.34087 126.432 
L 260.319476 139.905792 
z
" style="fill: #f08080"/>
   </g>
   <g id="text_7">
    <!-- 93% -->
    <g transform="translate(203.062393 125.045286)scale(0.1 -0.1)">
     <use xlink:href="#DejaVuSans-39"/>
     <use xlink:href="#DejaVuSans-33" x="63.623047"/>
     <use xlink:href="#DejaVuSans-25" x="127.246094"/>
    </g>
   </g>
   <g id="text_8">
    <!-- 7% -->
    <g transform="translate(242.574034 133.337465)scale(0.1 -0.1)">
     <use xlink:href="#DejaVuSans-37"/>
     <use xlink:href="#DejaVuSans-25" x="63.623047"/>
    </g>
   </g>
   <g id="text_9">
    <!-- zwnj -->
    <g transform="translate(216.110495 81.614609)scale(0.144 -0.144)">
     <defs>
      <path id="DejaVuSans-6e" d="M 3513 2113 
L 3513 0 
L 2938 0 
L 2938 2094 
Q 2938 2591 2744 2837 
Q 2550 3084 2163 3084 
Q 1697 3084 1428 2787 
Q 1159 2491 1159 1978 
L 1159 0 
L 581 0 
L 581 3500 
L 1159 3500 
L 1159 2956 
Q 1366 3272 1645 3428 
Q 1925 3584 2291 3584 
Q 2894 3584 3203 3211 
Q 3513 2838 3513 2113 
z
" transform="scale(0.015625)"/>
      <path id="DejaVuSans-6a" d="M 603 3500 
L 1178 3500 
L 1178 -63 
Q 1178 -731 923 -1031 
Q 669 -1331 103 -1331 
L -116 -1331 
L -116 -844 
L 38 -844 
Q 366 -844 484 -692 
Q 603 -541 603 -63 
L 603 3500 
z
M 603 4863 
L 1178 4863 
L 1178 4134 
L 603 4134 
L 603 4863 
z
" transform="scale(0.015625)"/>
     </defs>
     <use xlink:href="#DejaVuSans-7a"/>
     <use xlink:href="#DejaVuSans-77" x="52.490234"/>
     <use xlink:href="#DejaVuSans-6e" x="134.277344"/>
     <use xlink:href="#DejaVuSans-6a" x="197.65625"/>
    </g>
   </g>
  </g>
  <g id="axes_4">
   <g id="matplotlib.axis_7"/>
   <g id="matplotlib.axis_8"/>
   <g id="patch_8">
    <path d="M 356.556522 126.432 
C 356.556522 120.429185 354.815979 114.55321 351.546611 109.518826 
C 348.277244 104.484443 343.617216 100.504403 338.133372 98.062838 
C 332.649528 95.621274 326.573615 94.821365 320.644705 95.760412 
C 314.715795 96.69946 309.184444 99.337779 304.723484 103.354446 
C 300.262523 107.371113 297.060474 112.596384 295.506832 118.394658 
C 293.953189 124.192932 294.113611 130.319173 295.968583 136.028189 
C 297.823555 141.737205 301.294687 146.787732 305.95975 150.565425 
C 310.624814 154.343118 316.286663 156.688332 322.256594 157.315797 
L 325.502609 126.432 
L 356.556522 126.432 
z
" style="fill: #b0c4de"/>
   </g>
   <g id="patch_9">
    <path d="M 322.256594 157.315797 
C 326.584487 157.770676 330.960056 157.310785 335.098799 155.966025 
C 339.237542 154.621266 343.047769 152.421429 346.281736 149.509552 
C 349.515702 146.597674 352.101764 143.038265 353.871772 139.06276 
C 355.64178 135.087254 356.556523 130.783726 356.556522 126.431994 
L 325.502609 126.432 
L 322.256594 157.315797 
z
" style="fill: #f08080"/>
   </g>
   <g id="text_10">
    <!-- 73% -->
    <g transform="translate(301.921853 115.344843)scale(0.1 -0.1)">
     <use xlink:href="#DejaVuSans-37"/>
     <use xlink:href="#DejaVuSans-33" x="63.623047"/>
     <use xlink:href="#DejaVuSans-25" x="127.246094"/>
    </g>
   </g>
   <g id="text_11">
    <!-- 27% -->
    <g transform="translate(326.856804 143.037906)scale(0.1 -0.1)">
     <use xlink:href="#DejaVuSans-32"/>
     <use xlink:href="#DejaVuSans-37" x="63.623047"/>
     <use xlink:href="#DejaVuSans-25" x="127.246094"/>
    </g>
   </g>
   <g id="text_12">
    <!-- zwj -->
    <g transform="translate(313.835234 81.614609)scale(0.144 -0.144)">
     <use xlink:href="#DejaVuSans-7a"/>
     <use xlink:href="#DejaVuSans-77" x="52.490234"/>
     <use xlink:href="#DejaVuSans-6a" x="134.277344"/>
    </g>
   </g>
  </g>
  <g id="axes_5">
   <g id="matplotlib.axis_9"/>
   <g id="matplotlib.axis_10"/>
   <g id="patch_10">
    <path d="M 77.071304 271.584 
C 77.071304 267.506038 76.268035 263.467728 74.707466 259.700182 
C 73.146897 255.932636 70.859379 252.509122 67.975824 249.625568 
C 65.092269 246.742013 61.668755 244.454494 57.901209 242.893925 
C 54.133663 241.333357 50.095354 240.530087 46.017391 240.530087 
C 41.939429 240.530087 37.901119 241.333357 34.133573 242.893925 
C 30.366027 244.454494 26.942514 246.742013 24.058959 249.625568 
C 21.175404 252.509122 18.887885 255.932636 17.327317 259.700182 
C 15.766748 263.467728 14.963478 267.506038 14.963478 271.584 
C 14.963478 275.661962 15.766748 279.700272 17.327317 283.467818 
C 18.887885 287.235364 21.175404 290.658878 24.058959 293.542432 
C 26.942514 296.425987 30.366027 298.713506 34.133573 300.274075 
C 37.901119 301.834643 41.939429 302.637913 46.017391 302.637913 
C 50.095354 302.637913 54.133663 301.834643 57.901209 300.274075 
C 61.668755 298.713506 65.092269 296.425987 67.975824 293.542432 
C 70.859379 290.658878 73.146897 287.235364 74.707466 283.467818 
C 76.268035 279.700272 77.071304 275.661962 77.071304 271.584 
M 46.017391 271.584 
M 77.071304 271.584 
z
" style="fill: #b0c4de"/>
   </g>
   <g id="patch_11">
    <path d="M 77.071304 271.584 
C 77.071304 271.584 77.071304 271.584 77.071304 271.584 
L 46.017391 271.584 
L 77.071304 271.584 
z
" style="fill: #f08080"/>
   </g>
   <g id="text_13">
    <!-- 100% -->
    <g transform="translate(13.090512 274.343375)scale(0.1 -0.1)">
     <defs>
      <path id="DejaVuSans-30" d="M 2034 4250 
Q 1547 4250 1301 3770 
Q 1056 3291 1056 2328 
Q 1056 1369 1301 889 
Q 1547 409 2034 409 
Q 2525 409 2770 889 
Q 3016 1369 3016 2328 
Q 3016 3291 2770 3770 
Q 2525 4250 2034 4250 
z
M 2034 4750 
Q 2819 4750 3233 4129 
Q 3647 3509 3647 2328 
Q 3647 1150 3233 529 
Q 2819 -91 2034 -91 
Q 1250 -91 836 529 
Q 422 1150 422 2328 
Q 422 3509 836 4129 
Q 1250 4750 2034 4750 
z
" transform="scale(0.015625)"/>
     </defs>
     <use xlink:href="#DejaVuSans-31"/>
     <use xlink:href="#DejaVuSans-30" x="63.623047"/>
     <use xlink:href="#DejaVuSans-30" x="127.246094"/>
     <use xlink:href="#DejaVuSans-25" x="190.869141"/>
    </g>
   </g>
   <g id="text_14">
    <!-- 0% -->
    <g transform="translate(56.717708 274.343375)scale(0.1 -0.1)">
     <use xlink:href="#DejaVuSans-30"/>
     <use xlink:href="#DejaVuSans-25" x="63.623047"/>
    </g>
   </g>
   <g id="text_15">
    <!-- rlo -->
    <g transform="translate(36.651766 226.766609)scale(0.144 -0.144)">
     <defs>
      <path id="DejaVuSans-72" d="M 2631 2963 
Q 2534 3019 2420 3045 
Q 2306 3072 2169 3072 
Q 1681 3072 1420 2755 
Q 1159 2438 1159 1844 
L 1159 0 
L 581 0 
L 581 3500 
L 1159 3500 
L 1159 2956 
Q 1341 3275 1631 3429 
Q 1922 3584 2338 3584 
Q 2397 3584 2469 3576 
Q 2541 3569 2628 3553 
L 2631 2963 
z
" transform="scale(0.015625)"/>
      <path id="DejaVuSans-6c" d="M 603 4863 
L 1178 4863 
L 1178 0 
L 603 0 
L 603 4863 
z
" transform="scale(0.015625)"/>
      <path id="DejaVuSans-6f" d="M 1959 3097 
Q 1497 3097 1228 2736 
Q 959 2375 959 1747 
Q 959 1119 1226 758 
Q 1494 397 1959 397 
Q 2419 397 2687 759 
Q 2956 1122 2956 1747 
Q 2956 2369 2687 2733 
Q 2419 3097 1959 3097 
z
M 1959 3584 
Q 2709 3584 3137 3096 
Q 3566 2609 3566 1747 
Q 3566 888 3137 398 
Q 2709 -91 1959 -91 
Q 1206 -91 779 398 
Q 353 888 353 1747 
Q 353 2609 779 3096 
Q 1206 3584 1959 3584 
z
" transform="scale(0.015625)"/>
     </defs>
     <use xlink:href="#DejaVuSans-72"/>
     <use xlink:href="#DejaVuSans-6c" x="41.113281"/>
     <use xlink:href="#DejaVuSans-6f" x="68.896484"/>
    </g>
   </g>
  </g>
  <g id="axes_6">
   <g id="matplotlib.axis_11"/>
   <g id="matplotlib.axis_12"/>
   <g id="patch_12">
    <path d="M 170.233043 271.584 
C 170.233043 265.027076 168.156337 258.63563 164.302274 253.330968 
C 160.448211 248.026305 155.011322 244.076174 148.775317 242.049973 
C 142.539312 240.023773 135.818948 240.023773 129.582943 242.049974 
C 123.346938 244.076175 117.910049 248.026306 114.055986 253.330969 
L 139.17913 271.584 
L 170.233043 271.584 
z
" style="fill: #b0c4de"/>
   </g>
   <g id="patch_13">
    <path d="M 114.055986 253.330969 
C 111.175608 257.295469 109.274132 261.886039 108.507542 266.726099 
C 107.740952 271.566159 108.1308 276.51964 109.645105 281.180189 
C 111.15941 285.840739 113.755599 290.077335 117.2207 293.542435 
C 120.685801 297.007535 124.922397 299.603724 129.582947 301.118027 
C 134.243497 302.632331 139.196977 303.022178 144.037037 302.255587 
C 148.877097 301.488996 153.467666 299.587519 157.432166 296.707141 
C 161.396666 293.826762 164.623641 290.048458 166.848372 285.682177 
C 169.073103 281.315895 170.233044 276.484386 170.233043 271.583994 
L 139.17913 271.584 
L 114.055986 253.330969 
z
" style="fill: #f08080"/>
   </g>
   <g id="text_16">
    <!-- 40% -->
    <g transform="translate(133.823561 256.622959)scale(0.1 -0.1)">
     <defs>
      <path id="DejaVuSans-34" d="M 2419 4116 
L 825 1625 
L 2419 1625 
L 2419 4116 
z
M 2253 4666 
L 3047 4666 
L 3047 1625 
L 3713 1625 
L 3713 1100 
L 3047 1100 
L 3047 0 
L 2419 0 
L 2419 1100 
L 313 1100 
L 313 1709 
L 2253 4666 
z
" transform="scale(0.015625)"/>
     </defs>
     <use xlink:href="#DejaVuSans-34"/>
     <use xlink:href="#DejaVuSans-30" x="63.623047"/>
     <use xlink:href="#DejaVuSans-25" x="127.246094"/>
    </g>
   </g>
   <g id="text_17">
    <!-- 60% -->
    <g transform="translate(122.308139 292.063791)scale(0.1 -0.1)">
     <defs>
      <path id="DejaVuSans-36" d="M 2113 2584 
Q 1688 2584 1439 2293 
Q 1191 2003 1191 1497 
Q 1191 994 1439 701 
Q 1688 409 2113 409 
Q 2538 409 2786 701 
Q 3034 994 3034 1497 
Q 3034 2003 2786 2293 
Q 2538 2584 2113 2584 
z
M 3366 4563 
L 3366 3988 
Q 3128 4100 2886 4159 
Q 2644 4219 2406 4219 
Q 1781 4219 1451 3797 
Q 1122 3375 1075 2522 
Q 1259 2794 1537 2939 
Q 1816 3084 2150 3084 
Q 2853 3084 3261 2657 
Q 3669 2231 3669 1497 
Q 3669 778 3244 343 
Q 2819 -91 2113 -91 
Q 1303 -91 875 529 
Q 447 1150 447 2328 
Q 447 3434 972 4092 
Q 1497 4750 2381 4750 
Q 2619 4750 2861 4703 
Q 3103 4656 3366 4563 
z
" transform="scale(0.015625)"/>
     </defs>
     <use xlink:href="#DejaVuSans-36"/>
     <use xlink:href="#DejaVuSans-30" x="63.623047"/>
     <use xlink:href="#DejaVuSans-25" x="127.246094"/>
    </g>
   </g>
   <g id="text_18">
    <!-- bksp -->
    <g transform="translate(122.11738 226.766609)scale(0.144 -0.144)">
     <defs>
      <path id="DejaVuSans-6b" d="M 581 4863 
L 1159 4863 
L 1159 1991 
L 2875 3500 
L 3609 3500 
L 1753 1863 
L 3688 0 
L 2938 0 
L 1159 1709 
L 1159 0 
L 581 0 
L 581 4863 
z
" transform="scale(0.015625)"/>
     </defs>
     <use xlink:href="#DejaVuSans-62"/>
     <use xlink:href="#DejaVuSans-6b" x="63.476562"/>
     <use xlink:href="#DejaVuSans-73" x="121.386719"/>
     <use xlink:href="#DejaVuSans-70" x="173.486328"/>
    </g>
   </g>
  </g>
  <g id="axes_7">
   <g id="matplotlib.axis_13"/>
   <g id="matplotlib.axis_14"/>
   <g id="patch_14">
    <path d="M 263.394783 271.584 
C 263.394783 266.918939 262.343572 262.313286 260.319478 258.110212 
C 258.295384 253.907137 255.349958 250.21369 251.702667 247.305072 
C 248.055375 244.396455 243.799112 242.346746 239.251013 241.308673 
C 234.702915 240.2706 229.97882 240.2706 225.430721 241.308674 
C 220.882623 242.346748 216.62636 244.396457 212.979069 247.305075 
C 209.331778 250.213693 206.386353 253.90714 204.362259 258.110215 
C 202.338165 262.31329 201.286956 266.918943 201.286957 271.584004 
C 201.286957 276.249065 202.338168 280.854718 204.362263 285.057792 
L 232.34087 271.584 
L 263.394783 271.584 
z
" style="fill: #b0c4de"/>
   </g>
   <g id="patch_15">
    <path d="M 204.362263 285.057792 
C 207.414022 291.394833 212.530045 296.510854 218.867086 299.562611 
C 225.204128 302.614368 232.393782 303.424447 239.251021 301.859325 
C 246.108259 300.294204 252.234432 296.444873 256.6198 290.945794 
C 261.005168 285.446715 263.394784 278.617579 263.394783 271.583994 
L 232.34087 271.584 
L 204.362263 285.057792 
z
" style="fill: #f08080"/>
   </g>
   <g id="text_19">
    <!-- 57% -->
    <g transform="translate(217.081499 256.178179)scale(0.1 -0.1)">
     <defs>
      <path id="DejaVuSans-35" d="M 691 4666 
L 3169 4666 
L 3169 4134 
L 1269 4134 
L 1269 2991 
Q 1406 3038 1543 3061 
Q 1681 3084 1819 3084 
Q 2600 3084 3056 2656 
Q 3513 2228 3513 1497 
Q 3513 744 3044 326 
Q 2575 -91 1722 -91 
Q 1428 -91 1123 -41 
Q 819 9 494 109 
L 494 744 
Q 775 591 1075 516 
Q 1375 441 1709 441 
Q 2250 441 2565 725 
Q 2881 1009 2881 1497 
Q 2881 1984 2565 2268 
Q 2250 2553 1709 2553 
Q 1456 2553 1204 2497 
Q 953 2441 691 2322 
L 691 4666 
z
" transform="scale(0.015625)"/>
     </defs>
     <use xlink:href="#DejaVuSans-35"/>
     <use xlink:href="#DejaVuSans-37" x="63.623047"/>
     <use xlink:href="#DejaVuSans-25" x="127.246094"/>
    </g>
   </g>
   <g id="text_20">
    <!-- 43% -->
    <g transform="translate(225.373679 292.50857)scale(0.1 -0.1)">
     <use xlink:href="#DejaVuSans-34"/>
     <use xlink:href="#DejaVuSans-33" x="63.623047"/>
     <use xlink:href="#DejaVuSans-25" x="127.246094"/>
    </g>
   </g>
   <g id="text_21">
    <!-- del -->
    <g transform="translate(221.339495 226.766609)scale(0.144 -0.144)">
     <defs>
      <path id="DejaVuSans-64" d="M 2906 2969 
L 2906 4863 
L 3481 4863 
L 3481 0 
L 2906 0 
L 2906 525 
Q 2725 213 2448 61 
Q 2172 -91 1784 -91 
Q 1150 -91 751 415 
Q 353 922 353 1747 
Q 353 2572 751 3078 
Q 1150 3584 1784 3584 
Q 2172 3584 2448 3432 
Q 2725 3281 2906 2969 
z
M 947 1747 
Q 947 1113 1208 752 
Q 1469 391 1925 391 
Q 2381 391 2643 752 
Q 2906 1113 2906 1747 
Q 2906 2381 2643 2742 
Q 2381 3103 1925 3103 
Q 1469 3103 1208 2742 
Q 947 2381 947 1747 
z
" transform="scale(0.015625)"/>
     </defs>
     <use xlink:href="#DejaVuSans-64"/>
     <use xlink:href="#DejaVuSans-65" x="63.476562"/>
     <use xlink:href="#DejaVuSans-6c" x="125"/>
    </g>
   </g>
  </g>
  <g id="axes_8">
   <g id="matplotlib.axis_15"/>
   <g id="matplotlib.axis_16"/>
   <g id="patch_16">
    <path d="M 356.556522 271.584 
C 356.556522 265.739129 354.906367 260.011315 351.796708 255.062322 
C 348.687049 250.113329 344.242442 246.141385 338.976396 243.605391 
C 333.710349 241.069397 327.833792 240.070929 322.025672 240.725348 
C 316.217553 241.379766 310.710513 243.660857 306.140809 247.305074 
C 301.571106 250.949292 298.121775 255.810669 296.191337 261.327545 
C 294.260899 266.844421 293.926676 272.795821 295.227283 278.494148 
C 296.527889 284.192476 299.41123 289.409487 303.544178 293.542435 
C 307.677126 297.675382 312.894139 300.558722 318.592466 301.859327 
L 325.502609 271.584 
L 356.556522 271.584 
z
" style="fill: #b0c4de"/>
   </g>
   <g id="patch_17">
    <path d="M 318.592466 301.859327 
C 323.140565 302.897401 327.86466 302.8974 332.412758 301.859326 
C 336.960856 300.821251 341.217119 298.771543 344.86441 295.862924 
C 348.511701 292.954306 351.457126 289.260858 353.48122 285.057783 
C 355.505313 280.854708 356.556523 276.249055 356.556522 271.583994 
L 325.502609 271.584 
L 318.592466 301.859327 
z
" style="fill: #f08080"/>
   </g>
   <g id="text_22">
    <!-- 71% -->
    <g transform="translate(302.772248 259.776019)scale(0.1 -0.1)">
     <use xlink:href="#DejaVuSans-37"/>
     <use xlink:href="#DejaVuSans-31" x="63.623047"/>
     <use xlink:href="#DejaVuSans-25" x="127.246094"/>
    </g>
   </g>
   <g id="text_23">
    <!-- 29% -->
    <g transform="translate(326.006408 288.910729)scale(0.1 -0.1)">
     <use xlink:href="#DejaVuSans-32"/>
     <use xlink:href="#DejaVuSans-39" x="63.623047"/>
     <use xlink:href="#DejaVuSans-25" x="127.246094"/>
    </g>
   </g>
   <g id="text_24">
    <!-- homo -->
    <g transform="translate(305.115359 226.766609)scale(0.144 -0.144)">
     <defs>
      <path id="DejaVuSans-68" d="M 3513 2113 
L 3513 0 
L 2938 0 
L 2938 2094 
Q 2938 2591 2744 2837 
Q 2550 3084 2163 3084 
Q 1697 3084 1428 2787 
Q 1159 2491 1159 1978 
L 1159 0 
L 581 0 
L 581 4863 
L 1159 4863 
L 1159 2956 
Q 1366 3272 1645 3428 
Q 1925 3584 2291 3584 
Q 2894 3584 3203 3211 
Q 3513 2838 3513 2113 
z
" transform="scale(0.015625)"/>
      <path id="DejaVuSans-6d" d="M 3328 2828 
Q 3544 3216 3844 3400 
Q 4144 3584 4550 3584 
Q 5097 3584 5394 3201 
Q 5691 2819 5691 2113 
L 5691 0 
L 5113 0 
L 5113 2094 
Q 5113 2597 4934 2840 
Q 4756 3084 4391 3084 
Q 3944 3084 3684 2787 
Q 3425 2491 3425 1978 
L 3425 0 
L 2847 0 
L 2847 2094 
Q 2847 2600 2669 2842 
Q 2491 3084 2119 3084 
Q 1678 3084 1418 2786 
Q 1159 2488 1159 1978 
L 1159 0 
L 581 0 
L 581 3500 
L 1159 3500 
L 1159 2956 
Q 1356 3278 1631 3431 
Q 1906 3584 2284 3584 
Q 2666 3584 2933 3390 
Q 3200 3197 3328 2828 
z
" transform="scale(0.015625)"/>
     </defs>
     <use xlink:href="#DejaVuSans-68"/>
     <use xlink:href="#DejaVuSans-6f" x="63.378906"/>
     <use xlink:href="#DejaVuSans-6d" x="124.560547"/>
     <use xlink:href="#DejaVuSans-6f" x="221.972656"/>
    </g>
   </g>
   <g id="legend_1">
    <g id="patch_18">
     <path d="M 85.666679 407.879304 
L 282.747929 407.879304 
Q 284.747929 407.879304 284.747929 405.879304 
L 284.747929 377.523054 
Q 284.747929 375.523054 282.747929 375.523054 
L 85.666679 375.523054 
Q 83.666679 375.523054 83.666679 377.523054 
L 83.666679 405.879304 
Q 83.666679 407.879304 85.666679 407.879304 
z
" style="fill: #e5e5e5; opacity: 0.8; stroke: #cccccc; stroke-width: 0.5; stroke-linejoin: miter"/>
    </g>
    <g id="patch_19">
     <path d="M 87.666679 387.121492 
L 107.666679 387.121492 
L 107.666679 380.121492 
L 87.666679 380.121492 
z
" style="fill: #b0c4de"/>
    </g>
    <g id="text_25">
     <!-- Perturbed Target Present in SERP -->
     <g transform="translate(115.666679 387.121492)scale(0.1 -0.1)">
      <defs>
       <path id="DejaVuSans-50" d="M 1259 4147 
L 1259 2394 
L 2053 2394 
Q 2494 2394 2734 2622 
Q 2975 2850 2975 3272 
Q 2975 3691 2734 3919 
Q 2494 4147 2053 4147 
L 1259 4147 
z
M 628 4666 
L 2053 4666 
Q 2838 4666 3239 4311 
Q 3641 3956 3641 3272 
Q 3641 2581 3239 2228 
Q 2838 1875 2053 1875 
L 1259 1875 
L 1259 0 
L 628 0 
L 628 4666 
z
" transform="scale(0.015625)"/>
       <path id="DejaVuSans-74" d="M 1172 4494 
L 1172 3500 
L 2356 3500 
L 2356 3053 
L 1172 3053 
L 1172 1153 
Q 1172 725 1289 603 
Q 1406 481 1766 481 
L 2356 481 
L 2356 0 
L 1766 0 
Q 1100 0 847 248 
Q 594 497 594 1153 
L 594 3053 
L 172 3053 
L 172 3500 
L 594 3500 
L 594 4494 
L 1172 4494 
z
" transform="scale(0.015625)"/>
       <path id="DejaVuSans-75" d="M 544 1381 
L 544 3500 
L 1119 3500 
L 1119 1403 
Q 1119 906 1312 657 
Q 1506 409 1894 409 
Q 2359 409 2629 706 
Q 2900 1003 2900 1516 
L 2900 3500 
L 3475 3500 
L 3475 0 
L 2900 0 
L 2900 538 
Q 2691 219 2414 64 
Q 2138 -91 1772 -91 
Q 1169 -91 856 284 
Q 544 659 544 1381 
z
M 1991 3584 
L 1991 3584 
z
" transform="scale(0.015625)"/>
       <path id="DejaVuSans-20" transform="scale(0.015625)"/>
       <path id="DejaVuSans-54" d="M -19 4666 
L 3928 4666 
L 3928 4134 
L 2272 4134 
L 2272 0 
L 1638 0 
L 1638 4134 
L -19 4134 
L -19 4666 
z
" transform="scale(0.015625)"/>
       <path id="DejaVuSans-67" d="M 2906 1791 
Q 2906 2416 2648 2759 
Q 2391 3103 1925 3103 
Q 1463 3103 1205 2759 
Q 947 2416 947 1791 
Q 947 1169 1205 825 
Q 1463 481 1925 481 
Q 2391 481 2648 825 
Q 2906 1169 2906 1791 
z
M 3481 434 
Q 3481 -459 3084 -895 
Q 2688 -1331 1869 -1331 
Q 1566 -1331 1297 -1286 
Q 1028 -1241 775 -1147 
L 775 -588 
Q 1028 -725 1275 -790 
Q 1522 -856 1778 -856 
Q 2344 -856 2625 -561 
Q 2906 -266 2906 331 
L 2906 616 
Q 2728 306 2450 153 
Q 2172 0 1784 0 
Q 1141 0 747 490 
Q 353 981 353 1791 
Q 353 2603 747 3093 
Q 1141 3584 1784 3584 
Q 2172 3584 2450 3431 
Q 2728 3278 2906 2969 
L 2906 3500 
L 3481 3500 
L 3481 434 
z
" transform="scale(0.015625)"/>
       <path id="DejaVuSans-69" d="M 603 3500 
L 1178 3500 
L 1178 0 
L 603 0 
L 603 3500 
z
M 603 4863 
L 1178 4863 
L 1178 4134 
L 603 4134 
L 603 4863 
z
" transform="scale(0.015625)"/>
       <path id="DejaVuSans-53" d="M 3425 4513 
L 3425 3897 
Q 3066 4069 2747 4153 
Q 2428 4238 2131 4238 
Q 1616 4238 1336 4038 
Q 1056 3838 1056 3469 
Q 1056 3159 1242 3001 
Q 1428 2844 1947 2747 
L 2328 2669 
Q 3034 2534 3370 2195 
Q 3706 1856 3706 1288 
Q 3706 609 3251 259 
Q 2797 -91 1919 -91 
Q 1588 -91 1214 -16 
Q 841 59 441 206 
L 441 856 
Q 825 641 1194 531 
Q 1563 422 1919 422 
Q 2459 422 2753 634 
Q 3047 847 3047 1241 
Q 3047 1584 2836 1778 
Q 2625 1972 2144 2069 
L 1759 2144 
Q 1053 2284 737 2584 
Q 422 2884 422 3419 
Q 422 4038 858 4394 
Q 1294 4750 2059 4750 
Q 2388 4750 2728 4690 
Q 3069 4631 3425 4513 
z
" transform="scale(0.015625)"/>
       <path id="DejaVuSans-45" d="M 628 4666 
L 3578 4666 
L 3578 4134 
L 1259 4134 
L 1259 2753 
L 3481 2753 
L 3481 2222 
L 1259 2222 
L 1259 531 
L 3634 531 
L 3634 0 
L 628 0 
L 628 4666 
z
" transform="scale(0.015625)"/>
       <path id="DejaVuSans-52" d="M 2841 2188 
Q 3044 2119 3236 1894 
Q 3428 1669 3622 1275 
L 4263 0 
L 3584 0 
L 2988 1197 
Q 2756 1666 2539 1819 
Q 2322 1972 1947 1972 
L 1259 1972 
L 1259 0 
L 628 0 
L 628 4666 
L 2053 4666 
Q 2853 4666 3247 4331 
Q 3641 3997 3641 3322 
Q 3641 2881 3436 2590 
Q 3231 2300 2841 2188 
z
M 1259 4147 
L 1259 2491 
L 2053 2491 
Q 2509 2491 2742 2702 
Q 2975 2913 2975 3322 
Q 2975 3731 2742 3939 
Q 2509 4147 2053 4147 
L 1259 4147 
z
" transform="scale(0.015625)"/>
      </defs>
      <use xlink:href="#DejaVuSans-50"/>
      <use xlink:href="#DejaVuSans-65" x="56.677734"/>
      <use xlink:href="#DejaVuSans-72" x="118.201172"/>
      <use xlink:href="#DejaVuSans-74" x="159.314453"/>
      <use xlink:href="#DejaVuSans-75" x="198.523438"/>
      <use xlink:href="#DejaVuSans-72" x="261.902344"/>
      <use xlink:href="#DejaVuSans-62" x="303.015625"/>
      <use xlink:href="#DejaVuSans-65" x="366.492188"/>
      <use xlink:href="#DejaVuSans-64" x="428.015625"/>
      <use xlink:href="#DejaVuSans-20" x="491.492188"/>
      <use xlink:href="#DejaVuSans-54" x="523.279297"/>
      <use xlink:href="#DejaVuSans-61" x="567.863281"/>
      <use xlink:href="#DejaVuSans-72" x="629.142578"/>
      <use xlink:href="#DejaVuSans-67" x="668.505859"/>
      <use xlink:href="#DejaVuSans-65" x="731.982422"/>
      <use xlink:href="#DejaVuSans-74" x="793.505859"/>
      <use xlink:href="#DejaVuSans-20" x="832.714844"/>
      <use xlink:href="#DejaVuSans-50" x="864.501953"/>
      <use xlink:href="#DejaVuSans-72" x="923.054688"/>
      <use xlink:href="#DejaVuSans-65" x="961.917969"/>
      <use xlink:href="#DejaVuSans-73" x="1023.441406"/>
      <use xlink:href="#DejaVuSans-65" x="1075.541016"/>
      <use xlink:href="#DejaVuSans-6e" x="1137.064453"/>
      <use xlink:href="#DejaVuSans-74" x="1200.443359"/>
      <use xlink:href="#DejaVuSans-20" x="1239.652344"/>
      <use xlink:href="#DejaVuSans-69" x="1271.439453"/>
      <use xlink:href="#DejaVuSans-6e" x="1299.222656"/>
      <use xlink:href="#DejaVuSans-20" x="1362.601562"/>
      <use xlink:href="#DejaVuSans-53" x="1394.388672"/>
      <use xlink:href="#DejaVuSans-45" x="1457.865234"/>
      <use xlink:href="#DejaVuSans-52" x="1521.048828"/>
      <use xlink:href="#DejaVuSans-50" x="1590.53125"/>
     </g>
    </g>
    <g id="patch_20">
     <path d="M 87.666679 401.799617 
L 107.666679 401.799617 
L 107.666679 394.799617 
L 87.666679 394.799617 
z
" style="fill: #f08080"/>
    </g>
    <g id="text_26">
     <!-- Perturbed Target Absent in SERP -->
     <g transform="translate(115.666679 401.799617)scale(0.1 -0.1)">
      <defs>
       <path id="DejaVuSans-41" d="M 2188 4044 
L 1331 1722 
L 3047 1722 
L 2188 4044 
z
M 1831 4666 
L 2547 4666 
L 4325 0 
L 3669 0 
L 3244 1197 
L 1141 1197 
L 716 0 
L 50 0 
L 1831 4666 
z
" transform="scale(0.015625)"/>
      </defs>
      <use xlink:href="#DejaVuSans-50"/>
      <use xlink:href="#DejaVuSans-65" x="56.677734"/>
      <use xlink:href="#DejaVuSans-72" x="118.201172"/>
      <use xlink:href="#DejaVuSans-74" x="159.314453"/>
      <use xlink:href="#DejaVuSans-75" x="198.523438"/>
      <use xlink:href="#DejaVuSans-72" x="261.902344"/>
      <use xlink:href="#DejaVuSans-62" x="303.015625"/>
      <use xlink:href="#DejaVuSans-65" x="366.492188"/>
      <use xlink:href="#DejaVuSans-64" x="428.015625"/>
      <use xlink:href="#DejaVuSans-20" x="491.492188"/>
      <use xlink:href="#DejaVuSans-54" x="523.279297"/>
      <use xlink:href="#DejaVuSans-61" x="567.863281"/>
      <use xlink:href="#DejaVuSans-72" x="629.142578"/>
      <use xlink:href="#DejaVuSans-67" x="668.505859"/>
      <use xlink:href="#DejaVuSans-65" x="731.982422"/>
      <use xlink:href="#DejaVuSans-74" x="793.505859"/>
      <use xlink:href="#DejaVuSans-20" x="832.714844"/>
      <use xlink:href="#DejaVuSans-41" x="864.501953"/>
      <use xlink:href="#DejaVuSans-62" x="932.910156"/>
      <use xlink:href="#DejaVuSans-73" x="996.386719"/>
      <use xlink:href="#DejaVuSans-65" x="1048.486328"/>
      <use xlink:href="#DejaVuSans-6e" x="1110.009766"/>
      <use xlink:href="#DejaVuSans-74" x="1173.388672"/>
      <use xlink:href="#DejaVuSans-20" x="1212.597656"/>
      <use xlink:href="#DejaVuSans-69" x="1244.384766"/>
      <use xlink:href="#DejaVuSans-6e" x="1272.167969"/>
      <use xlink:href="#DejaVuSans-20" x="1335.546875"/>
      <use xlink:href="#DejaVuSans-53" x="1367.333984"/>
      <use xlink:href="#DejaVuSans-45" x="1430.810547"/>
      <use xlink:href="#DejaVuSans-52" x="1493.994141"/>
      <use xlink:href="#DejaVuSans-50" x="1563.476562"/>
     </g>
    </g>
   </g>
  </g>
  <g id="text_27">
   <!-- Bing: -->
   <g transform="translate(159.445 19.3575)scale(0.16 -0.16)">
    <defs>
     <path id="DejaVuSans-42" d="M 1259 2228 
L 1259 519 
L 2272 519 
Q 2781 519 3026 730 
Q 3272 941 3272 1375 
Q 3272 1813 3026 2020 
Q 2781 2228 2272 2228 
L 1259 2228 
z
M 1259 4147 
L 1259 2741 
L 2194 2741 
Q 2656 2741 2882 2914 
Q 3109 3088 3109 3444 
Q 3109 3797 2882 3972 
Q 2656 4147 2194 4147 
L 1259 4147 
z
M 628 4666 
L 2241 4666 
Q 2963 4666 3353 4366 
Q 3744 4066 3744 3513 
Q 3744 3084 3544 2831 
Q 3344 2578 2956 2516 
Q 3422 2416 3680 2098 
Q 3938 1781 3938 1306 
Q 3938 681 3513 340 
Q 3088 0 2303 0 
L 628 0 
L 628 4666 
z
" transform="scale(0.015625)"/>
     <path id="DejaVuSans-3a" d="M 750 794 
L 1409 794 
L 1409 0 
L 750 0 
L 750 794 
z
M 750 3309 
L 1409 3309 
L 1409 2516 
L 750 2516 
L 750 3309 
z
" transform="scale(0.015625)"/>
    </defs>
    <use xlink:href="#DejaVuSans-42"/>
    <use xlink:href="#DejaVuSans-69" x="68.603516"/>
    <use xlink:href="#DejaVuSans-6e" x="96.386719"/>
    <use xlink:href="#DejaVuSans-67" x="159.765625"/>
    <use xlink:href="#DejaVuSans-3a" x="223.242188"/>
   </g>
   <!-- Perturbed Result from Perturbed Query -->
   <g transform="translate(23.54625 37.274)scale(0.16 -0.16)">
    <defs>
     <path id="DejaVuSans-66" d="M 2375 4863 
L 2375 4384 
L 1825 4384 
Q 1516 4384 1395 4259 
Q 1275 4134 1275 3809 
L 1275 3500 
L 2222 3500 
L 2222 3053 
L 1275 3053 
L 1275 0 
L 697 0 
L 697 3053 
L 147 3053 
L 147 3500 
L 697 3500 
L 697 3744 
Q 697 4328 969 4595 
Q 1241 4863 1831 4863 
L 2375 4863 
z
" transform="scale(0.015625)"/>
     <path id="DejaVuSans-51" d="M 2522 4238 
Q 1834 4238 1429 3725 
Q 1025 3213 1025 2328 
Q 1025 1447 1429 934 
Q 1834 422 2522 422 
Q 3209 422 3611 934 
Q 4013 1447 4013 2328 
Q 4013 3213 3611 3725 
Q 3209 4238 2522 4238 
z
M 3406 84 
L 4238 -825 
L 3475 -825 
L 2784 -78 
Q 2681 -84 2626 -87 
Q 2572 -91 2522 -91 
Q 1538 -91 948 567 
Q 359 1225 359 2328 
Q 359 3434 948 4092 
Q 1538 4750 2522 4750 
Q 3503 4750 4090 4092 
Q 4678 3434 4678 2328 
Q 4678 1516 4351 937 
Q 4025 359 3406 84 
z
" transform="scale(0.015625)"/>
     <path id="DejaVuSans-79" d="M 2059 -325 
Q 1816 -950 1584 -1140 
Q 1353 -1331 966 -1331 
L 506 -1331 
L 506 -850 
L 844 -850 
Q 1081 -850 1212 -737 
Q 1344 -625 1503 -206 
L 1606 56 
L 191 3500 
L 800 3500 
L 1894 763 
L 2988 3500 
L 3597 3500 
L 2059 -325 
z
" transform="scale(0.015625)"/>
    </defs>
    <use xlink:href="#DejaVuSans-50"/>
    <use xlink:href="#DejaVuSans-65" x="56.677734"/>
    <use xlink:href="#DejaVuSans-72" x="118.201172"/>
    <use xlink:href="#DejaVuSans-74" x="159.314453"/>
    <use xlink:href="#DejaVuSans-75" x="198.523438"/>
    <use xlink:href="#DejaVuSans-72" x="261.902344"/>
    <use xlink:href="#DejaVuSans-62" x="303.015625"/>
    <use xlink:href="#DejaVuSans-65" x="366.492188"/>
    <use xlink:href="#DejaVuSans-64" x="428.015625"/>
    <use xlink:href="#DejaVuSans-20" x="491.492188"/>
    <use xlink:href="#DejaVuSans-52" x="523.279297"/>
    <use xlink:href="#DejaVuSans-65" x="588.261719"/>
    <use xlink:href="#DejaVuSans-73" x="649.785156"/>
    <use xlink:href="#DejaVuSans-75" x="701.884766"/>
    <use xlink:href="#DejaVuSans-6c" x="765.263672"/>
    <use xlink:href="#DejaVuSans-74" x="793.046875"/>
    <use xlink:href="#DejaVuSans-20" x="832.255859"/>
    <use xlink:href="#DejaVuSans-66" x="864.042969"/>
    <use xlink:href="#DejaVuSans-72" x="899.248047"/>
    <use xlink:href="#DejaVuSans-6f" x="938.111328"/>
    <use xlink:href="#DejaVuSans-6d" x="999.292969"/>
    <use xlink:href="#DejaVuSans-20" x="1096.705078"/>
    <use xlink:href="#DejaVuSans-50" x="1128.492188"/>
    <use xlink:href="#DejaVuSans-65" x="1185.169922"/>
    <use xlink:href="#DejaVuSans-72" x="1246.693359"/>
    <use xlink:href="#DejaVuSans-74" x="1287.806641"/>
    <use xlink:href="#DejaVuSans-75" x="1327.015625"/>
    <use xlink:href="#DejaVuSans-72" x="1390.394531"/>
    <use xlink:href="#DejaVuSans-62" x="1431.507812"/>
    <use xlink:href="#DejaVuSans-65" x="1494.984375"/>
    <use xlink:href="#DejaVuSans-64" x="1556.507812"/>
    <use xlink:href="#DejaVuSans-20" x="1619.984375"/>
    <use xlink:href="#DejaVuSans-51" x="1651.771484"/>
    <use xlink:href="#DejaVuSans-75" x="1730.482422"/>
    <use xlink:href="#DejaVuSans-65" x="1793.861328"/>
    <use xlink:href="#DejaVuSans-72" x="1855.384766"/>
    <use xlink:href="#DejaVuSans-79" x="1896.498047"/>
   </g>
  </g>
 </g>
</svg>
