<?xml version="1.0" encoding="utf-8" standalone="no"?>
<!DOCTYPE svg PUBLIC "-//W3C//DTD SVG 1.1//EN"
  "http://www.w3.org/Graphics/SVG/1.1/DTD/svg11.dtd">
<svg xmlns:xlink="http://www.w3.org/1999/xlink" width="460.8pt" height="345.6pt" viewBox="0 0 460.8 345.6" xmlns="http://www.w3.org/2000/svg" version="1.1">
 <metadata>
  <rdf:RDF xmlns:dc="http://purl.org/dc/elements/1.1/" xmlns:cc="http://creativecommons.org/ns#" xmlns:rdf="http://www.w3.org/1999/02/22-rdf-syntax-ns#">
   <cc:Work>
    <dc:type rdf:resource="http://purl.org/dc/dcmitype/StillImage"/>
    <dc:date>2023-02-27T01:37:12.536967</dc:date>
    <dc:format>image/svg+xml</dc:format>
    <dc:creator>
     <cc:Agent>
      <dc:title>Matplotlib v3.5.3, https://matplotlib.org/</dc:title>
     </cc:Agent>
    </dc:creator>
   </cc:Work>
  </rdf:RDF>
 </metadata>
 <defs>
  <style type="text/css">*{stroke-linejoin: round; stroke-linecap: butt}</style>
 </defs>
 <g id="figure_1">
  <g id="patch_1">
   <path d="M 0 345.6 
L 460.8 345.6 
L 460.8 0 
L 0 0 
z
" style="fill: #ffffff"/>
  </g>
  <g id="axes_1">
   <g id="matplotlib.axis_1"/>
   <g id="matplotlib.axis_2"/>
   <g id="patch_2">
    <path d="M 127.471304 101.952 
C 127.471304 95.570284 125.504098 89.341079 121.838895 84.116848 
C 118.173693 78.892616 112.985678 74.923058 106.984827 72.751404 
C 100.983975 70.579749 94.457107 70.309796 88.297417 71.978486 
C 82.137727 73.647177 76.639629 77.174754 72.555531 82.078471 
L 96.417391 101.952 
L 127.471304 101.952 
z
" style="fill: #20b2aa"/>
   </g>
   <g id="patch_3">
    <path d="M 72.555531 82.078471 
C 69.3639 85.910617 67.141889 90.455813 66.078127 95.328211 
C 65.014366 100.200608 65.139833 105.258315 66.443877 110.071974 
C 67.747922 114.885633 70.192568 119.315064 73.570284 122.984242 
C 76.948001 126.653421 81.160425 129.455497 85.849956 131.152596 
C 90.539487 132.849696 95.569558 133.392397 100.513159 132.734628 
C 105.456759 132.07686 110.169924 130.237777 114.252543 127.373504 
C 118.335163 124.509231 121.668346 120.703178 123.969132 116.278449 
C 126.269917 111.853719 127.471304 106.939168 127.471304 101.952 
L 96.417391 101.952 
L 72.555531 82.078471 
z
" style="fill: #ff6347"/>
   </g>
   <g id="text_1">
    <!-- 39% -->
    <g transform="translate(91.644571 87.191017)scale(0.1 -0.1)">
     <defs>
      <path id="DejaVuSans-33" d="M 2597 2516 
Q 3050 2419 3304 2112 
Q 3559 1806 3559 1356 
Q 3559 666 3084 287 
Q 2609 -91 1734 -91 
Q 1441 -91 1130 -33 
Q 819 25 488 141 
L 488 750 
Q 750 597 1062 519 
Q 1375 441 1716 441 
Q 2309 441 2620 675 
Q 2931 909 2931 1356 
Q 2931 1769 2642 2001 
Q 2353 2234 1838 2234 
L 1294 2234 
L 1294 2753 
L 1863 2753 
Q 2328 2753 2575 2939 
Q 2822 3125 2822 3475 
Q 2822 3834 2567 4026 
Q 2313 4219 1838 4219 
Q 1578 4219 1281 4162 
Q 984 4106 628 3988 
L 628 4550 
Q 988 4650 1302 4700 
Q 1616 4750 1894 4750 
Q 2613 4750 3031 4423 
Q 3450 4097 3450 3541 
Q 3450 3153 3228 2886 
Q 3006 2619 2597 2516 
z
" transform="scale(0.015625)"/>
      <path id="DejaVuSans-39" d="M 703 97 
L 703 672 
Q 941 559 1184 500 
Q 1428 441 1663 441 
Q 2288 441 2617 861 
Q 2947 1281 2994 2138 
Q 2813 1869 2534 1725 
Q 2256 1581 1919 1581 
Q 1219 1581 811 2004 
Q 403 2428 403 3163 
Q 403 3881 828 4315 
Q 1253 4750 1959 4750 
Q 2769 4750 3195 4129 
Q 3622 3509 3622 2328 
Q 3622 1225 3098 567 
Q 2575 -91 1691 -91 
Q 1453 -91 1209 -44 
Q 966 3 703 97 
z
M 1959 2075 
Q 2384 2075 2632 2365 
Q 2881 2656 2881 3163 
Q 2881 3666 2632 3958 
Q 2384 4250 1959 4250 
Q 1534 4250 1286 3958 
Q 1038 3666 1038 3163 
Q 1038 2656 1286 2365 
Q 1534 2075 1959 2075 
z
" transform="scale(0.015625)"/>
      <path id="DejaVuSans-25" d="M 4653 2053 
Q 4381 2053 4226 1822 
Q 4072 1591 4072 1178 
Q 4072 772 4226 539 
Q 4381 306 4653 306 
Q 4919 306 5073 539 
Q 5228 772 5228 1178 
Q 5228 1588 5073 1820 
Q 4919 2053 4653 2053 
z
M 4653 2450 
Q 5147 2450 5437 2106 
Q 5728 1763 5728 1178 
Q 5728 594 5436 251 
Q 5144 -91 4653 -91 
Q 4153 -91 3862 251 
Q 3572 594 3572 1178 
Q 3572 1766 3864 2108 
Q 4156 2450 4653 2450 
z
M 1428 4353 
Q 1159 4353 1004 4120 
Q 850 3888 850 3481 
Q 850 3069 1003 2837 
Q 1156 2606 1428 2606 
Q 1700 2606 1854 2837 
Q 2009 3069 2009 3481 
Q 2009 3884 1853 4118 
Q 1697 4353 1428 4353 
z
M 4250 4750 
L 4750 4750 
L 1831 -91 
L 1331 -91 
L 4250 4750 
z
M 1428 4750 
Q 1922 4750 2215 4408 
Q 2509 4066 2509 3481 
Q 2509 2891 2217 2550 
Q 1925 2209 1428 2209 
Q 931 2209 642 2551 
Q 353 2894 353 3481 
Q 353 4063 643 4406 
Q 934 4750 1428 4750 
z
" transform="scale(0.015625)"/>
     </defs>
     <use xlink:href="#DejaVuSans-33"/>
     <use xlink:href="#DejaVuSans-39" x="63.623047"/>
     <use xlink:href="#DejaVuSans-25" x="127.246094"/>
    </g>
   </g>
   <g id="text_2">
    <!-- 61% -->
    <g transform="translate(78.963649 122.231733)scale(0.1 -0.1)">
     <defs>
      <path id="DejaVuSans-36" d="M 2113 2584 
Q 1688 2584 1439 2293 
Q 1191 2003 1191 1497 
Q 1191 994 1439 701 
Q 1688 409 2113 409 
Q 2538 409 2786 701 
Q 3034 994 3034 1497 
Q 3034 2003 2786 2293 
Q 2538 2584 2113 2584 
z
M 3366 4563 
L 3366 3988 
Q 3128 4100 2886 4159 
Q 2644 4219 2406 4219 
Q 1781 4219 1451 3797 
Q 1122 3375 1075 2522 
Q 1259 2794 1537 2939 
Q 1816 3084 2150 3084 
Q 2853 3084 3261 2657 
Q 3669 2231 3669 1497 
Q 3669 778 3244 343 
Q 2819 -91 2113 -91 
Q 1303 -91 875 529 
Q 447 1150 447 2328 
Q 447 3434 972 4092 
Q 1497 4750 2381 4750 
Q 2619 4750 2861 4703 
Q 3103 4656 3366 4563 
z
" transform="scale(0.015625)"/>
      <path id="DejaVuSans-31" d="M 794 531 
L 1825 531 
L 1825 4091 
L 703 3866 
L 703 4441 
L 1819 4666 
L 2450 4666 
L 2450 531 
L 3481 531 
L 3481 0 
L 794 0 
L 794 531 
z
" transform="scale(0.015625)"/>
     </defs>
     <use xlink:href="#DejaVuSans-36"/>
     <use xlink:href="#DejaVuSans-31" x="63.623047"/>
     <use xlink:href="#DejaVuSans-25" x="127.246094"/>
    </g>
   </g>
   <g id="text_3">
    <!-- base -->
    <g transform="translate(79.253266 57.134609)scale(0.144 -0.144)">
     <defs>
      <path id="DejaVuSans-62" d="M 3116 1747 
Q 3116 2381 2855 2742 
Q 2594 3103 2138 3103 
Q 1681 3103 1420 2742 
Q 1159 2381 1159 1747 
Q 1159 1113 1420 752 
Q 1681 391 2138 391 
Q 2594 391 2855 752 
Q 3116 1113 3116 1747 
z
M 1159 2969 
Q 1341 3281 1617 3432 
Q 1894 3584 2278 3584 
Q 2916 3584 3314 3078 
Q 3713 2572 3713 1747 
Q 3713 922 3314 415 
Q 2916 -91 2278 -91 
Q 1894 -91 1617 61 
Q 1341 213 1159 525 
L 1159 0 
L 581 0 
L 581 4863 
L 1159 4863 
L 1159 2969 
z
" transform="scale(0.015625)"/>
      <path id="DejaVuSans-61" d="M 2194 1759 
Q 1497 1759 1228 1600 
Q 959 1441 959 1056 
Q 959 750 1161 570 
Q 1363 391 1709 391 
Q 2188 391 2477 730 
Q 2766 1069 2766 1631 
L 2766 1759 
L 2194 1759 
z
M 3341 1997 
L 3341 0 
L 2766 0 
L 2766 531 
Q 2569 213 2275 61 
Q 1981 -91 1556 -91 
Q 1019 -91 701 211 
Q 384 513 384 1019 
Q 384 1609 779 1909 
Q 1175 2209 1959 2209 
L 2766 2209 
L 2766 2266 
Q 2766 2663 2505 2880 
Q 2244 3097 1772 3097 
Q 1472 3097 1187 3025 
Q 903 2953 641 2809 
L 641 3341 
Q 956 3463 1253 3523 
Q 1550 3584 1831 3584 
Q 2591 3584 2966 3190 
Q 3341 2797 3341 1997 
z
" transform="scale(0.015625)"/>
      <path id="DejaVuSans-73" d="M 2834 3397 
L 2834 2853 
Q 2591 2978 2328 3040 
Q 2066 3103 1784 3103 
Q 1356 3103 1142 2972 
Q 928 2841 928 2578 
Q 928 2378 1081 2264 
Q 1234 2150 1697 2047 
L 1894 2003 
Q 2506 1872 2764 1633 
Q 3022 1394 3022 966 
Q 3022 478 2636 193 
Q 2250 -91 1575 -91 
Q 1294 -91 989 -36 
Q 684 19 347 128 
L 347 722 
Q 666 556 975 473 
Q 1284 391 1588 391 
Q 1994 391 2212 530 
Q 2431 669 2431 922 
Q 2431 1156 2273 1281 
Q 2116 1406 1581 1522 
L 1381 1569 
Q 847 1681 609 1914 
Q 372 2147 372 2553 
Q 372 3047 722 3315 
Q 1072 3584 1716 3584 
Q 2034 3584 2315 3537 
Q 2597 3491 2834 3397 
z
" transform="scale(0.015625)"/>
      <path id="DejaVuSans-65" d="M 3597 1894 
L 3597 1613 
L 953 1613 
Q 991 1019 1311 708 
Q 1631 397 2203 397 
Q 2534 397 2845 478 
Q 3156 559 3463 722 
L 3463 178 
Q 3153 47 2828 -22 
Q 2503 -91 2169 -91 
Q 1331 -91 842 396 
Q 353 884 353 1716 
Q 353 2575 817 3079 
Q 1281 3584 2069 3584 
Q 2775 3584 3186 3129 
Q 3597 2675 3597 1894 
z
M 3022 2063 
Q 3016 2534 2758 2815 
Q 2500 3097 2075 3097 
Q 1594 3097 1305 2825 
Q 1016 2553 972 2059 
L 3022 2063 
z
" transform="scale(0.015625)"/>
     </defs>
     <use xlink:href="#DejaVuSans-62"/>
     <use xlink:href="#DejaVuSans-61" x="63.476562"/>
     <use xlink:href="#DejaVuSans-73" x="124.755859"/>
     <use xlink:href="#DejaVuSans-65" x="176.855469"/>
    </g>
   </g>
  </g>
  <g id="axes_2">
   <g id="matplotlib.axis_3"/>
   <g id="matplotlib.axis_4"/>
   <g id="patch_4">
    <path d="M 220.633043 101.952 
C 220.633043 94.559816 217.993551 87.405158 213.192712 81.784097 
C 208.391872 76.163036 201.738208 72.436805 194.437034 71.280412 
C 187.13586 70.12402 179.65638 71.61178 173.353507 75.474186 
C 167.050634 79.336591 162.329416 85.325426 160.045105 92.355811 
L 189.57913 101.952 
L 220.633043 101.952 
z
" style="fill: #20b2aa"/>
   </g>
   <g id="patch_5">
    <path d="M 160.045105 92.355811 
C 158.658004 96.624868 158.212873 101.144356 158.740469 105.601994 
C 159.268065 110.059633 160.75595 114.350333 163.101316 118.177624 
C 165.446682 122.004914 168.594238 125.278567 172.3265 127.772384 
C 176.058761 130.266202 180.287739 131.921392 184.721227 132.623588 
C 189.154715 133.325783 193.688194 133.05843 198.008418 131.840001 
C 202.328641 130.621573 206.333759 128.480793 209.747033 125.565581 
C 213.160307 122.65037 215.90127 119.029453 217.780529 114.953023 
C 219.659789 110.876594 220.633043 106.440752 220.633043 101.952 
L 189.57913 101.952 
L 160.045105 92.355811 
z
" style="fill: #ff6347"/>
   </g>
   <g id="text_4">
    <!-- 45% -->
    <g transform="translate(181.380591 86.308422)scale(0.1 -0.1)">
     <defs>
      <path id="DejaVuSans-34" d="M 2419 4116 
L 825 1625 
L 2419 1625 
L 2419 4116 
z
M 2253 4666 
L 3047 4666 
L 3047 1625 
L 3713 1625 
L 3713 1100 
L 3047 1100 
L 3047 0 
L 2419 0 
L 2419 1100 
L 313 1100 
L 313 1709 
L 2253 4666 
z
" transform="scale(0.015625)"/>
      <path id="DejaVuSans-35" d="M 691 4666 
L 3169 4666 
L 3169 4134 
L 1269 4134 
L 1269 2991 
Q 1406 3038 1543 3061 
Q 1681 3084 1819 3084 
Q 2600 3084 3056 2656 
Q 3513 2228 3513 1497 
Q 3513 744 3044 326 
Q 2575 -91 1722 -91 
Q 1428 -91 1123 -41 
Q 819 9 494 109 
L 494 744 
Q 775 591 1075 516 
Q 1375 441 1709 441 
Q 2250 441 2565 725 
Q 2881 1009 2881 1497 
Q 2881 1984 2565 2268 
Q 2250 2553 1709 2553 
Q 1456 2553 1204 2497 
Q 953 2441 691 2322 
L 691 4666 
z
" transform="scale(0.015625)"/>
     </defs>
     <use xlink:href="#DejaVuSans-34"/>
     <use xlink:href="#DejaVuSans-35" x="63.623047"/>
     <use xlink:href="#DejaVuSans-25" x="127.246094"/>
    </g>
   </g>
   <g id="text_5">
    <!-- 55% -->
    <g transform="translate(175.551107 123.114328)scale(0.1 -0.1)">
     <use xlink:href="#DejaVuSans-35"/>
     <use xlink:href="#DejaVuSans-35" x="63.623047"/>
     <use xlink:href="#DejaVuSans-25" x="127.246094"/>
    </g>
   </g>
   <g id="text_6">
    <!-- zwsp -->
    <g transform="translate(171.59038 57.134609)scale(0.144 -0.144)">
     <defs>
      <path id="DejaVuSans-7a" d="M 353 3500 
L 3084 3500 
L 3084 2975 
L 922 459 
L 3084 459 
L 3084 0 
L 275 0 
L 275 525 
L 2438 3041 
L 353 3041 
L 353 3500 
z
" transform="scale(0.015625)"/>
      <path id="DejaVuSans-77" d="M 269 3500 
L 844 3500 
L 1563 769 
L 2278 3500 
L 2956 3500 
L 3675 769 
L 4391 3500 
L 4966 3500 
L 4050 0 
L 3372 0 
L 2619 2869 
L 1863 0 
L 1184 0 
L 269 3500 
z
" transform="scale(0.015625)"/>
      <path id="DejaVuSans-70" d="M 1159 525 
L 1159 -1331 
L 581 -1331 
L 581 3500 
L 1159 3500 
L 1159 2969 
Q 1341 3281 1617 3432 
Q 1894 3584 2278 3584 
Q 2916 3584 3314 3078 
Q 3713 2572 3713 1747 
Q 3713 922 3314 415 
Q 2916 -91 2278 -91 
Q 1894 -91 1617 61 
Q 1341 213 1159 525 
z
M 3116 1747 
Q 3116 2381 2855 2742 
Q 2594 3103 2138 3103 
Q 1681 3103 1420 2742 
Q 1159 2381 1159 1747 
Q 1159 1113 1420 752 
Q 1681 391 2138 391 
Q 2594 391 2855 752 
Q 3116 1113 3116 1747 
z
" transform="scale(0.015625)"/>
     </defs>
     <use xlink:href="#DejaVuSans-7a"/>
     <use xlink:href="#DejaVuSans-77" x="52.490234"/>
     <use xlink:href="#DejaVuSans-73" x="134.277344"/>
     <use xlink:href="#DejaVuSans-70" x="186.376953"/>
    </g>
   </g>
  </g>
  <g id="axes_3">
   <g id="matplotlib.axis_5"/>
   <g id="matplotlib.axis_6"/>
   <g id="patch_6">
    <path d="M 313.794783 101.952 
C 313.794783 94.576914 311.167486 87.437701 306.386746 81.821972 
C 301.606006 76.206243 294.977622 72.473206 287.697071 71.296143 
C 280.416521 70.11908 272.949504 71.573281 266.642753 75.396471 
C 260.336001 79.21966 255.592926 85.167288 253.268975 92.166656 
L 282.74087 101.952 
L 313.794783 101.952 
z
" style="fill: #20b2aa"/>
   </g>
   <g id="patch_7">
    <path d="M 253.268975 92.166656 
C 251.851888 96.434696 251.378697 100.960066 251.882217 105.428933 
C 252.385737 109.897801 253.854054 114.204415 256.185339 118.050116 
C 258.516625 121.895816 261.655714 125.189599 265.384911 127.703043 
C 269.114107 130.216486 273.345166 131.890112 277.784665 132.607857 
C 282.224164 133.325601 286.767048 133.070479 291.09827 131.860182 
C 295.429493 130.649886 299.446562 128.513056 302.870894 125.59788 
C 306.295227 122.682704 309.045792 119.058165 310.931838 114.975625 
C 312.817884 110.893085 313.794782 106.44915 313.794783 101.952006 
L 282.74087 101.952 
L 253.268975 92.166656 
z
" style="fill: #ff6347"/>
   </g>
   <g id="text_7">
    <!-- 45% -->
    <g transform="translate(274.601309 86.317861)scale(0.1 -0.1)">
     <use xlink:href="#DejaVuSans-34"/>
     <use xlink:href="#DejaVuSans-35" x="63.623047"/>
     <use xlink:href="#DejaVuSans-25" x="127.246094"/>
    </g>
   </g>
   <g id="text_8">
    <!-- 55% -->
    <g transform="translate(268.653866 123.104889)scale(0.1 -0.1)">
     <use xlink:href="#DejaVuSans-35"/>
     <use xlink:href="#DejaVuSans-35" x="63.623047"/>
     <use xlink:href="#DejaVuSans-25" x="127.246094"/>
    </g>
   </g>
   <g id="text_9">
    <!-- zwnj -->
    <g transform="translate(266.510495 57.134609)scale(0.144 -0.144)">
     <defs>
      <path id="DejaVuSans-6e" d="M 3513 2113 
L 3513 0 
L 2938 0 
L 2938 2094 
Q 2938 2591 2744 2837 
Q 2550 3084 2163 3084 
Q 1697 3084 1428 2787 
Q 1159 2491 1159 1978 
L 1159 0 
L 581 0 
L 581 3500 
L 1159 3500 
L 1159 2956 
Q 1366 3272 1645 3428 
Q 1925 3584 2291 3584 
Q 2894 3584 3203 3211 
Q 3513 2838 3513 2113 
z
" transform="scale(0.015625)"/>
      <path id="DejaVuSans-6a" d="M 603 3500 
L 1178 3500 
L 1178 -63 
Q 1178 -731 923 -1031 
Q 669 -1331 103 -1331 
L -116 -1331 
L -116 -844 
L 38 -844 
Q 366 -844 484 -692 
Q 603 -541 603 -63 
L 603 3500 
z
M 603 4863 
L 1178 4863 
L 1178 4134 
L 603 4134 
L 603 4863 
z
" transform="scale(0.015625)"/>
     </defs>
     <use xlink:href="#DejaVuSans-7a"/>
     <use xlink:href="#DejaVuSans-77" x="52.490234"/>
     <use xlink:href="#DejaVuSans-6e" x="134.277344"/>
     <use xlink:href="#DejaVuSans-6a" x="197.65625"/>
    </g>
   </g>
  </g>
  <g id="axes_4">
   <g id="matplotlib.axis_7"/>
   <g id="matplotlib.axis_8"/>
   <g id="patch_8">
    <path d="M 406.956522 101.952 
C 406.956522 96.334196 405.43209 90.82029 402.546351 86.000307 
C 399.660613 81.180325 395.520306 77.232551 390.568474 74.579424 
C 385.616643 71.926298 380.036446 70.665955 374.425005 70.93326 
C 368.813565 71.200566 363.378439 72.985633 358.701225 76.097447 
L 375.902609 101.952 
L 406.956522 101.952 
z
" style="fill: #20b2aa"/>
   </g>
   <g id="patch_9">
    <path d="M 358.701225 76.097447 
C 354.232653 79.070448 350.610243 83.151771 348.188772 87.941691 
C 345.7673 92.731612 344.628488 98.06848 344.883869 103.429603 
C 345.139251 108.790727 346.780208 113.995178 349.646025 118.533234 
C 352.511842 123.071291 356.505804 126.789801 361.236743 129.324576 
C 365.967682 131.85935 371.275937 133.124845 376.64162 132.997118 
C 382.007302 132.869391 387.24933 131.352753 391.854301 128.595743 
C 396.459272 125.838732 400.271777 121.934393 402.918419 117.265116 
C 405.565061 112.595839 406.956522 107.319203 406.956522 101.952 
L 375.902609 101.952 
L 358.701225 76.097447 
z
" style="fill: #ff6347"/>
   </g>
   <g id="text_10">
    <!-- 34% -->
    <g transform="translate(373.588847 88.28783)scale(0.1 -0.1)">
     <use xlink:href="#DejaVuSans-33"/>
     <use xlink:href="#DejaVuSans-34" x="63.623047"/>
     <use xlink:href="#DejaVuSans-25" x="127.246094"/>
    </g>
   </g>
   <g id="text_11">
    <!-- 66% -->
    <g transform="translate(355.989808 121.13492)scale(0.1 -0.1)">
     <use xlink:href="#DejaVuSans-36"/>
     <use xlink:href="#DejaVuSans-36" x="63.623047"/>
     <use xlink:href="#DejaVuSans-25" x="127.246094"/>
    </g>
   </g>
   <g id="text_12">
    <!-- zwj -->
    <g transform="translate(364.235234 57.134609)scale(0.144 -0.144)">
     <use xlink:href="#DejaVuSans-7a"/>
     <use xlink:href="#DejaVuSans-77" x="52.490234"/>
     <use xlink:href="#DejaVuSans-6a" x="134.277344"/>
    </g>
   </g>
  </g>
  <g id="axes_5">
   <g id="matplotlib.axis_9"/>
   <g id="matplotlib.axis_10"/>
   <g id="patch_10">
    <path d="M 127.471304 247.104 
C 127.471304 243.123728 126.706059 239.180322 125.217324 235.488949 
C 123.728588 231.797577 121.543941 228.426618 118.782583 225.560005 
C 116.021225 222.693392 112.734311 220.384228 109.101185 218.758508 
C 105.468059 217.132789 101.556024 216.22063 97.578536 216.071803 
C 93.601047 215.922976 89.631785 216.540237 85.887328 217.889906 
C 82.142871 219.239575 78.692583 221.296651 75.724724 223.948892 
C 72.756865 226.601132 70.326414 229.799406 68.565984 233.369203 
C 66.805555 236.939001 65.747758 240.814193 65.450312 244.783335 
C 65.152865 248.752478 65.621279 252.742044 66.829995 256.534348 
C 68.03871 260.326653 69.965337 263.851444 72.504751 266.916399 
C 75.044165 269.981353 78.149324 272.529692 81.650801 274.42237 
C 85.152277 276.315047 88.985207 277.517002 92.940452 277.962652 
C 96.895697 278.408302 100.899988 278.08939 104.734836 277.023319 
C 108.569683 275.957247 112.164049 274.163764 115.321812 271.740729 
C 118.479575 269.317693 121.142237 266.30999 123.164516 262.881732 
C 125.186795 259.453474 126.531227 255.668167 127.124457 251.732351 
L 96.417391 247.104 
L 127.471304 247.104 
z
" style="fill: #20b2aa"/>
   </g>
   <g id="patch_11">
    <path d="M 127.124457 251.732351 
C 127.23987 250.966634 127.326602 250.196868 127.384471 249.424667 
C 127.442339 248.652467 127.471304 247.878371 127.471304 247.104005 
L 96.417391 247.104 
L 127.124457 251.732351 
z
" style="fill: #ff6347"/>
   </g>
   <g id="text_13">
    <!-- 98% -->
    <g transform="translate(66.723862 248.470976)scale(0.1 -0.1)">
     <defs>
      <path id="DejaVuSans-38" d="M 2034 2216 
Q 1584 2216 1326 1975 
Q 1069 1734 1069 1313 
Q 1069 891 1326 650 
Q 1584 409 2034 409 
Q 2484 409 2743 651 
Q 3003 894 3003 1313 
Q 3003 1734 2745 1975 
Q 2488 2216 2034 2216 
z
M 1403 2484 
Q 997 2584 770 2862 
Q 544 3141 544 3541 
Q 544 4100 942 4425 
Q 1341 4750 2034 4750 
Q 2731 4750 3128 4425 
Q 3525 4100 3525 3541 
Q 3525 3141 3298 2862 
Q 3072 2584 2669 2484 
Q 3125 2378 3379 2068 
Q 3634 1759 3634 1313 
Q 3634 634 3220 271 
Q 2806 -91 2034 -91 
Q 1263 -91 848 271 
Q 434 634 434 1313 
Q 434 1759 690 2068 
Q 947 2378 1403 2484 
z
M 1172 3481 
Q 1172 3119 1398 2916 
Q 1625 2713 2034 2713 
Q 2441 2713 2670 2916 
Q 2900 3119 2900 3481 
Q 2900 3844 2670 4047 
Q 2441 4250 2034 4250 
Q 1625 4250 1398 4047 
Q 1172 3844 1172 3481 
z
" transform="scale(0.015625)"/>
     </defs>
     <use xlink:href="#DejaVuSans-39"/>
     <use xlink:href="#DejaVuSans-38" x="63.623047"/>
     <use xlink:href="#DejaVuSans-25" x="127.246094"/>
    </g>
   </g>
   <g id="text_14">
    <!-- 2% -->
    <g transform="translate(107.065608 251.255775)scale(0.1 -0.1)">
     <defs>
      <path id="DejaVuSans-32" d="M 1228 531 
L 3431 531 
L 3431 0 
L 469 0 
L 469 531 
Q 828 903 1448 1529 
Q 2069 2156 2228 2338 
Q 2531 2678 2651 2914 
Q 2772 3150 2772 3378 
Q 2772 3750 2511 3984 
Q 2250 4219 1831 4219 
Q 1534 4219 1204 4116 
Q 875 4013 500 3803 
L 500 4441 
Q 881 4594 1212 4672 
Q 1544 4750 1819 4750 
Q 2544 4750 2975 4387 
Q 3406 4025 3406 3419 
Q 3406 3131 3298 2873 
Q 3191 2616 2906 2266 
Q 2828 2175 2409 1742 
Q 1991 1309 1228 531 
z
" transform="scale(0.015625)"/>
     </defs>
     <use xlink:href="#DejaVuSans-32"/>
     <use xlink:href="#DejaVuSans-25" x="63.623047"/>
    </g>
   </g>
   <g id="text_15">
    <!-- rlo -->
    <g transform="translate(87.051766 202.286609)scale(0.144 -0.144)">
     <defs>
      <path id="DejaVuSans-72" d="M 2631 2963 
Q 2534 3019 2420 3045 
Q 2306 3072 2169 3072 
Q 1681 3072 1420 2755 
Q 1159 2438 1159 1844 
L 1159 0 
L 581 0 
L 581 3500 
L 1159 3500 
L 1159 2956 
Q 1341 3275 1631 3429 
Q 1922 3584 2338 3584 
Q 2397 3584 2469 3576 
Q 2541 3569 2628 3553 
L 2631 2963 
z
" transform="scale(0.015625)"/>
      <path id="DejaVuSans-6c" d="M 603 4863 
L 1178 4863 
L 1178 0 
L 603 0 
L 603 4863 
z
" transform="scale(0.015625)"/>
      <path id="DejaVuSans-6f" d="M 1959 3097 
Q 1497 3097 1228 2736 
Q 959 2375 959 1747 
Q 959 1119 1226 758 
Q 1494 397 1959 397 
Q 2419 397 2687 759 
Q 2956 1122 2956 1747 
Q 2956 2369 2687 2733 
Q 2419 3097 1959 3097 
z
M 1959 3584 
Q 2709 3584 3137 3096 
Q 3566 2609 3566 1747 
Q 3566 888 3137 398 
Q 2709 -91 1959 -91 
Q 1206 -91 779 398 
Q 353 888 353 1747 
Q 353 2609 779 3096 
Q 1206 3584 1959 3584 
z
" transform="scale(0.015625)"/>
     </defs>
     <use xlink:href="#DejaVuSans-72"/>
     <use xlink:href="#DejaVuSans-6c" x="41.113281"/>
     <use xlink:href="#DejaVuSans-6f" x="68.896484"/>
    </g>
   </g>
  </g>
  <g id="axes_6">
   <g id="matplotlib.axis_11"/>
   <g id="matplotlib.axis_12"/>
   <g id="patch_12">
    <path d="M 220.633043 247.104 
C 220.633043 240.547076 218.556337 234.15563 214.702274 228.850968 
C 210.848211 223.546305 205.411322 219.596174 199.175317 217.569973 
L 189.57913 247.104 
L 220.633043 247.104 
z
" style="fill: #20b2aa"/>
   </g>
   <g id="patch_13">
    <path d="M 199.175317 217.569973 
C 196.076175 216.563001 192.83776 216.050087 189.57913 216.050087 
C 186.3205 216.050087 183.082084 216.563002 179.982943 217.569974 
C 176.883801 218.576946 173.962385 220.065482 171.326097 221.980857 
C 168.68981 223.896232 166.371361 226.214682 164.455986 228.850969 
C 162.540612 231.487256 161.052076 234.408673 160.045104 237.507814 
C 159.038132 240.606956 158.525217 243.845371 158.525217 247.104001 
C 158.525218 250.362632 159.038132 253.601047 160.045105 256.700188 
C 161.052077 259.79933 162.540613 262.720746 164.455988 265.357034 
C 166.371363 267.993321 168.689813 270.31177 171.3261 272.227145 
C 173.962387 274.142519 176.883804 275.631055 179.982945 276.638027 
C 183.082087 277.644999 186.320502 278.157913 189.579133 278.157913 
C 192.837763 278.157913 196.076178 277.644998 199.17532 276.638026 
C 202.274461 275.631053 205.195878 274.142517 207.832165 272.227142 
C 210.468452 270.311767 212.786901 267.993317 214.702275 265.35703 
C 216.61765 262.720743 218.106186 259.799326 219.113158 256.700184 
C 220.120129 253.601043 220.633044 250.362627 220.633043 247.103997 
L 189.57913 247.104 
L 199.175317 217.569973 
z
" style="fill: #ff6347"/>
   </g>
   <g id="text_16">
    <!-- 20% -->
    <g transform="translate(193.539735 238.911556)scale(0.1 -0.1)">
     <defs>
      <path id="DejaVuSans-30" d="M 2034 4250 
Q 1547 4250 1301 3770 
Q 1056 3291 1056 2328 
Q 1056 1369 1301 889 
Q 1547 409 2034 409 
Q 2525 409 2770 889 
Q 3016 1369 3016 2328 
Q 3016 3291 2770 3770 
Q 2525 4250 2034 4250 
z
M 2034 4750 
Q 2819 4750 3233 4129 
Q 3647 3509 3647 2328 
Q 3647 1150 3233 529 
Q 2819 -91 2034 -91 
Q 1250 -91 836 529 
Q 422 1150 422 2328 
Q 422 3509 836 4129 
Q 1250 4750 2034 4750 
z
" transform="scale(0.015625)"/>
     </defs>
     <use xlink:href="#DejaVuSans-32"/>
     <use xlink:href="#DejaVuSans-30" x="63.623047"/>
     <use xlink:href="#DejaVuSans-25" x="127.246094"/>
    </g>
   </g>
   <g id="text_17">
    <!-- 80% -->
    <g transform="translate(163.391964 260.815195)scale(0.1 -0.1)">
     <use xlink:href="#DejaVuSans-38"/>
     <use xlink:href="#DejaVuSans-30" x="63.623047"/>
     <use xlink:href="#DejaVuSans-25" x="127.246094"/>
    </g>
   </g>
   <g id="text_18">
    <!-- bksp -->
    <g transform="translate(172.51738 202.286609)scale(0.144 -0.144)">
     <defs>
      <path id="DejaVuSans-6b" d="M 581 4863 
L 1159 4863 
L 1159 1991 
L 2875 3500 
L 3609 3500 
L 1753 1863 
L 3688 0 
L 2938 0 
L 1159 1709 
L 1159 0 
L 581 0 
L 581 4863 
z
" transform="scale(0.015625)"/>
     </defs>
     <use xlink:href="#DejaVuSans-62"/>
     <use xlink:href="#DejaVuSans-6b" x="63.476562"/>
     <use xlink:href="#DejaVuSans-73" x="121.386719"/>
     <use xlink:href="#DejaVuSans-70" x="173.486328"/>
    </g>
   </g>
  </g>
  <g id="axes_7">
   <g id="matplotlib.axis_13"/>
   <g id="matplotlib.axis_14"/>
   <g id="patch_14">
    <path d="M 313.794783 247.104 
C 313.794783 241.246666 312.137583 235.507141 309.015438 230.551279 
C 305.893293 225.595416 301.431795 221.622572 296.148531 219.093642 
L 282.74087 247.104 
L 313.794783 247.104 
z
" style="fill: #20b2aa"/>
   </g>
   <g id="patch_15">
    <path d="M 296.148531 219.093642 
C 293.131597 217.649533 289.901071 216.702283 286.582009 216.288563 
C 283.262947 215.874842 279.898738 216.000059 276.619614 216.659366 
C 273.34049 217.318673 270.189318 218.503451 267.288084 220.167836 
C 264.38685 221.832221 261.77348 223.954455 259.54914 226.452385 
C 257.324801 228.950314 255.51857 231.791285 254.200369 234.865318 
C 252.882168 237.939352 252.069229 241.206264 251.793021 244.539588 
C 251.516814 247.872912 251.78095 251.229072 252.575203 254.478149 
C 253.369456 257.727226 254.683444 260.826745 256.466301 263.65672 
C 258.249157 266.486695 260.477576 269.010132 263.065293 271.129345 
C 265.653009 273.248557 268.566195 274.935842 271.692077 276.125883 
C 274.817959 277.315924 278.115675 277.993164 281.457566 278.131385 
C 284.799456 278.269607 288.141835 277.867004 291.355314 276.939162 
C 294.568792 276.011319 297.611363 274.570366 300.365245 272.672084 
C 303.119126 270.773802 305.548318 268.443006 307.558783 265.769924 
C 309.569248 263.096842 311.134704 260.116417 312.194552 256.944027 
C 313.254399 253.771636 313.794782 250.448751 313.794783 247.104003 
L 282.74087 247.104 
L 296.148531 219.093642 
z
" style="fill: #ff6347"/>
   </g>
   <g id="text_19">
    <!-- 18% -->
    <g transform="translate(287.392329 239.931742)scale(0.1 -0.1)">
     <use xlink:href="#DejaVuSans-31"/>
     <use xlink:href="#DejaVuSans-38" x="63.623047"/>
     <use xlink:href="#DejaVuSans-25" x="127.246094"/>
    </g>
   </g>
   <g id="text_20">
    <!-- 82% -->
    <g transform="translate(255.862847 259.795007)scale(0.1 -0.1)">
     <use xlink:href="#DejaVuSans-38"/>
     <use xlink:href="#DejaVuSans-32" x="63.623047"/>
     <use xlink:href="#DejaVuSans-25" x="127.246094"/>
    </g>
   </g>
   <g id="text_21">
    <!-- del -->
    <g transform="translate(271.739495 202.286609)scale(0.144 -0.144)">
     <defs>
      <path id="DejaVuSans-64" d="M 2906 2969 
L 2906 4863 
L 3481 4863 
L 3481 0 
L 2906 0 
L 2906 525 
Q 2725 213 2448 61 
Q 2172 -91 1784 -91 
Q 1150 -91 751 415 
Q 353 922 353 1747 
Q 353 2572 751 3078 
Q 1150 3584 1784 3584 
Q 2172 3584 2448 3432 
Q 2725 3281 2906 2969 
z
M 947 1747 
Q 947 1113 1208 752 
Q 1469 391 1925 391 
Q 2381 391 2643 752 
Q 2906 1113 2906 1747 
Q 2906 2381 2643 2742 
Q 2381 3103 1925 3103 
Q 1469 3103 1208 2742 
Q 947 2381 947 1747 
z
" transform="scale(0.015625)"/>
     </defs>
     <use xlink:href="#DejaVuSans-64"/>
     <use xlink:href="#DejaVuSans-65" x="63.476562"/>
     <use xlink:href="#DejaVuSans-6c" x="125"/>
    </g>
   </g>
  </g>
  <g id="axes_8">
   <g id="matplotlib.axis_15"/>
   <g id="matplotlib.axis_16"/>
   <g id="patch_16">
    <path d="M 406.956522 247.104 
C 406.956522 243.154247 406.202967 239.240518 404.736356 235.573148 
C 403.269745 231.905778 401.116829 228.551665 398.393315 225.691068 
C 395.6698 222.830471 392.425365 220.51557 388.834376 218.870777 
C 385.243387 217.225983 381.371347 216.281298 377.426352 216.087493 
C 373.481357 215.893688 369.535367 216.454297 365.800451 217.739192 
C 362.065536 219.024088 358.609824 221.009831 355.619036 223.589702 
C 352.628248 226.169574 350.156939 229.296514 348.337925 232.802471 
C 346.518911 236.308428 345.385372 240.12945 344.998229 244.060184 
C 344.611085 247.990918 344.977399 251.959663 346.077483 255.753126 
C 347.177567 259.54659 348.991354 263.095575 351.421367 266.209348 
C 353.85138 269.323122 356.853292 271.944886 360.265772 273.933738 
C 363.678251 275.92259 367.43905 277.242252 371.346053 277.821801 
C 375.253056 278.40135 379.234995 278.230215 383.077867 277.317593 
C 386.92074 276.40497 390.554448 274.767508 393.783706 272.493208 
C 397.012964 270.218908 399.778867 267.349255 401.932766 264.038475 
C 404.086665 260.727694 405.589271 257.036178 406.35983 253.162318 
L 375.902609 247.104 
L 406.956522 247.104 
z
" style="fill: #20b2aa"/>
   </g>
   <g id="patch_17">
    <path d="M 406.35983 253.162318 
C 406.558127 252.165408 406.70736 251.159362 406.806989 250.147816 
C 406.906617 249.136269 406.956522 248.120441 406.956522 247.104 
L 375.902609 247.104 
L 406.35983 253.162318 
z
" style="fill: #ff6347"/>
   </g>
   <g id="text_22">
    <!-- 97% -->
    <g transform="translate(346.246699 248.037086)scale(0.1 -0.1)">
     <defs>
      <path id="DejaVuSans-37" d="M 525 4666 
L 3525 4666 
L 3525 4397 
L 1831 0 
L 1172 0 
L 2766 4134 
L 525 4134 
L 525 4666 
z
" transform="scale(0.015625)"/>
     </defs>
     <use xlink:href="#DejaVuSans-39"/>
     <use xlink:href="#DejaVuSans-37" x="63.623047"/>
     <use xlink:href="#DejaVuSans-25" x="127.246094"/>
    </g>
   </g>
   <g id="text_23">
    <!-- 3% -->
    <g transform="translate(386.513205 251.689664)scale(0.1 -0.1)">
     <use xlink:href="#DejaVuSans-33"/>
     <use xlink:href="#DejaVuSans-25" x="63.623047"/>
    </g>
   </g>
   <g id="text_24">
    <!-- homo -->
    <g transform="translate(355.515359 202.286609)scale(0.144 -0.144)">
     <defs>
      <path id="DejaVuSans-68" d="M 3513 2113 
L 3513 0 
L 2938 0 
L 2938 2094 
Q 2938 2591 2744 2837 
Q 2550 3084 2163 3084 
Q 1697 3084 1428 2787 
Q 1159 2491 1159 1978 
L 1159 0 
L 581 0 
L 581 4863 
L 1159 4863 
L 1159 2956 
Q 1366 3272 1645 3428 
Q 1925 3584 2291 3584 
Q 2894 3584 3203 3211 
Q 3513 2838 3513 2113 
z
" transform="scale(0.015625)"/>
      <path id="DejaVuSans-6d" d="M 3328 2828 
Q 3544 3216 3844 3400 
Q 4144 3584 4550 3584 
Q 5097 3584 5394 3201 
Q 5691 2819 5691 2113 
L 5691 0 
L 5113 0 
L 5113 2094 
Q 5113 2597 4934 2840 
Q 4756 3084 4391 3084 
Q 3944 3084 3684 2787 
Q 3425 2491 3425 1978 
L 3425 0 
L 2847 0 
L 2847 2094 
Q 2847 2600 2669 2842 
Q 2491 3084 2119 3084 
Q 1678 3084 1418 2786 
Q 1159 2488 1159 1978 
L 1159 0 
L 581 0 
L 581 3500 
L 1159 3500 
L 1159 2956 
Q 1356 3278 1631 3431 
Q 1906 3584 2284 3584 
Q 2666 3584 2933 3390 
Q 3200 3197 3328 2828 
z
" transform="scale(0.015625)"/>
     </defs>
     <use xlink:href="#DejaVuSans-68"/>
     <use xlink:href="#DejaVuSans-6f" x="63.378906"/>
     <use xlink:href="#DejaVuSans-6d" x="124.560547"/>
     <use xlink:href="#DejaVuSans-6f" x="221.972656"/>
    </g>
   </g>
   <g id="legend_1">
    <g id="patch_18">
     <path d="M 136.066679 404.360696 
L 333.147929 404.360696 
Q 335.147929 404.360696 335.147929 402.360696 
L 335.147929 374.004446 
Q 335.147929 372.004446 333.147929 372.004446 
L 136.066679 372.004446 
Q 134.066679 372.004446 134.066679 374.004446 
L 134.066679 402.360696 
Q 134.066679 404.360696 136.066679 404.360696 
z
" style="fill: #e5e5e5; opacity: 0.8; stroke: #cccccc; stroke-width: 0.5; stroke-linejoin: miter"/>
    </g>
    <g id="patch_19">
     <path d="M 138.066679 383.602883 
L 158.066679 383.602883 
L 158.066679 376.602883 
L 138.066679 376.602883 
z
" style="fill: #20b2aa"/>
    </g>
    <g id="text_25">
     <!-- Perturbed Target Present in SERP -->
     <g transform="translate(166.066679 383.602883)scale(0.1 -0.1)">
      <defs>
       <path id="DejaVuSans-50" d="M 1259 4147 
L 1259 2394 
L 2053 2394 
Q 2494 2394 2734 2622 
Q 2975 2850 2975 3272 
Q 2975 3691 2734 3919 
Q 2494 4147 2053 4147 
L 1259 4147 
z
M 628 4666 
L 2053 4666 
Q 2838 4666 3239 4311 
Q 3641 3956 3641 3272 
Q 3641 2581 3239 2228 
Q 2838 1875 2053 1875 
L 1259 1875 
L 1259 0 
L 628 0 
L 628 4666 
z
" transform="scale(0.015625)"/>
       <path id="DejaVuSans-74" d="M 1172 4494 
L 1172 3500 
L 2356 3500 
L 2356 3053 
L 1172 3053 
L 1172 1153 
Q 1172 725 1289 603 
Q 1406 481 1766 481 
L 2356 481 
L 2356 0 
L 1766 0 
Q 1100 0 847 248 
Q 594 497 594 1153 
L 594 3053 
L 172 3053 
L 172 3500 
L 594 3500 
L 594 4494 
L 1172 4494 
z
" transform="scale(0.015625)"/>
       <path id="DejaVuSans-75" d="M 544 1381 
L 544 3500 
L 1119 3500 
L 1119 1403 
Q 1119 906 1312 657 
Q 1506 409 1894 409 
Q 2359 409 2629 706 
Q 2900 1003 2900 1516 
L 2900 3500 
L 3475 3500 
L 3475 0 
L 2900 0 
L 2900 538 
Q 2691 219 2414 64 
Q 2138 -91 1772 -91 
Q 1169 -91 856 284 
Q 544 659 544 1381 
z
M 1991 3584 
L 1991 3584 
z
" transform="scale(0.015625)"/>
       <path id="DejaVuSans-20" transform="scale(0.015625)"/>
       <path id="DejaVuSans-54" d="M -19 4666 
L 3928 4666 
L 3928 4134 
L 2272 4134 
L 2272 0 
L 1638 0 
L 1638 4134 
L -19 4134 
L -19 4666 
z
" transform="scale(0.015625)"/>
       <path id="DejaVuSans-67" d="M 2906 1791 
Q 2906 2416 2648 2759 
Q 2391 3103 1925 3103 
Q 1463 3103 1205 2759 
Q 947 2416 947 1791 
Q 947 1169 1205 825 
Q 1463 481 1925 481 
Q 2391 481 2648 825 
Q 2906 1169 2906 1791 
z
M 3481 434 
Q 3481 -459 3084 -895 
Q 2688 -1331 1869 -1331 
Q 1566 -1331 1297 -1286 
Q 1028 -1241 775 -1147 
L 775 -588 
Q 1028 -725 1275 -790 
Q 1522 -856 1778 -856 
Q 2344 -856 2625 -561 
Q 2906 -266 2906 331 
L 2906 616 
Q 2728 306 2450 153 
Q 2172 0 1784 0 
Q 1141 0 747 490 
Q 353 981 353 1791 
Q 353 2603 747 3093 
Q 1141 3584 1784 3584 
Q 2172 3584 2450 3431 
Q 2728 3278 2906 2969 
L 2906 3500 
L 3481 3500 
L 3481 434 
z
" transform="scale(0.015625)"/>
       <path id="DejaVuSans-69" d="M 603 3500 
L 1178 3500 
L 1178 0 
L 603 0 
L 603 3500 
z
M 603 4863 
L 1178 4863 
L 1178 4134 
L 603 4134 
L 603 4863 
z
" transform="scale(0.015625)"/>
       <path id="DejaVuSans-53" d="M 3425 4513 
L 3425 3897 
Q 3066 4069 2747 4153 
Q 2428 4238 2131 4238 
Q 1616 4238 1336 4038 
Q 1056 3838 1056 3469 
Q 1056 3159 1242 3001 
Q 1428 2844 1947 2747 
L 2328 2669 
Q 3034 2534 3370 2195 
Q 3706 1856 3706 1288 
Q 3706 609 3251 259 
Q 2797 -91 1919 -91 
Q 1588 -91 1214 -16 
Q 841 59 441 206 
L 441 856 
Q 825 641 1194 531 
Q 1563 422 1919 422 
Q 2459 422 2753 634 
Q 3047 847 3047 1241 
Q 3047 1584 2836 1778 
Q 2625 1972 2144 2069 
L 1759 2144 
Q 1053 2284 737 2584 
Q 422 2884 422 3419 
Q 422 4038 858 4394 
Q 1294 4750 2059 4750 
Q 2388 4750 2728 4690 
Q 3069 4631 3425 4513 
z
" transform="scale(0.015625)"/>
       <path id="DejaVuSans-45" d="M 628 4666 
L 3578 4666 
L 3578 4134 
L 1259 4134 
L 1259 2753 
L 3481 2753 
L 3481 2222 
L 1259 2222 
L 1259 531 
L 3634 531 
L 3634 0 
L 628 0 
L 628 4666 
z
" transform="scale(0.015625)"/>
       <path id="DejaVuSans-52" d="M 2841 2188 
Q 3044 2119 3236 1894 
Q 3428 1669 3622 1275 
L 4263 0 
L 3584 0 
L 2988 1197 
Q 2756 1666 2539 1819 
Q 2322 1972 1947 1972 
L 1259 1972 
L 1259 0 
L 628 0 
L 628 4666 
L 2053 4666 
Q 2853 4666 3247 4331 
Q 3641 3997 3641 3322 
Q 3641 2881 3436 2590 
Q 3231 2300 2841 2188 
z
M 1259 4147 
L 1259 2491 
L 2053 2491 
Q 2509 2491 2742 2702 
Q 2975 2913 2975 3322 
Q 2975 3731 2742 3939 
Q 2509 4147 2053 4147 
L 1259 4147 
z
" transform="scale(0.015625)"/>
      </defs>
      <use xlink:href="#DejaVuSans-50"/>
      <use xlink:href="#DejaVuSans-65" x="56.677734"/>
      <use xlink:href="#DejaVuSans-72" x="118.201172"/>
      <use xlink:href="#DejaVuSans-74" x="159.314453"/>
      <use xlink:href="#DejaVuSans-75" x="198.523438"/>
      <use xlink:href="#DejaVuSans-72" x="261.902344"/>
      <use xlink:href="#DejaVuSans-62" x="303.015625"/>
      <use xlink:href="#DejaVuSans-65" x="366.492188"/>
      <use xlink:href="#DejaVuSans-64" x="428.015625"/>
      <use xlink:href="#DejaVuSans-20" x="491.492188"/>
      <use xlink:href="#DejaVuSans-54" x="523.279297"/>
      <use xlink:href="#DejaVuSans-61" x="567.863281"/>
      <use xlink:href="#DejaVuSans-72" x="629.142578"/>
      <use xlink:href="#DejaVuSans-67" x="668.505859"/>
      <use xlink:href="#DejaVuSans-65" x="731.982422"/>
      <use xlink:href="#DejaVuSans-74" x="793.505859"/>
      <use xlink:href="#DejaVuSans-20" x="832.714844"/>
      <use xlink:href="#DejaVuSans-50" x="864.501953"/>
      <use xlink:href="#DejaVuSans-72" x="923.054688"/>
      <use xlink:href="#DejaVuSans-65" x="961.917969"/>
      <use xlink:href="#DejaVuSans-73" x="1023.441406"/>
      <use xlink:href="#DejaVuSans-65" x="1075.541016"/>
      <use xlink:href="#DejaVuSans-6e" x="1137.064453"/>
      <use xlink:href="#DejaVuSans-74" x="1200.443359"/>
      <use xlink:href="#DejaVuSans-20" x="1239.652344"/>
      <use xlink:href="#DejaVuSans-69" x="1271.439453"/>
      <use xlink:href="#DejaVuSans-6e" x="1299.222656"/>
      <use xlink:href="#DejaVuSans-20" x="1362.601562"/>
      <use xlink:href="#DejaVuSans-53" x="1394.388672"/>
      <use xlink:href="#DejaVuSans-45" x="1457.865234"/>
      <use xlink:href="#DejaVuSans-52" x="1521.048828"/>
      <use xlink:href="#DejaVuSans-50" x="1590.53125"/>
     </g>
    </g>
    <g id="patch_20">
     <path d="M 138.066679 398.281008 
L 158.066679 398.281008 
L 158.066679 391.281008 
L 138.066679 391.281008 
z
" style="fill: #ff6347"/>
    </g>
    <g id="text_26">
     <!-- Perturbed Target Absent in SERP -->
     <g transform="translate(166.066679 398.281008)scale(0.1 -0.1)">
      <defs>
       <path id="DejaVuSans-41" d="M 2188 4044 
L 1331 1722 
L 3047 1722 
L 2188 4044 
z
M 1831 4666 
L 2547 4666 
L 4325 0 
L 3669 0 
L 3244 1197 
L 1141 1197 
L 716 0 
L 50 0 
L 1831 4666 
z
" transform="scale(0.015625)"/>
      </defs>
      <use xlink:href="#DejaVuSans-50"/>
      <use xlink:href="#DejaVuSans-65" x="56.677734"/>
      <use xlink:href="#DejaVuSans-72" x="118.201172"/>
      <use xlink:href="#DejaVuSans-74" x="159.314453"/>
      <use xlink:href="#DejaVuSans-75" x="198.523438"/>
      <use xlink:href="#DejaVuSans-72" x="261.902344"/>
      <use xlink:href="#DejaVuSans-62" x="303.015625"/>
      <use xlink:href="#DejaVuSans-65" x="366.492188"/>
      <use xlink:href="#DejaVuSans-64" x="428.015625"/>
      <use xlink:href="#DejaVuSans-20" x="491.492188"/>
      <use xlink:href="#DejaVuSans-54" x="523.279297"/>
      <use xlink:href="#DejaVuSans-61" x="567.863281"/>
      <use xlink:href="#DejaVuSans-72" x="629.142578"/>
      <use xlink:href="#DejaVuSans-67" x="668.505859"/>
      <use xlink:href="#DejaVuSans-65" x="731.982422"/>
      <use xlink:href="#DejaVuSans-74" x="793.505859"/>
      <use xlink:href="#DejaVuSans-20" x="832.714844"/>
      <use xlink:href="#DejaVuSans-41" x="864.501953"/>
      <use xlink:href="#DejaVuSans-62" x="932.910156"/>
      <use xlink:href="#DejaVuSans-73" x="996.386719"/>
      <use xlink:href="#DejaVuSans-65" x="1048.486328"/>
      <use xlink:href="#DejaVuSans-6e" x="1110.009766"/>
      <use xlink:href="#DejaVuSans-74" x="1173.388672"/>
      <use xlink:href="#DejaVuSans-20" x="1212.597656"/>
      <use xlink:href="#DejaVuSans-69" x="1244.384766"/>
      <use xlink:href="#DejaVuSans-6e" x="1272.167969"/>
      <use xlink:href="#DejaVuSans-20" x="1335.546875"/>
      <use xlink:href="#DejaVuSans-53" x="1367.333984"/>
      <use xlink:href="#DejaVuSans-45" x="1430.810547"/>
      <use xlink:href="#DejaVuSans-52" x="1493.994141"/>
      <use xlink:href="#DejaVuSans-50" x="1563.476562"/>
     </g>
    </g>
   </g>
  </g>
  <g id="text_27">
   <!-- Google: -->
   <g transform="translate(199.4925 -13.7625)scale(0.16 -0.16)">
    <defs>
     <path id="DejaVuSans-47" d="M 3809 666 
L 3809 1919 
L 2778 1919 
L 2778 2438 
L 4434 2438 
L 4434 434 
Q 4069 175 3628 42 
Q 3188 -91 2688 -91 
Q 1594 -91 976 548 
Q 359 1188 359 2328 
Q 359 3472 976 4111 
Q 1594 4750 2688 4750 
Q 3144 4750 3555 4637 
Q 3966 4525 4313 4306 
L 4313 3634 
Q 3963 3931 3569 4081 
Q 3175 4231 2741 4231 
Q 1884 4231 1454 3753 
Q 1025 3275 1025 2328 
Q 1025 1384 1454 906 
Q 1884 428 2741 428 
Q 3075 428 3337 486 
Q 3600 544 3809 666 
z
" transform="scale(0.015625)"/>
     <path id="DejaVuSans-3a" d="M 750 794 
L 1409 794 
L 1409 0 
L 750 0 
L 750 794 
z
M 750 3309 
L 1409 3309 
L 1409 2516 
L 750 2516 
L 750 3309 
z
" transform="scale(0.015625)"/>
    </defs>
    <use xlink:href="#DejaVuSans-47"/>
    <use xlink:href="#DejaVuSans-6f" x="77.490234"/>
    <use xlink:href="#DejaVuSans-6f" x="138.671875"/>
    <use xlink:href="#DejaVuSans-67" x="199.853516"/>
    <use xlink:href="#DejaVuSans-6c" x="263.330078"/>
    <use xlink:href="#DejaVuSans-65" x="291.113281"/>
    <use xlink:href="#DejaVuSans-3a" x="352.636719"/>
   </g>
   <!-- Perturbed Result from Perturbed Query -->
   <g transform="translate(73.94625 4.154)scale(0.16 -0.16)">
    <defs>
     <path id="DejaVuSans-66" d="M 2375 4863 
L 2375 4384 
L 1825 4384 
Q 1516 4384 1395 4259 
Q 1275 4134 1275 3809 
L 1275 3500 
L 2222 3500 
L 2222 3053 
L 1275 3053 
L 1275 0 
L 697 0 
L 697 3053 
L 147 3053 
L 147 3500 
L 697 3500 
L 697 3744 
Q 697 4328 969 4595 
Q 1241 4863 1831 4863 
L 2375 4863 
z
" transform="scale(0.015625)"/>
     <path id="DejaVuSans-51" d="M 2522 4238 
Q 1834 4238 1429 3725 
Q 1025 3213 1025 2328 
Q 1025 1447 1429 934 
Q 1834 422 2522 422 
Q 3209 422 3611 934 
Q 4013 1447 4013 2328 
Q 4013 3213 3611 3725 
Q 3209 4238 2522 4238 
z
M 3406 84 
L 4238 -825 
L 3475 -825 
L 2784 -78 
Q 2681 -84 2626 -87 
Q 2572 -91 2522 -91 
Q 1538 -91 948 567 
Q 359 1225 359 2328 
Q 359 3434 948 4092 
Q 1538 4750 2522 4750 
Q 3503 4750 4090 4092 
Q 4678 3434 4678 2328 
Q 4678 1516 4351 937 
Q 4025 359 3406 84 
z
" transform="scale(0.015625)"/>
     <path id="DejaVuSans-79" d="M 2059 -325 
Q 1816 -950 1584 -1140 
Q 1353 -1331 966 -1331 
L 506 -1331 
L 506 -850 
L 844 -850 
Q 1081 -850 1212 -737 
Q 1344 -625 1503 -206 
L 1606 56 
L 191 3500 
L 800 3500 
L 1894 763 
L 2988 3500 
L 3597 3500 
L 2059 -325 
z
" transform="scale(0.015625)"/>
    </defs>
    <use xlink:href="#DejaVuSans-50"/>
    <use xlink:href="#DejaVuSans-65" x="56.677734"/>
    <use xlink:href="#DejaVuSans-72" x="118.201172"/>
    <use xlink:href="#DejaVuSans-74" x="159.314453"/>
    <use xlink:href="#DejaVuSans-75" x="198.523438"/>
    <use xlink:href="#DejaVuSans-72" x="261.902344"/>
    <use xlink:href="#DejaVuSans-62" x="303.015625"/>
    <use xlink:href="#DejaVuSans-65" x="366.492188"/>
    <use xlink:href="#DejaVuSans-64" x="428.015625"/>
    <use xlink:href="#DejaVuSans-20" x="491.492188"/>
    <use xlink:href="#DejaVuSans-52" x="523.279297"/>
    <use xlink:href="#DejaVuSans-65" x="588.261719"/>
    <use xlink:href="#DejaVuSans-73" x="649.785156"/>
    <use xlink:href="#DejaVuSans-75" x="701.884766"/>
    <use xlink:href="#DejaVuSans-6c" x="765.263672"/>
    <use xlink:href="#DejaVuSans-74" x="793.046875"/>
    <use xlink:href="#DejaVuSans-20" x="832.255859"/>
    <use xlink:href="#DejaVuSans-66" x="864.042969"/>
    <use xlink:href="#DejaVuSans-72" x="899.248047"/>
    <use xlink:href="#DejaVuSans-6f" x="938.111328"/>
    <use xlink:href="#DejaVuSans-6d" x="999.292969"/>
    <use xlink:href="#DejaVuSans-20" x="1096.705078"/>
    <use xlink:href="#DejaVuSans-50" x="1128.492188"/>
    <use xlink:href="#DejaVuSans-65" x="1185.169922"/>
    <use xlink:href="#DejaVuSans-72" x="1246.693359"/>
    <use xlink:href="#DejaVuSans-74" x="1287.806641"/>
    <use xlink:href="#DejaVuSans-75" x="1327.015625"/>
    <use xlink:href="#DejaVuSans-72" x="1390.394531"/>
    <use xlink:href="#DejaVuSans-62" x="1431.507812"/>
    <use xlink:href="#DejaVuSans-65" x="1494.984375"/>
    <use xlink:href="#DejaVuSans-64" x="1556.507812"/>
    <use xlink:href="#DejaVuSans-20" x="1619.984375"/>
    <use xlink:href="#DejaVuSans-51" x="1651.771484"/>
    <use xlink:href="#DejaVuSans-75" x="1730.482422"/>
    <use xlink:href="#DejaVuSans-65" x="1793.861328"/>
    <use xlink:href="#DejaVuSans-72" x="1855.384766"/>
    <use xlink:href="#DejaVuSans-79" x="1896.498047"/>
   </g>
  </g>
 </g>
</svg>
