<?xml version="1.0" encoding="utf-8" standalone="no"?>
<!DOCTYPE svg PUBLIC "-//W3C//DTD SVG 1.1//EN"
  "http://www.w3.org/Graphics/SVG/1.1/DTD/svg11.dtd">
<svg xmlns:xlink="http://www.w3.org/1999/xlink" width="371.52pt" height="409.64487pt" viewBox="0 0 371.52 409.64487" xmlns="http://www.w3.org/2000/svg" version="1.1">
 <metadata>
  <rdf:RDF xmlns:dc="http://purl.org/dc/elements/1.1/" xmlns:cc="http://creativecommons.org/ns#" xmlns:rdf="http://www.w3.org/1999/02/22-rdf-syntax-ns#">
   <cc:Work>
    <dc:type rdf:resource="http://purl.org/dc/dcmitype/StillImage"/>
    <dc:date>2023-02-27T02:01:56.795309</dc:date>
    <dc:format>image/svg+xml</dc:format>
    <dc:creator>
     <cc:Agent>
      <dc:title>Matplotlib v3.5.3, https://matplotlib.org/</dc:title>
     </cc:Agent>
    </dc:creator>
   </cc:Work>
  </rdf:RDF>
 </metadata>
 <defs>
  <style type="text/css">*{stroke-linejoin: round; stroke-linecap: butt}</style>
 </defs>
 <g id="figure_1">
  <g id="patch_1">
   <path d="M 0 409.64487 
L 371.52 409.64487 
L 371.52 0 
L 0 0 
z
" style="fill: #ffffff"/>
  </g>
  <g id="axes_1">
   <g id="matplotlib.axis_1"/>
   <g id="matplotlib.axis_2"/>
   <g id="patch_2">
    <path d="M 77.071304 126.432 
C 77.071304 120.050284 75.104098 113.821079 71.438895 108.596848 
C 67.773693 103.372616 62.585678 99.403058 56.584827 97.231404 
C 50.583975 95.059749 44.057107 94.789796 37.897417 96.458486 
C 31.737727 98.127177 26.239629 101.654754 22.155531 106.558471 
L 46.017391 126.432 
L 77.071304 126.432 
z
" style="fill: #20b2aa"/>
   </g>
   <g id="patch_3">
    <path d="M 22.155531 106.558471 
C 18.9639 110.390617 16.741889 114.935813 15.678127 119.808211 
C 14.614366 124.680608 14.739833 129.738315 16.043877 134.551974 
C 17.347922 139.365633 19.792568 143.795064 23.170284 147.464242 
C 26.548001 151.133421 30.760425 153.935497 35.449956 155.632596 
C 40.139487 157.329696 45.169558 157.872397 50.113159 157.214628 
C 55.056759 156.55686 59.769924 154.717777 63.852543 151.853504 
C 67.935163 148.989231 71.268346 145.183178 73.569132 140.758449 
C 75.869917 136.333719 77.071304 131.419168 77.071304 126.432 
L 46.017391 126.432 
L 22.155531 106.558471 
z
" style="fill: #ff6347"/>
   </g>
   <g id="text_1">
    <!-- 39% -->
    <g transform="translate(41.244571 111.671017)scale(0.1 -0.1)">
     <defs>
      <path id="DejaVuSans-33" d="M 2597 2516 
Q 3050 2419 3304 2112 
Q 3559 1806 3559 1356 
Q 3559 666 3084 287 
Q 2609 -91 1734 -91 
Q 1441 -91 1130 -33 
Q 819 25 488 141 
L 488 750 
Q 750 597 1062 519 
Q 1375 441 1716 441 
Q 2309 441 2620 675 
Q 2931 909 2931 1356 
Q 2931 1769 2642 2001 
Q 2353 2234 1838 2234 
L 1294 2234 
L 1294 2753 
L 1863 2753 
Q 2328 2753 2575 2939 
Q 2822 3125 2822 3475 
Q 2822 3834 2567 4026 
Q 2313 4219 1838 4219 
Q 1578 4219 1281 4162 
Q 984 4106 628 3988 
L 628 4550 
Q 988 4650 1302 4700 
Q 1616 4750 1894 4750 
Q 2613 4750 3031 4423 
Q 3450 4097 3450 3541 
Q 3450 3153 3228 2886 
Q 3006 2619 2597 2516 
z
" transform="scale(0.015625)"/>
      <path id="DejaVuSans-39" d="M 703 97 
L 703 672 
Q 941 559 1184 500 
Q 1428 441 1663 441 
Q 2288 441 2617 861 
Q 2947 1281 2994 2138 
Q 2813 1869 2534 1725 
Q 2256 1581 1919 1581 
Q 1219 1581 811 2004 
Q 403 2428 403 3163 
Q 403 3881 828 4315 
Q 1253 4750 1959 4750 
Q 2769 4750 3195 4129 
Q 3622 3509 3622 2328 
Q 3622 1225 3098 567 
Q 2575 -91 1691 -91 
Q 1453 -91 1209 -44 
Q 966 3 703 97 
z
M 1959 2075 
Q 2384 2075 2632 2365 
Q 2881 2656 2881 3163 
Q 2881 3666 2632 3958 
Q 2384 4250 1959 4250 
Q 1534 4250 1286 3958 
Q 1038 3666 1038 3163 
Q 1038 2656 1286 2365 
Q 1534 2075 1959 2075 
z
" transform="scale(0.015625)"/>
      <path id="DejaVuSans-25" d="M 4653 2053 
Q 4381 2053 4226 1822 
Q 4072 1591 4072 1178 
Q 4072 772 4226 539 
Q 4381 306 4653 306 
Q 4919 306 5073 539 
Q 5228 772 5228 1178 
Q 5228 1588 5073 1820 
Q 4919 2053 4653 2053 
z
M 4653 2450 
Q 5147 2450 5437 2106 
Q 5728 1763 5728 1178 
Q 5728 594 5436 251 
Q 5144 -91 4653 -91 
Q 4153 -91 3862 251 
Q 3572 594 3572 1178 
Q 3572 1766 3864 2108 
Q 4156 2450 4653 2450 
z
M 1428 4353 
Q 1159 4353 1004 4120 
Q 850 3888 850 3481 
Q 850 3069 1003 2837 
Q 1156 2606 1428 2606 
Q 1700 2606 1854 2837 
Q 2009 3069 2009 3481 
Q 2009 3884 1853 4118 
Q 1697 4353 1428 4353 
z
M 4250 4750 
L 4750 4750 
L 1831 -91 
L 1331 -91 
L 4250 4750 
z
M 1428 4750 
Q 1922 4750 2215 4408 
Q 2509 4066 2509 3481 
Q 2509 2891 2217 2550 
Q 1925 2209 1428 2209 
Q 931 2209 642 2551 
Q 353 2894 353 3481 
Q 353 4063 643 4406 
Q 934 4750 1428 4750 
z
" transform="scale(0.015625)"/>
     </defs>
     <use xlink:href="#DejaVuSans-33"/>
     <use xlink:href="#DejaVuSans-39" x="63.623047"/>
     <use xlink:href="#DejaVuSans-25" x="127.246094"/>
    </g>
   </g>
   <g id="text_2">
    <!-- 61% -->
    <g transform="translate(28.563649 146.711733)scale(0.1 -0.1)">
     <defs>
      <path id="DejaVuSans-36" d="M 2113 2584 
Q 1688 2584 1439 2293 
Q 1191 2003 1191 1497 
Q 1191 994 1439 701 
Q 1688 409 2113 409 
Q 2538 409 2786 701 
Q 3034 994 3034 1497 
Q 3034 2003 2786 2293 
Q 2538 2584 2113 2584 
z
M 3366 4563 
L 3366 3988 
Q 3128 4100 2886 4159 
Q 2644 4219 2406 4219 
Q 1781 4219 1451 3797 
Q 1122 3375 1075 2522 
Q 1259 2794 1537 2939 
Q 1816 3084 2150 3084 
Q 2853 3084 3261 2657 
Q 3669 2231 3669 1497 
Q 3669 778 3244 343 
Q 2819 -91 2113 -91 
Q 1303 -91 875 529 
Q 447 1150 447 2328 
Q 447 3434 972 4092 
Q 1497 4750 2381 4750 
Q 2619 4750 2861 4703 
Q 3103 4656 3366 4563 
z
" transform="scale(0.015625)"/>
      <path id="DejaVuSans-31" d="M 794 531 
L 1825 531 
L 1825 4091 
L 703 3866 
L 703 4441 
L 1819 4666 
L 2450 4666 
L 2450 531 
L 3481 531 
L 3481 0 
L 794 0 
L 794 531 
z
" transform="scale(0.015625)"/>
     </defs>
     <use xlink:href="#DejaVuSans-36"/>
     <use xlink:href="#DejaVuSans-31" x="63.623047"/>
     <use xlink:href="#DejaVuSans-25" x="127.246094"/>
    </g>
   </g>
   <g id="text_3">
    <!-- base -->
    <g transform="translate(28.853266 81.614609)scale(0.144 -0.144)">
     <defs>
      <path id="DejaVuSans-62" d="M 3116 1747 
Q 3116 2381 2855 2742 
Q 2594 3103 2138 3103 
Q 1681 3103 1420 2742 
Q 1159 2381 1159 1747 
Q 1159 1113 1420 752 
Q 1681 391 2138 391 
Q 2594 391 2855 752 
Q 3116 1113 3116 1747 
z
M 1159 2969 
Q 1341 3281 1617 3432 
Q 1894 3584 2278 3584 
Q 2916 3584 3314 3078 
Q 3713 2572 3713 1747 
Q 3713 922 3314 415 
Q 2916 -91 2278 -91 
Q 1894 -91 1617 61 
Q 1341 213 1159 525 
L 1159 0 
L 581 0 
L 581 4863 
L 1159 4863 
L 1159 2969 
z
" transform="scale(0.015625)"/>
      <path id="DejaVuSans-61" d="M 2194 1759 
Q 1497 1759 1228 1600 
Q 959 1441 959 1056 
Q 959 750 1161 570 
Q 1363 391 1709 391 
Q 2188 391 2477 730 
Q 2766 1069 2766 1631 
L 2766 1759 
L 2194 1759 
z
M 3341 1997 
L 3341 0 
L 2766 0 
L 2766 531 
Q 2569 213 2275 61 
Q 1981 -91 1556 -91 
Q 1019 -91 701 211 
Q 384 513 384 1019 
Q 384 1609 779 1909 
Q 1175 2209 1959 2209 
L 2766 2209 
L 2766 2266 
Q 2766 2663 2505 2880 
Q 2244 3097 1772 3097 
Q 1472 3097 1187 3025 
Q 903 2953 641 2809 
L 641 3341 
Q 956 3463 1253 3523 
Q 1550 3584 1831 3584 
Q 2591 3584 2966 3190 
Q 3341 2797 3341 1997 
z
" transform="scale(0.015625)"/>
      <path id="DejaVuSans-73" d="M 2834 3397 
L 2834 2853 
Q 2591 2978 2328 3040 
Q 2066 3103 1784 3103 
Q 1356 3103 1142 2972 
Q 928 2841 928 2578 
Q 928 2378 1081 2264 
Q 1234 2150 1697 2047 
L 1894 2003 
Q 2506 1872 2764 1633 
Q 3022 1394 3022 966 
Q 3022 478 2636 193 
Q 2250 -91 1575 -91 
Q 1294 -91 989 -36 
Q 684 19 347 128 
L 347 722 
Q 666 556 975 473 
Q 1284 391 1588 391 
Q 1994 391 2212 530 
Q 2431 669 2431 922 
Q 2431 1156 2273 1281 
Q 2116 1406 1581 1522 
L 1381 1569 
Q 847 1681 609 1914 
Q 372 2147 372 2553 
Q 372 3047 722 3315 
Q 1072 3584 1716 3584 
Q 2034 3584 2315 3537 
Q 2597 3491 2834 3397 
z
" transform="scale(0.015625)"/>
      <path id="DejaVuSans-65" d="M 3597 1894 
L 3597 1613 
L 953 1613 
Q 991 1019 1311 708 
Q 1631 397 2203 397 
Q 2534 397 2845 478 
Q 3156 559 3463 722 
L 3463 178 
Q 3153 47 2828 -22 
Q 2503 -91 2169 -91 
Q 1331 -91 842 396 
Q 353 884 353 1716 
Q 353 2575 817 3079 
Q 1281 3584 2069 3584 
Q 2775 3584 3186 3129 
Q 3597 2675 3597 1894 
z
M 3022 2063 
Q 3016 2534 2758 2815 
Q 2500 3097 2075 3097 
Q 1594 3097 1305 2825 
Q 1016 2553 972 2059 
L 3022 2063 
z
" transform="scale(0.015625)"/>
     </defs>
     <use xlink:href="#DejaVuSans-62"/>
     <use xlink:href="#DejaVuSans-61" x="63.476562"/>
     <use xlink:href="#DejaVuSans-73" x="124.755859"/>
     <use xlink:href="#DejaVuSans-65" x="176.855469"/>
    </g>
   </g>
  </g>
  <g id="axes_2">
   <g id="matplotlib.axis_3"/>
   <g id="matplotlib.axis_4"/>
   <g id="patch_4">
    <path d="M 170.233043 126.432 
C 170.233043 119.039816 167.593551 111.885158 162.792712 106.264097 
C 157.991872 100.643036 151.338208 96.916805 144.037034 95.760412 
C 136.73586 94.60402 129.25638 96.09178 122.953507 99.954186 
C 116.650634 103.816591 111.929416 109.805426 109.645105 116.835811 
L 139.17913 126.432 
L 170.233043 126.432 
z
" style="fill: #20b2aa"/>
   </g>
   <g id="patch_5">
    <path d="M 109.645105 116.835811 
C 108.258004 121.104868 107.812873 125.624356 108.340469 130.081994 
C 108.868065 134.539633 110.35595 138.830333 112.701316 142.657624 
C 115.046682 146.484914 118.194238 149.758567 121.9265 152.252384 
C 125.658761 154.746202 129.887739 156.401392 134.321227 157.103588 
C 138.754715 157.805783 143.288194 157.53843 147.608418 156.320001 
C 151.928641 155.101573 155.933759 152.960793 159.347033 150.045581 
C 162.760307 147.13037 165.50127 143.509453 167.380529 139.433023 
C 169.259789 135.356594 170.233043 130.920752 170.233043 126.432 
L 139.17913 126.432 
L 109.645105 116.835811 
z
" style="fill: #ff6347"/>
   </g>
   <g id="text_4">
    <!-- 45% -->
    <g transform="translate(130.980591 110.788422)scale(0.1 -0.1)">
     <defs>
      <path id="DejaVuSans-34" d="M 2419 4116 
L 825 1625 
L 2419 1625 
L 2419 4116 
z
M 2253 4666 
L 3047 4666 
L 3047 1625 
L 3713 1625 
L 3713 1100 
L 3047 1100 
L 3047 0 
L 2419 0 
L 2419 1100 
L 313 1100 
L 313 1709 
L 2253 4666 
z
" transform="scale(0.015625)"/>
      <path id="DejaVuSans-35" d="M 691 4666 
L 3169 4666 
L 3169 4134 
L 1269 4134 
L 1269 2991 
Q 1406 3038 1543 3061 
Q 1681 3084 1819 3084 
Q 2600 3084 3056 2656 
Q 3513 2228 3513 1497 
Q 3513 744 3044 326 
Q 2575 -91 1722 -91 
Q 1428 -91 1123 -41 
Q 819 9 494 109 
L 494 744 
Q 775 591 1075 516 
Q 1375 441 1709 441 
Q 2250 441 2565 725 
Q 2881 1009 2881 1497 
Q 2881 1984 2565 2268 
Q 2250 2553 1709 2553 
Q 1456 2553 1204 2497 
Q 953 2441 691 2322 
L 691 4666 
z
" transform="scale(0.015625)"/>
     </defs>
     <use xlink:href="#DejaVuSans-34"/>
     <use xlink:href="#DejaVuSans-35" x="63.623047"/>
     <use xlink:href="#DejaVuSans-25" x="127.246094"/>
    </g>
   </g>
   <g id="text_5">
    <!-- 55% -->
    <g transform="translate(125.151107 147.594328)scale(0.1 -0.1)">
     <use xlink:href="#DejaVuSans-35"/>
     <use xlink:href="#DejaVuSans-35" x="63.623047"/>
     <use xlink:href="#DejaVuSans-25" x="127.246094"/>
    </g>
   </g>
   <g id="text_6">
    <!-- zwsp -->
    <g transform="translate(121.19038 81.614609)scale(0.144 -0.144)">
     <defs>
      <path id="DejaVuSans-7a" d="M 353 3500 
L 3084 3500 
L 3084 2975 
L 922 459 
L 3084 459 
L 3084 0 
L 275 0 
L 275 525 
L 2438 3041 
L 353 3041 
L 353 3500 
z
" transform="scale(0.015625)"/>
      <path id="DejaVuSans-77" d="M 269 3500 
L 844 3500 
L 1563 769 
L 2278 3500 
L 2956 3500 
L 3675 769 
L 4391 3500 
L 4966 3500 
L 4050 0 
L 3372 0 
L 2619 2869 
L 1863 0 
L 1184 0 
L 269 3500 
z
" transform="scale(0.015625)"/>
      <path id="DejaVuSans-70" d="M 1159 525 
L 1159 -1331 
L 581 -1331 
L 581 3500 
L 1159 3500 
L 1159 2969 
Q 1341 3281 1617 3432 
Q 1894 3584 2278 3584 
Q 2916 3584 3314 3078 
Q 3713 2572 3713 1747 
Q 3713 922 3314 415 
Q 2916 -91 2278 -91 
Q 1894 -91 1617 61 
Q 1341 213 1159 525 
z
M 3116 1747 
Q 3116 2381 2855 2742 
Q 2594 3103 2138 3103 
Q 1681 3103 1420 2742 
Q 1159 2381 1159 1747 
Q 1159 1113 1420 752 
Q 1681 391 2138 391 
Q 2594 391 2855 752 
Q 3116 1113 3116 1747 
z
" transform="scale(0.015625)"/>
     </defs>
     <use xlink:href="#DejaVuSans-7a"/>
     <use xlink:href="#DejaVuSans-77" x="52.490234"/>
     <use xlink:href="#DejaVuSans-73" x="134.277344"/>
     <use xlink:href="#DejaVuSans-70" x="186.376953"/>
    </g>
   </g>
  </g>
  <g id="axes_3">
   <g id="matplotlib.axis_5"/>
   <g id="matplotlib.axis_6"/>
   <g id="patch_6">
    <path d="M 263.394783 126.432 
C 263.394783 119.056914 260.767486 111.917701 255.986746 106.301972 
C 251.206006 100.686243 244.577622 96.953206 237.297071 95.776143 
C 230.016521 94.59908 222.549504 96.053281 216.242753 99.876471 
C 209.936001 103.69966 205.192926 109.647288 202.868975 116.646656 
L 232.34087 126.432 
L 263.394783 126.432 
z
" style="fill: #20b2aa"/>
   </g>
   <g id="patch_7">
    <path d="M 202.868975 116.646656 
C 201.451888 120.914696 200.978697 125.440066 201.482217 129.908933 
C 201.985737 134.377801 203.454054 138.684415 205.785339 142.530116 
C 208.116625 146.375816 211.255714 149.669599 214.984911 152.183043 
C 218.714107 154.696486 222.945166 156.370112 227.384665 157.087857 
C 231.824164 157.805601 236.367048 157.550479 240.69827 156.340182 
C 245.029493 155.129886 249.046562 152.993056 252.470894 150.07788 
C 255.895227 147.162704 258.645792 143.538165 260.531838 139.455625 
C 262.417884 135.373085 263.394782 130.92915 263.394783 126.432006 
L 232.34087 126.432 
L 202.868975 116.646656 
z
" style="fill: #ff6347"/>
   </g>
   <g id="text_7">
    <!-- 45% -->
    <g transform="translate(224.201309 110.797861)scale(0.1 -0.1)">
     <use xlink:href="#DejaVuSans-34"/>
     <use xlink:href="#DejaVuSans-35" x="63.623047"/>
     <use xlink:href="#DejaVuSans-25" x="127.246094"/>
    </g>
   </g>
   <g id="text_8">
    <!-- 55% -->
    <g transform="translate(218.253866 147.584889)scale(0.1 -0.1)">
     <use xlink:href="#DejaVuSans-35"/>
     <use xlink:href="#DejaVuSans-35" x="63.623047"/>
     <use xlink:href="#DejaVuSans-25" x="127.246094"/>
    </g>
   </g>
   <g id="text_9">
    <!-- zwnj -->
    <g transform="translate(216.110495 81.614609)scale(0.144 -0.144)">
     <defs>
      <path id="DejaVuSans-6e" d="M 3513 2113 
L 3513 0 
L 2938 0 
L 2938 2094 
Q 2938 2591 2744 2837 
Q 2550 3084 2163 3084 
Q 1697 3084 1428 2787 
Q 1159 2491 1159 1978 
L 1159 0 
L 581 0 
L 581 3500 
L 1159 3500 
L 1159 2956 
Q 1366 3272 1645 3428 
Q 1925 3584 2291 3584 
Q 2894 3584 3203 3211 
Q 3513 2838 3513 2113 
z
" transform="scale(0.015625)"/>
      <path id="DejaVuSans-6a" d="M 603 3500 
L 1178 3500 
L 1178 -63 
Q 1178 -731 923 -1031 
Q 669 -1331 103 -1331 
L -116 -1331 
L -116 -844 
L 38 -844 
Q 366 -844 484 -692 
Q 603 -541 603 -63 
L 603 3500 
z
M 603 4863 
L 1178 4863 
L 1178 4134 
L 603 4134 
L 603 4863 
z
" transform="scale(0.015625)"/>
     </defs>
     <use xlink:href="#DejaVuSans-7a"/>
     <use xlink:href="#DejaVuSans-77" x="52.490234"/>
     <use xlink:href="#DejaVuSans-6e" x="134.277344"/>
     <use xlink:href="#DejaVuSans-6a" x="197.65625"/>
    </g>
   </g>
  </g>
  <g id="axes_4">
   <g id="matplotlib.axis_7"/>
   <g id="matplotlib.axis_8"/>
   <g id="patch_8">
    <path d="M 356.556522 126.432 
C 356.556522 120.814196 355.03209 115.30029 352.146351 110.480307 
C 349.260613 105.660325 345.120306 101.712551 340.168474 99.059424 
C 335.216643 96.406298 329.636446 95.145955 324.025005 95.41326 
C 318.413565 95.680566 312.978439 97.465633 308.301225 100.577447 
L 325.502609 126.432 
L 356.556522 126.432 
z
" style="fill: #20b2aa"/>
   </g>
   <g id="patch_9">
    <path d="M 308.301225 100.577447 
C 303.832653 103.550448 300.210243 107.631771 297.788772 112.421691 
C 295.3673 117.211612 294.228488 122.54848 294.483869 127.909603 
C 294.739251 133.270727 296.380208 138.475178 299.246025 143.013234 
C 302.111842 147.551291 306.105804 151.269801 310.836743 153.804576 
C 315.567682 156.33935 320.875937 157.604845 326.24162 157.477118 
C 331.607302 157.349391 336.84933 155.832753 341.454301 153.075743 
C 346.059272 150.318732 349.871777 146.414393 352.518419 141.745116 
C 355.165061 137.075839 356.556522 131.799203 356.556522 126.432 
L 325.502609 126.432 
L 308.301225 100.577447 
z
" style="fill: #ff6347"/>
   </g>
   <g id="text_10">
    <!-- 34% -->
    <g transform="translate(323.188847 112.76783)scale(0.1 -0.1)">
     <use xlink:href="#DejaVuSans-33"/>
     <use xlink:href="#DejaVuSans-34" x="63.623047"/>
     <use xlink:href="#DejaVuSans-25" x="127.246094"/>
    </g>
   </g>
   <g id="text_11">
    <!-- 66% -->
    <g transform="translate(305.589808 145.61492)scale(0.1 -0.1)">
     <use xlink:href="#DejaVuSans-36"/>
     <use xlink:href="#DejaVuSans-36" x="63.623047"/>
     <use xlink:href="#DejaVuSans-25" x="127.246094"/>
    </g>
   </g>
   <g id="text_12">
    <!-- zwj -->
    <g transform="translate(313.835234 81.614609)scale(0.144 -0.144)">
     <use xlink:href="#DejaVuSans-7a"/>
     <use xlink:href="#DejaVuSans-77" x="52.490234"/>
     <use xlink:href="#DejaVuSans-6a" x="134.277344"/>
    </g>
   </g>
  </g>
  <g id="axes_5">
   <g id="matplotlib.axis_9"/>
   <g id="matplotlib.axis_10"/>
   <g id="patch_10">
    <path d="M 77.071304 271.584 
C 77.071304 267.603728 76.306059 263.660322 74.817324 259.968949 
C 73.328588 256.277577 71.143941 252.906618 68.382583 250.040005 
C 65.621225 247.173392 62.334311 244.864228 58.701185 243.238508 
C 55.068059 241.612789 51.156024 240.70063 47.178536 240.551803 
C 43.201047 240.402976 39.231785 241.020237 35.487328 242.369906 
C 31.742871 243.719575 28.292583 245.776651 25.324724 248.428892 
C 22.356865 251.081132 19.926414 254.279406 18.165984 257.849203 
C 16.405555 261.419001 15.347758 265.294193 15.050312 269.263335 
C 14.752865 273.232478 15.221279 277.222044 16.429995 281.014348 
C 17.63871 284.806653 19.565337 288.331444 22.104751 291.396399 
C 24.644165 294.461353 27.749324 297.009692 31.250801 298.90237 
C 34.752277 300.795047 38.585207 301.997002 42.540452 302.442652 
C 46.495697 302.888302 50.499988 302.56939 54.334836 301.503319 
C 58.169683 300.437247 61.764049 298.643764 64.921812 296.220729 
C 68.079575 293.797693 70.742237 290.78999 72.764516 287.361732 
C 74.786795 283.933474 76.131227 280.148167 76.724457 276.212351 
L 46.017391 271.584 
L 77.071304 271.584 
z
" style="fill: #20b2aa"/>
   </g>
   <g id="patch_11">
    <path d="M 76.724457 276.212351 
C 76.83987 275.446634 76.926602 274.676868 76.984471 273.904667 
C 77.042339 273.132467 77.071304 272.358371 77.071304 271.584005 
L 46.017391 271.584 
L 76.724457 276.212351 
z
" style="fill: #ff6347"/>
   </g>
   <g id="text_13">
    <!-- 98% -->
    <g transform="translate(16.323862 272.950976)scale(0.1 -0.1)">
     <defs>
      <path id="DejaVuSans-38" d="M 2034 2216 
Q 1584 2216 1326 1975 
Q 1069 1734 1069 1313 
Q 1069 891 1326 650 
Q 1584 409 2034 409 
Q 2484 409 2743 651 
Q 3003 894 3003 1313 
Q 3003 1734 2745 1975 
Q 2488 2216 2034 2216 
z
M 1403 2484 
Q 997 2584 770 2862 
Q 544 3141 544 3541 
Q 544 4100 942 4425 
Q 1341 4750 2034 4750 
Q 2731 4750 3128 4425 
Q 3525 4100 3525 3541 
Q 3525 3141 3298 2862 
Q 3072 2584 2669 2484 
Q 3125 2378 3379 2068 
Q 3634 1759 3634 1313 
Q 3634 634 3220 271 
Q 2806 -91 2034 -91 
Q 1263 -91 848 271 
Q 434 634 434 1313 
Q 434 1759 690 2068 
Q 947 2378 1403 2484 
z
M 1172 3481 
Q 1172 3119 1398 2916 
Q 1625 2713 2034 2713 
Q 2441 2713 2670 2916 
Q 2900 3119 2900 3481 
Q 2900 3844 2670 4047 
Q 2441 4250 2034 4250 
Q 1625 4250 1398 4047 
Q 1172 3844 1172 3481 
z
" transform="scale(0.015625)"/>
     </defs>
     <use xlink:href="#DejaVuSans-39"/>
     <use xlink:href="#DejaVuSans-38" x="63.623047"/>
     <use xlink:href="#DejaVuSans-25" x="127.246094"/>
    </g>
   </g>
   <g id="text_14">
    <!-- 2% -->
    <g transform="translate(56.665608 275.735775)scale(0.1 -0.1)">
     <defs>
      <path id="DejaVuSans-32" d="M 1228 531 
L 3431 531 
L 3431 0 
L 469 0 
L 469 531 
Q 828 903 1448 1529 
Q 2069 2156 2228 2338 
Q 2531 2678 2651 2914 
Q 2772 3150 2772 3378 
Q 2772 3750 2511 3984 
Q 2250 4219 1831 4219 
Q 1534 4219 1204 4116 
Q 875 4013 500 3803 
L 500 4441 
Q 881 4594 1212 4672 
Q 1544 4750 1819 4750 
Q 2544 4750 2975 4387 
Q 3406 4025 3406 3419 
Q 3406 3131 3298 2873 
Q 3191 2616 2906 2266 
Q 2828 2175 2409 1742 
Q 1991 1309 1228 531 
z
" transform="scale(0.015625)"/>
     </defs>
     <use xlink:href="#DejaVuSans-32"/>
     <use xlink:href="#DejaVuSans-25" x="63.623047"/>
    </g>
   </g>
   <g id="text_15">
    <!-- rlo -->
    <g transform="translate(36.651766 226.766609)scale(0.144 -0.144)">
     <defs>
      <path id="DejaVuSans-72" d="M 2631 2963 
Q 2534 3019 2420 3045 
Q 2306 3072 2169 3072 
Q 1681 3072 1420 2755 
Q 1159 2438 1159 1844 
L 1159 0 
L 581 0 
L 581 3500 
L 1159 3500 
L 1159 2956 
Q 1341 3275 1631 3429 
Q 1922 3584 2338 3584 
Q 2397 3584 2469 3576 
Q 2541 3569 2628 3553 
L 2631 2963 
z
" transform="scale(0.015625)"/>
      <path id="DejaVuSans-6c" d="M 603 4863 
L 1178 4863 
L 1178 0 
L 603 0 
L 603 4863 
z
" transform="scale(0.015625)"/>
      <path id="DejaVuSans-6f" d="M 1959 3097 
Q 1497 3097 1228 2736 
Q 959 2375 959 1747 
Q 959 1119 1226 758 
Q 1494 397 1959 397 
Q 2419 397 2687 759 
Q 2956 1122 2956 1747 
Q 2956 2369 2687 2733 
Q 2419 3097 1959 3097 
z
M 1959 3584 
Q 2709 3584 3137 3096 
Q 3566 2609 3566 1747 
Q 3566 888 3137 398 
Q 2709 -91 1959 -91 
Q 1206 -91 779 398 
Q 353 888 353 1747 
Q 353 2609 779 3096 
Q 1206 3584 1959 3584 
z
" transform="scale(0.015625)"/>
     </defs>
     <use xlink:href="#DejaVuSans-72"/>
     <use xlink:href="#DejaVuSans-6c" x="41.113281"/>
     <use xlink:href="#DejaVuSans-6f" x="68.896484"/>
    </g>
   </g>
  </g>
  <g id="axes_6">
   <g id="matplotlib.axis_11"/>
   <g id="matplotlib.axis_12"/>
   <g id="patch_12">
    <path d="M 170.233043 271.584 
C 170.233043 265.027076 168.156337 258.63563 164.302274 253.330968 
C 160.448211 248.026305 155.011322 244.076174 148.775317 242.049973 
L 139.17913 271.584 
L 170.233043 271.584 
z
" style="fill: #20b2aa"/>
   </g>
   <g id="patch_13">
    <path d="M 148.775317 242.049973 
C 145.676175 241.043001 142.43776 240.530087 139.17913 240.530087 
C 135.9205 240.530087 132.682084 241.043002 129.582943 242.049974 
C 126.483801 243.056946 123.562385 244.545482 120.926097 246.460857 
C 118.28981 248.376232 115.971361 250.694682 114.055986 253.330969 
C 112.140612 255.967256 110.652076 258.888673 109.645104 261.987814 
C 108.638132 265.086956 108.125217 268.325371 108.125217 271.584001 
C 108.125218 274.842632 108.638132 278.081047 109.645105 281.180188 
C 110.652077 284.27933 112.140613 287.200746 114.055988 289.837034 
C 115.971363 292.473321 118.289813 294.79177 120.9261 296.707145 
C 123.562387 298.622519 126.483804 300.111055 129.582945 301.118027 
C 132.682087 302.124999 135.920502 302.637913 139.179133 302.637913 
C 142.437763 302.637913 145.676178 302.124998 148.77532 301.118026 
C 151.874461 300.111053 154.795878 298.622517 157.432165 296.707142 
C 160.068452 294.791767 162.386901 292.473317 164.302275 289.83703 
C 166.21765 287.200743 167.706186 284.279326 168.713158 281.180184 
C 169.720129 278.081043 170.233044 274.842627 170.233043 271.583997 
L 139.17913 271.584 
L 148.775317 242.049973 
z
" style="fill: #ff6347"/>
   </g>
   <g id="text_16">
    <!-- 20% -->
    <g transform="translate(143.139735 263.391556)scale(0.1 -0.1)">
     <defs>
      <path id="DejaVuSans-30" d="M 2034 4250 
Q 1547 4250 1301 3770 
Q 1056 3291 1056 2328 
Q 1056 1369 1301 889 
Q 1547 409 2034 409 
Q 2525 409 2770 889 
Q 3016 1369 3016 2328 
Q 3016 3291 2770 3770 
Q 2525 4250 2034 4250 
z
M 2034 4750 
Q 2819 4750 3233 4129 
Q 3647 3509 3647 2328 
Q 3647 1150 3233 529 
Q 2819 -91 2034 -91 
Q 1250 -91 836 529 
Q 422 1150 422 2328 
Q 422 3509 836 4129 
Q 1250 4750 2034 4750 
z
" transform="scale(0.015625)"/>
     </defs>
     <use xlink:href="#DejaVuSans-32"/>
     <use xlink:href="#DejaVuSans-30" x="63.623047"/>
     <use xlink:href="#DejaVuSans-25" x="127.246094"/>
    </g>
   </g>
   <g id="text_17">
    <!-- 80% -->
    <g transform="translate(112.991964 285.295195)scale(0.1 -0.1)">
     <use xlink:href="#DejaVuSans-38"/>
     <use xlink:href="#DejaVuSans-30" x="63.623047"/>
     <use xlink:href="#DejaVuSans-25" x="127.246094"/>
    </g>
   </g>
   <g id="text_18">
    <!-- bksp -->
    <g transform="translate(122.11738 226.766609)scale(0.144 -0.144)">
     <defs>
      <path id="DejaVuSans-6b" d="M 581 4863 
L 1159 4863 
L 1159 1991 
L 2875 3500 
L 3609 3500 
L 1753 1863 
L 3688 0 
L 2938 0 
L 1159 1709 
L 1159 0 
L 581 0 
L 581 4863 
z
" transform="scale(0.015625)"/>
     </defs>
     <use xlink:href="#DejaVuSans-62"/>
     <use xlink:href="#DejaVuSans-6b" x="63.476562"/>
     <use xlink:href="#DejaVuSans-73" x="121.386719"/>
     <use xlink:href="#DejaVuSans-70" x="173.486328"/>
    </g>
   </g>
  </g>
  <g id="axes_7">
   <g id="matplotlib.axis_13"/>
   <g id="matplotlib.axis_14"/>
   <g id="patch_14">
    <path d="M 263.394783 271.584 
C 263.394783 265.726666 261.737583 259.987141 258.615438 255.031279 
C 255.493293 250.075416 251.031795 246.102572 245.748531 243.573642 
L 232.34087 271.584 
L 263.394783 271.584 
z
" style="fill: #20b2aa"/>
   </g>
   <g id="patch_15">
    <path d="M 245.748531 243.573642 
C 242.731597 242.129533 239.501071 241.182283 236.182009 240.768563 
C 232.862947 240.354842 229.498738 240.480059 226.219614 241.139366 
C 222.94049 241.798673 219.789318 242.983451 216.888084 244.647836 
C 213.98685 246.312221 211.37348 248.434455 209.14914 250.932385 
C 206.924801 253.430314 205.11857 256.271285 203.800369 259.345318 
C 202.482168 262.419352 201.669229 265.686264 201.393021 269.019588 
C 201.116814 272.352912 201.38095 275.709072 202.175203 278.958149 
C 202.969456 282.207226 204.283444 285.306745 206.066301 288.13672 
C 207.849157 290.966695 210.077576 293.490132 212.665293 295.609345 
C 215.253009 297.728557 218.166195 299.415842 221.292077 300.605883 
C 224.417959 301.795924 227.715675 302.473164 231.057566 302.611385 
C 234.399456 302.749607 237.741835 302.347004 240.955314 301.419162 
C 244.168792 300.491319 247.211363 299.050366 249.965245 297.152084 
C 252.719126 295.253802 255.148318 292.923006 257.158783 290.249924 
C 259.169248 287.576842 260.734704 284.596417 261.794552 281.424027 
C 262.854399 278.251636 263.394782 274.928751 263.394783 271.584003 
L 232.34087 271.584 
L 245.748531 243.573642 
z
" style="fill: #ff6347"/>
   </g>
   <g id="text_19">
    <!-- 18% -->
    <g transform="translate(236.992329 264.411742)scale(0.1 -0.1)">
     <use xlink:href="#DejaVuSans-31"/>
     <use xlink:href="#DejaVuSans-38" x="63.623047"/>
     <use xlink:href="#DejaVuSans-25" x="127.246094"/>
    </g>
   </g>
   <g id="text_20">
    <!-- 82% -->
    <g transform="translate(205.462847 284.275007)scale(0.1 -0.1)">
     <use xlink:href="#DejaVuSans-38"/>
     <use xlink:href="#DejaVuSans-32" x="63.623047"/>
     <use xlink:href="#DejaVuSans-25" x="127.246094"/>
    </g>
   </g>
   <g id="text_21">
    <!-- del -->
    <g transform="translate(221.339495 226.766609)scale(0.144 -0.144)">
     <defs>
      <path id="DejaVuSans-64" d="M 2906 2969 
L 2906 4863 
L 3481 4863 
L 3481 0 
L 2906 0 
L 2906 525 
Q 2725 213 2448 61 
Q 2172 -91 1784 -91 
Q 1150 -91 751 415 
Q 353 922 353 1747 
Q 353 2572 751 3078 
Q 1150 3584 1784 3584 
Q 2172 3584 2448 3432 
Q 2725 3281 2906 2969 
z
M 947 1747 
Q 947 1113 1208 752 
Q 1469 391 1925 391 
Q 2381 391 2643 752 
Q 2906 1113 2906 1747 
Q 2906 2381 2643 2742 
Q 2381 3103 1925 3103 
Q 1469 3103 1208 2742 
Q 947 2381 947 1747 
z
" transform="scale(0.015625)"/>
     </defs>
     <use xlink:href="#DejaVuSans-64"/>
     <use xlink:href="#DejaVuSans-65" x="63.476562"/>
     <use xlink:href="#DejaVuSans-6c" x="125"/>
    </g>
   </g>
  </g>
  <g id="axes_8">
   <g id="matplotlib.axis_15"/>
   <g id="matplotlib.axis_16"/>
   <g id="patch_16">
    <path d="M 356.556522 271.584 
C 356.556522 267.634247 355.802967 263.720518 354.336356 260.053148 
C 352.869745 256.385778 350.716829 253.031665 347.993315 250.171068 
C 345.2698 247.310471 342.025365 244.99557 338.434376 243.350777 
C 334.843387 241.705983 330.971347 240.761298 327.026352 240.567493 
C 323.081357 240.373688 319.135367 240.934297 315.400451 242.219192 
C 311.665536 243.504088 308.209824 245.489831 305.219036 248.069702 
C 302.228248 250.649574 299.756939 253.776514 297.937925 257.282471 
C 296.118911 260.788428 294.985372 264.60945 294.598229 268.540184 
C 294.211085 272.470918 294.577399 276.439663 295.677483 280.233126 
C 296.777567 284.02659 298.591354 287.575575 301.021367 290.689348 
C 303.45138 293.803122 306.453292 296.424886 309.865772 298.413738 
C 313.278251 300.40259 317.03905 301.722252 320.946053 302.301801 
C 324.853056 302.88135 328.834995 302.710215 332.677867 301.797593 
C 336.52074 300.88497 340.154448 299.247508 343.383706 296.973208 
C 346.612964 294.698908 349.378867 291.829255 351.532766 288.518475 
C 353.686665 285.207694 355.189271 281.516178 355.95983 277.642318 
L 325.502609 271.584 
L 356.556522 271.584 
z
" style="fill: #20b2aa"/>
   </g>
   <g id="patch_17">
    <path d="M 355.95983 277.642318 
C 356.158127 276.645408 356.30736 275.639362 356.406989 274.627816 
C 356.506617 273.616269 356.556522 272.600441 356.556522 271.584 
L 325.502609 271.584 
L 355.95983 277.642318 
z
" style="fill: #ff6347"/>
   </g>
   <g id="text_22">
    <!-- 97% -->
    <g transform="translate(295.846699 272.517086)scale(0.1 -0.1)">
     <defs>
      <path id="DejaVuSans-37" d="M 525 4666 
L 3525 4666 
L 3525 4397 
L 1831 0 
L 1172 0 
L 2766 4134 
L 525 4134 
L 525 4666 
z
" transform="scale(0.015625)"/>
     </defs>
     <use xlink:href="#DejaVuSans-39"/>
     <use xlink:href="#DejaVuSans-37" x="63.623047"/>
     <use xlink:href="#DejaVuSans-25" x="127.246094"/>
    </g>
   </g>
   <g id="text_23">
    <!-- 3% -->
    <g transform="translate(336.113205 276.169664)scale(0.1 -0.1)">
     <use xlink:href="#DejaVuSans-33"/>
     <use xlink:href="#DejaVuSans-25" x="63.623047"/>
    </g>
   </g>
   <g id="text_24">
    <!-- homo -->
    <g transform="translate(305.115359 226.766609)scale(0.144 -0.144)">
     <defs>
      <path id="DejaVuSans-68" d="M 3513 2113 
L 3513 0 
L 2938 0 
L 2938 2094 
Q 2938 2591 2744 2837 
Q 2550 3084 2163 3084 
Q 1697 3084 1428 2787 
Q 1159 2491 1159 1978 
L 1159 0 
L 581 0 
L 581 4863 
L 1159 4863 
L 1159 2956 
Q 1366 3272 1645 3428 
Q 1925 3584 2291 3584 
Q 2894 3584 3203 3211 
Q 3513 2838 3513 2113 
z
" transform="scale(0.015625)"/>
      <path id="DejaVuSans-6d" d="M 3328 2828 
Q 3544 3216 3844 3400 
Q 4144 3584 4550 3584 
Q 5097 3584 5394 3201 
Q 5691 2819 5691 2113 
L 5691 0 
L 5113 0 
L 5113 2094 
Q 5113 2597 4934 2840 
Q 4756 3084 4391 3084 
Q 3944 3084 3684 2787 
Q 3425 2491 3425 1978 
L 3425 0 
L 2847 0 
L 2847 2094 
Q 2847 2600 2669 2842 
Q 2491 3084 2119 3084 
Q 1678 3084 1418 2786 
Q 1159 2488 1159 1978 
L 1159 0 
L 581 0 
L 581 3500 
L 1159 3500 
L 1159 2956 
Q 1356 3278 1631 3431 
Q 1906 3584 2284 3584 
Q 2666 3584 2933 3390 
Q 3200 3197 3328 2828 
z
" transform="scale(0.015625)"/>
     </defs>
     <use xlink:href="#DejaVuSans-68"/>
     <use xlink:href="#DejaVuSans-6f" x="63.378906"/>
     <use xlink:href="#DejaVuSans-6d" x="124.560547"/>
     <use xlink:href="#DejaVuSans-6f" x="221.972656"/>
    </g>
   </g>
   <g id="legend_1">
    <g id="patch_18">
     <path d="M 85.666679 402.44487 
L 282.747929 402.44487 
Q 284.747929 402.44487 284.747929 400.44487 
L 284.747929 372.08862 
Q 284.747929 370.08862 282.747929 370.08862 
L 85.666679 370.08862 
Q 83.666679 370.08862 83.666679 372.08862 
L 83.666679 400.44487 
Q 83.666679 402.44487 85.666679 402.44487 
z
" style="fill: #e5e5e5; opacity: 0.8; stroke: #cccccc; stroke-width: 0.5; stroke-linejoin: miter"/>
    </g>
    <g id="patch_19">
     <path d="M 87.666679 381.687057 
L 107.666679 381.687057 
L 107.666679 374.687057 
L 87.666679 374.687057 
z
" style="fill: #20b2aa"/>
    </g>
    <g id="text_25">
     <!-- Perturbed Target Present in SERP -->
     <g transform="translate(115.666679 381.687057)scale(0.1 -0.1)">
      <defs>
       <path id="DejaVuSans-50" d="M 1259 4147 
L 1259 2394 
L 2053 2394 
Q 2494 2394 2734 2622 
Q 2975 2850 2975 3272 
Q 2975 3691 2734 3919 
Q 2494 4147 2053 4147 
L 1259 4147 
z
M 628 4666 
L 2053 4666 
Q 2838 4666 3239 4311 
Q 3641 3956 3641 3272 
Q 3641 2581 3239 2228 
Q 2838 1875 2053 1875 
L 1259 1875 
L 1259 0 
L 628 0 
L 628 4666 
z
" transform="scale(0.015625)"/>
       <path id="DejaVuSans-74" d="M 1172 4494 
L 1172 3500 
L 2356 3500 
L 2356 3053 
L 1172 3053 
L 1172 1153 
Q 1172 725 1289 603 
Q 1406 481 1766 481 
L 2356 481 
L 2356 0 
L 1766 0 
Q 1100 0 847 248 
Q 594 497 594 1153 
L 594 3053 
L 172 3053 
L 172 3500 
L 594 3500 
L 594 4494 
L 1172 4494 
z
" transform="scale(0.015625)"/>
       <path id="DejaVuSans-75" d="M 544 1381 
L 544 3500 
L 1119 3500 
L 1119 1403 
Q 1119 906 1312 657 
Q 1506 409 1894 409 
Q 2359 409 2629 706 
Q 2900 1003 2900 1516 
L 2900 3500 
L 3475 3500 
L 3475 0 
L 2900 0 
L 2900 538 
Q 2691 219 2414 64 
Q 2138 -91 1772 -91 
Q 1169 -91 856 284 
Q 544 659 544 1381 
z
M 1991 3584 
L 1991 3584 
z
" transform="scale(0.015625)"/>
       <path id="DejaVuSans-20" transform="scale(0.015625)"/>
       <path id="DejaVuSans-54" d="M -19 4666 
L 3928 4666 
L 3928 4134 
L 2272 4134 
L 2272 0 
L 1638 0 
L 1638 4134 
L -19 4134 
L -19 4666 
z
" transform="scale(0.015625)"/>
       <path id="DejaVuSans-67" d="M 2906 1791 
Q 2906 2416 2648 2759 
Q 2391 3103 1925 3103 
Q 1463 3103 1205 2759 
Q 947 2416 947 1791 
Q 947 1169 1205 825 
Q 1463 481 1925 481 
Q 2391 481 2648 825 
Q 2906 1169 2906 1791 
z
M 3481 434 
Q 3481 -459 3084 -895 
Q 2688 -1331 1869 -1331 
Q 1566 -1331 1297 -1286 
Q 1028 -1241 775 -1147 
L 775 -588 
Q 1028 -725 1275 -790 
Q 1522 -856 1778 -856 
Q 2344 -856 2625 -561 
Q 2906 -266 2906 331 
L 2906 616 
Q 2728 306 2450 153 
Q 2172 0 1784 0 
Q 1141 0 747 490 
Q 353 981 353 1791 
Q 353 2603 747 3093 
Q 1141 3584 1784 3584 
Q 2172 3584 2450 3431 
Q 2728 3278 2906 2969 
L 2906 3500 
L 3481 3500 
L 3481 434 
z
" transform="scale(0.015625)"/>
       <path id="DejaVuSans-69" d="M 603 3500 
L 1178 3500 
L 1178 0 
L 603 0 
L 603 3500 
z
M 603 4863 
L 1178 4863 
L 1178 4134 
L 603 4134 
L 603 4863 
z
" transform="scale(0.015625)"/>
       <path id="DejaVuSans-53" d="M 3425 4513 
L 3425 3897 
Q 3066 4069 2747 4153 
Q 2428 4238 2131 4238 
Q 1616 4238 1336 4038 
Q 1056 3838 1056 3469 
Q 1056 3159 1242 3001 
Q 1428 2844 1947 2747 
L 2328 2669 
Q 3034 2534 3370 2195 
Q 3706 1856 3706 1288 
Q 3706 609 3251 259 
Q 2797 -91 1919 -91 
Q 1588 -91 1214 -16 
Q 841 59 441 206 
L 441 856 
Q 825 641 1194 531 
Q 1563 422 1919 422 
Q 2459 422 2753 634 
Q 3047 847 3047 1241 
Q 3047 1584 2836 1778 
Q 2625 1972 2144 2069 
L 1759 2144 
Q 1053 2284 737 2584 
Q 422 2884 422 3419 
Q 422 4038 858 4394 
Q 1294 4750 2059 4750 
Q 2388 4750 2728 4690 
Q 3069 4631 3425 4513 
z
" transform="scale(0.015625)"/>
       <path id="DejaVuSans-45" d="M 628 4666 
L 3578 4666 
L 3578 4134 
L 1259 4134 
L 1259 2753 
L 3481 2753 
L 3481 2222 
L 1259 2222 
L 1259 531 
L 3634 531 
L 3634 0 
L 628 0 
L 628 4666 
z
" transform="scale(0.015625)"/>
       <path id="DejaVuSans-52" d="M 2841 2188 
Q 3044 2119 3236 1894 
Q 3428 1669 3622 1275 
L 4263 0 
L 3584 0 
L 2988 1197 
Q 2756 1666 2539 1819 
Q 2322 1972 1947 1972 
L 1259 1972 
L 1259 0 
L 628 0 
L 628 4666 
L 2053 4666 
Q 2853 4666 3247 4331 
Q 3641 3997 3641 3322 
Q 3641 2881 3436 2590 
Q 3231 2300 2841 2188 
z
M 1259 4147 
L 1259 2491 
L 2053 2491 
Q 2509 2491 2742 2702 
Q 2975 2913 2975 3322 
Q 2975 3731 2742 3939 
Q 2509 4147 2053 4147 
L 1259 4147 
z
" transform="scale(0.015625)"/>
      </defs>
      <use xlink:href="#DejaVuSans-50"/>
      <use xlink:href="#DejaVuSans-65" x="56.677734"/>
      <use xlink:href="#DejaVuSans-72" x="118.201172"/>
      <use xlink:href="#DejaVuSans-74" x="159.314453"/>
      <use xlink:href="#DejaVuSans-75" x="198.523438"/>
      <use xlink:href="#DejaVuSans-72" x="261.902344"/>
      <use xlink:href="#DejaVuSans-62" x="303.015625"/>
      <use xlink:href="#DejaVuSans-65" x="366.492188"/>
      <use xlink:href="#DejaVuSans-64" x="428.015625"/>
      <use xlink:href="#DejaVuSans-20" x="491.492188"/>
      <use xlink:href="#DejaVuSans-54" x="523.279297"/>
      <use xlink:href="#DejaVuSans-61" x="567.863281"/>
      <use xlink:href="#DejaVuSans-72" x="629.142578"/>
      <use xlink:href="#DejaVuSans-67" x="668.505859"/>
      <use xlink:href="#DejaVuSans-65" x="731.982422"/>
      <use xlink:href="#DejaVuSans-74" x="793.505859"/>
      <use xlink:href="#DejaVuSans-20" x="832.714844"/>
      <use xlink:href="#DejaVuSans-50" x="864.501953"/>
      <use xlink:href="#DejaVuSans-72" x="923.054688"/>
      <use xlink:href="#DejaVuSans-65" x="961.917969"/>
      <use xlink:href="#DejaVuSans-73" x="1023.441406"/>
      <use xlink:href="#DejaVuSans-65" x="1075.541016"/>
      <use xlink:href="#DejaVuSans-6e" x="1137.064453"/>
      <use xlink:href="#DejaVuSans-74" x="1200.443359"/>
      <use xlink:href="#DejaVuSans-20" x="1239.652344"/>
      <use xlink:href="#DejaVuSans-69" x="1271.439453"/>
      <use xlink:href="#DejaVuSans-6e" x="1299.222656"/>
      <use xlink:href="#DejaVuSans-20" x="1362.601562"/>
      <use xlink:href="#DejaVuSans-53" x="1394.388672"/>
      <use xlink:href="#DejaVuSans-45" x="1457.865234"/>
      <use xlink:href="#DejaVuSans-52" x="1521.048828"/>
      <use xlink:href="#DejaVuSans-50" x="1590.53125"/>
     </g>
    </g>
    <g id="patch_20">
     <path d="M 87.666679 396.365182 
L 107.666679 396.365182 
L 107.666679 389.365182 
L 87.666679 389.365182 
z
" style="fill: #ff6347"/>
    </g>
    <g id="text_26">
     <!-- Perturbed Target Absent in SERP -->
     <g transform="translate(115.666679 396.365182)scale(0.1 -0.1)">
      <defs>
       <path id="DejaVuSans-41" d="M 2188 4044 
L 1331 1722 
L 3047 1722 
L 2188 4044 
z
M 1831 4666 
L 2547 4666 
L 4325 0 
L 3669 0 
L 3244 1197 
L 1141 1197 
L 716 0 
L 50 0 
L 1831 4666 
z
" transform="scale(0.015625)"/>
      </defs>
      <use xlink:href="#DejaVuSans-50"/>
      <use xlink:href="#DejaVuSans-65" x="56.677734"/>
      <use xlink:href="#DejaVuSans-72" x="118.201172"/>
      <use xlink:href="#DejaVuSans-74" x="159.314453"/>
      <use xlink:href="#DejaVuSans-75" x="198.523438"/>
      <use xlink:href="#DejaVuSans-72" x="261.902344"/>
      <use xlink:href="#DejaVuSans-62" x="303.015625"/>
      <use xlink:href="#DejaVuSans-65" x="366.492188"/>
      <use xlink:href="#DejaVuSans-64" x="428.015625"/>
      <use xlink:href="#DejaVuSans-20" x="491.492188"/>
      <use xlink:href="#DejaVuSans-54" x="523.279297"/>
      <use xlink:href="#DejaVuSans-61" x="567.863281"/>
      <use xlink:href="#DejaVuSans-72" x="629.142578"/>
      <use xlink:href="#DejaVuSans-67" x="668.505859"/>
      <use xlink:href="#DejaVuSans-65" x="731.982422"/>
      <use xlink:href="#DejaVuSans-74" x="793.505859"/>
      <use xlink:href="#DejaVuSans-20" x="832.714844"/>
      <use xlink:href="#DejaVuSans-41" x="864.501953"/>
      <use xlink:href="#DejaVuSans-62" x="932.910156"/>
      <use xlink:href="#DejaVuSans-73" x="996.386719"/>
      <use xlink:href="#DejaVuSans-65" x="1048.486328"/>
      <use xlink:href="#DejaVuSans-6e" x="1110.009766"/>
      <use xlink:href="#DejaVuSans-74" x="1173.388672"/>
      <use xlink:href="#DejaVuSans-20" x="1212.597656"/>
      <use xlink:href="#DejaVuSans-69" x="1244.384766"/>
      <use xlink:href="#DejaVuSans-6e" x="1272.167969"/>
      <use xlink:href="#DejaVuSans-20" x="1335.546875"/>
      <use xlink:href="#DejaVuSans-53" x="1367.333984"/>
      <use xlink:href="#DejaVuSans-45" x="1430.810547"/>
      <use xlink:href="#DejaVuSans-52" x="1493.994141"/>
      <use xlink:href="#DejaVuSans-50" x="1563.476562"/>
     </g>
    </g>
   </g>
  </g>
  <g id="text_27">
   <!-- Google: -->
   <g transform="translate(149.0925 19.3575)scale(0.16 -0.16)">
    <defs>
     <path id="DejaVuSans-47" d="M 3809 666 
L 3809 1919 
L 2778 1919 
L 2778 2438 
L 4434 2438 
L 4434 434 
Q 4069 175 3628 42 
Q 3188 -91 2688 -91 
Q 1594 -91 976 548 
Q 359 1188 359 2328 
Q 359 3472 976 4111 
Q 1594 4750 2688 4750 
Q 3144 4750 3555 4637 
Q 3966 4525 4313 4306 
L 4313 3634 
Q 3963 3931 3569 4081 
Q 3175 4231 2741 4231 
Q 1884 4231 1454 3753 
Q 1025 3275 1025 2328 
Q 1025 1384 1454 906 
Q 1884 428 2741 428 
Q 3075 428 3337 486 
Q 3600 544 3809 666 
z
" transform="scale(0.015625)"/>
     <path id="DejaVuSans-3a" d="M 750 794 
L 1409 794 
L 1409 0 
L 750 0 
L 750 794 
z
M 750 3309 
L 1409 3309 
L 1409 2516 
L 750 2516 
L 750 3309 
z
" transform="scale(0.015625)"/>
    </defs>
    <use xlink:href="#DejaVuSans-47"/>
    <use xlink:href="#DejaVuSans-6f" x="77.490234"/>
    <use xlink:href="#DejaVuSans-6f" x="138.671875"/>
    <use xlink:href="#DejaVuSans-67" x="199.853516"/>
    <use xlink:href="#DejaVuSans-6c" x="263.330078"/>
    <use xlink:href="#DejaVuSans-65" x="291.113281"/>
    <use xlink:href="#DejaVuSans-3a" x="352.636719"/>
   </g>
   <!-- Perturbed Result from Perturbed Query -->
   <g transform="translate(23.54625 37.274)scale(0.16 -0.16)">
    <defs>
     <path id="DejaVuSans-66" d="M 2375 4863 
L 2375 4384 
L 1825 4384 
Q 1516 4384 1395 4259 
Q 1275 4134 1275 3809 
L 1275 3500 
L 2222 3500 
L 2222 3053 
L 1275 3053 
L 1275 0 
L 697 0 
L 697 3053 
L 147 3053 
L 147 3500 
L 697 3500 
L 697 3744 
Q 697 4328 969 4595 
Q 1241 4863 1831 4863 
L 2375 4863 
z
" transform="scale(0.015625)"/>
     <path id="DejaVuSans-51" d="M 2522 4238 
Q 1834 4238 1429 3725 
Q 1025 3213 1025 2328 
Q 1025 1447 1429 934 
Q 1834 422 2522 422 
Q 3209 422 3611 934 
Q 4013 1447 4013 2328 
Q 4013 3213 3611 3725 
Q 3209 4238 2522 4238 
z
M 3406 84 
L 4238 -825 
L 3475 -825 
L 2784 -78 
Q 2681 -84 2626 -87 
Q 2572 -91 2522 -91 
Q 1538 -91 948 567 
Q 359 1225 359 2328 
Q 359 3434 948 4092 
Q 1538 4750 2522 4750 
Q 3503 4750 4090 4092 
Q 4678 3434 4678 2328 
Q 4678 1516 4351 937 
Q 4025 359 3406 84 
z
" transform="scale(0.015625)"/>
     <path id="DejaVuSans-79" d="M 2059 -325 
Q 1816 -950 1584 -1140 
Q 1353 -1331 966 -1331 
L 506 -1331 
L 506 -850 
L 844 -850 
Q 1081 -850 1212 -737 
Q 1344 -625 1503 -206 
L 1606 56 
L 191 3500 
L 800 3500 
L 1894 763 
L 2988 3500 
L 3597 3500 
L 2059 -325 
z
" transform="scale(0.015625)"/>
    </defs>
    <use xlink:href="#DejaVuSans-50"/>
    <use xlink:href="#DejaVuSans-65" x="56.677734"/>
    <use xlink:href="#DejaVuSans-72" x="118.201172"/>
    <use xlink:href="#DejaVuSans-74" x="159.314453"/>
    <use xlink:href="#DejaVuSans-75" x="198.523438"/>
    <use xlink:href="#DejaVuSans-72" x="261.902344"/>
    <use xlink:href="#DejaVuSans-62" x="303.015625"/>
    <use xlink:href="#DejaVuSans-65" x="366.492188"/>
    <use xlink:href="#DejaVuSans-64" x="428.015625"/>
    <use xlink:href="#DejaVuSans-20" x="491.492188"/>
    <use xlink:href="#DejaVuSans-52" x="523.279297"/>
    <use xlink:href="#DejaVuSans-65" x="588.261719"/>
    <use xlink:href="#DejaVuSans-73" x="649.785156"/>
    <use xlink:href="#DejaVuSans-75" x="701.884766"/>
    <use xlink:href="#DejaVuSans-6c" x="765.263672"/>
    <use xlink:href="#DejaVuSans-74" x="793.046875"/>
    <use xlink:href="#DejaVuSans-20" x="832.255859"/>
    <use xlink:href="#DejaVuSans-66" x="864.042969"/>
    <use xlink:href="#DejaVuSans-72" x="899.248047"/>
    <use xlink:href="#DejaVuSans-6f" x="938.111328"/>
    <use xlink:href="#DejaVuSans-6d" x="999.292969"/>
    <use xlink:href="#DejaVuSans-20" x="1096.705078"/>
    <use xlink:href="#DejaVuSans-50" x="1128.492188"/>
    <use xlink:href="#DejaVuSans-65" x="1185.169922"/>
    <use xlink:href="#DejaVuSans-72" x="1246.693359"/>
    <use xlink:href="#DejaVuSans-74" x="1287.806641"/>
    <use xlink:href="#DejaVuSans-75" x="1327.015625"/>
    <use xlink:href="#DejaVuSans-72" x="1390.394531"/>
    <use xlink:href="#DejaVuSans-62" x="1431.507812"/>
    <use xlink:href="#DejaVuSans-65" x="1494.984375"/>
    <use xlink:href="#DejaVuSans-64" x="1556.507812"/>
    <use xlink:href="#DejaVuSans-20" x="1619.984375"/>
    <use xlink:href="#DejaVuSans-51" x="1651.771484"/>
    <use xlink:href="#DejaVuSans-75" x="1730.482422"/>
    <use xlink:href="#DejaVuSans-65" x="1793.861328"/>
    <use xlink:href="#DejaVuSans-72" x="1855.384766"/>
    <use xlink:href="#DejaVuSans-79" x="1896.498047"/>
   </g>
  </g>
 </g>
</svg>
