<?xml version="1.0" encoding="utf-8" standalone="no"?>
<!DOCTYPE svg PUBLIC "-//W3C//DTD SVG 1.1//EN"
  "http://www.w3.org/Graphics/SVG/1.1/DTD/svg11.dtd">
<svg xmlns:xlink="http://www.w3.org/1999/xlink" width="371.52pt" height="393.850207pt" viewBox="0 0 371.52 393.850207" xmlns="http://www.w3.org/2000/svg" version="1.1">
 <metadata>
  <rdf:RDF xmlns:dc="http://purl.org/dc/elements/1.1/" xmlns:cc="http://creativecommons.org/ns#" xmlns:rdf="http://www.w3.org/1999/02/22-rdf-syntax-ns#">
   <cc:Work>
    <dc:type rdf:resource="http://purl.org/dc/dcmitype/StillImage"/>
    <dc:date>2023-03-17T15:22:10.055921</dc:date>
    <dc:format>image/svg+xml</dc:format>
    <dc:creator>
     <cc:Agent>
      <dc:title>Matplotlib v3.5.3, https://matplotlib.org/</dc:title>
     </cc:Agent>
    </dc:creator>
   </cc:Work>
  </rdf:RDF>
 </metadata>
 <defs>
  <style type="text/css">*{stroke-linejoin: round; stroke-linecap: butt}</style>
 </defs>
 <g id="figure_1">
  <g id="patch_1">
   <path d="M 0 393.850207 
L 371.52 393.850207 
L 371.52 0 
L 0 0 
z
" style="fill: #ffffff"/>
  </g>
  <g id="axes_1">
   <g id="matplotlib.axis_1"/>
   <g id="matplotlib.axis_2"/>
   <g id="patch_2">
    <path d="M 62.615172 126.432 
C 62.615172 123.277759 62.009225 120.152686 60.830341 117.227029 
C 59.651457 114.301372 57.921439 111.62924 55.734535 109.356205 
C 53.547631 107.083169 50.944288 105.25127 48.066329 103.960305 
C 45.18837 102.66934 42.089024 101.943185 38.937134 101.821399 
C 35.785245 101.699613 32.639107 102.18445 29.670115 103.249495 
C 26.701122 104.31454 23.964186 105.940096 21.608409 108.037607 
C 19.252632 110.135118 17.321584 112.66579 15.920463 115.491759 
C 14.519342 118.317728 13.674062 121.386726 13.430672 124.531563 
C 13.187283 127.6764 13.550284 130.838912 14.499902 133.846812 
C 15.44952 136.854712 16.968191 139.65237 18.973181 142.087376 
C 20.978171 144.522382 23.432398 146.5497 26.202162 148.058887 
C 28.971926 149.568074 32.006 150.531218 35.139095 150.895849 
C 38.27219 151.26048 41.446359 151.019853 44.488681 150.187079 
C 47.531003 149.354305 50.385211 147.944784 52.895814 146.035305 
C 55.406417 144.125826 57.526981 141.751703 59.141984 139.042275 
C 60.756987 136.332846 61.836559 133.338222 62.321887 130.221541 
L 37.986207 126.432 
L 62.615172 126.432 
z
" style="fill: #b0c4de"/>
   </g>
   <g id="patch_3">
    <path d="M 62.321887 130.221541 
C 62.419466 129.594906 62.492806 128.964735 62.541742 128.332437 
C 62.590677 127.70014 62.615172 127.066189 62.615172 126.432001 
L 37.986207 126.432 
L 62.321887 130.221541 
z
" style="fill: #f08080"/>
   </g>
   <g id="text_1">
    <!-- 98% -->
    <g transform="translate(12.139605 128.051113)scale(0.1 -0.1)">
     <defs>
      <path id="DejaVuSans-39" d="M 703 97 
L 703 672 
Q 941 559 1184 500 
Q 1428 441 1663 441 
Q 2288 441 2617 861 
Q 2947 1281 2994 2138 
Q 2813 1869 2534 1725 
Q 2256 1581 1919 1581 
Q 1219 1581 811 2004 
Q 403 2428 403 3163 
Q 403 3881 828 4315 
Q 1253 4750 1959 4750 
Q 2769 4750 3195 4129 
Q 3622 3509 3622 2328 
Q 3622 1225 3098 567 
Q 2575 -91 1691 -91 
Q 1453 -91 1209 -44 
Q 966 3 703 97 
z
M 1959 2075 
Q 2384 2075 2632 2365 
Q 2881 2656 2881 3163 
Q 2881 3666 2632 3958 
Q 2384 4250 1959 4250 
Q 1534 4250 1286 3958 
Q 1038 3666 1038 3163 
Q 1038 2656 1286 2365 
Q 1534 2075 1959 2075 
z
" transform="scale(0.015625)"/>
      <path id="DejaVuSans-38" d="M 2034 2216 
Q 1584 2216 1326 1975 
Q 1069 1734 1069 1313 
Q 1069 891 1326 650 
Q 1584 409 2034 409 
Q 2484 409 2743 651 
Q 3003 894 3003 1313 
Q 3003 1734 2745 1975 
Q 2488 2216 2034 2216 
z
M 1403 2484 
Q 997 2584 770 2862 
Q 544 3141 544 3541 
Q 544 4100 942 4425 
Q 1341 4750 2034 4750 
Q 2731 4750 3128 4425 
Q 3525 4100 3525 3541 
Q 3525 3141 3298 2862 
Q 3072 2584 2669 2484 
Q 3125 2378 3379 2068 
Q 3634 1759 3634 1313 
Q 3634 634 3220 271 
Q 2806 -91 2034 -91 
Q 1263 -91 848 271 
Q 434 634 434 1313 
Q 434 1759 690 2068 
Q 947 2378 1403 2484 
z
M 1172 3481 
Q 1172 3119 1398 2916 
Q 1625 2713 2034 2713 
Q 2441 2713 2670 2916 
Q 2900 3119 2900 3481 
Q 2900 3844 2670 4047 
Q 2441 4250 2034 4250 
Q 1625 4250 1398 4047 
Q 1172 3844 1172 3481 
z
" transform="scale(0.015625)"/>
      <path id="DejaVuSans-25" d="M 4653 2053 
Q 4381 2053 4226 1822 
Q 4072 1591 4072 1178 
Q 4072 772 4226 539 
Q 4381 306 4653 306 
Q 4919 306 5073 539 
Q 5228 772 5228 1178 
Q 5228 1588 5073 1820 
Q 4919 2053 4653 2053 
z
M 4653 2450 
Q 5147 2450 5437 2106 
Q 5728 1763 5728 1178 
Q 5728 594 5436 251 
Q 5144 -91 4653 -91 
Q 4153 -91 3862 251 
Q 3572 594 3572 1178 
Q 3572 1766 3864 2108 
Q 4156 2450 4653 2450 
z
M 1428 4353 
Q 1159 4353 1004 4120 
Q 850 3888 850 3481 
Q 850 3069 1003 2837 
Q 1156 2606 1428 2606 
Q 1700 2606 1854 2837 
Q 2009 3069 2009 3481 
Q 2009 3884 1853 4118 
Q 1697 4353 1428 4353 
z
M 4250 4750 
L 4750 4750 
L 1831 -91 
L 1331 -91 
L 4250 4750 
z
M 1428 4750 
Q 1922 4750 2215 4408 
Q 2509 4066 2509 3481 
Q 2509 2891 2217 2550 
Q 1925 2209 1428 2209 
Q 931 2209 642 2551 
Q 353 2894 353 3481 
Q 353 4063 643 4406 
Q 934 4750 1428 4750 
z
" transform="scale(0.015625)"/>
     </defs>
     <use xlink:href="#DejaVuSans-39"/>
     <use xlink:href="#DejaVuSans-38" x="63.623047"/>
     <use xlink:href="#DejaVuSans-25" x="127.246094"/>
    </g>
   </g>
   <g id="text_2">
    <!-- 2% -->
    <g transform="translate(44.787496 130.331637)scale(0.1 -0.1)">
     <defs>
      <path id="DejaVuSans-32" d="M 1228 531 
L 3431 531 
L 3431 0 
L 469 0 
L 469 531 
Q 828 903 1448 1529 
Q 2069 2156 2228 2338 
Q 2531 2678 2651 2914 
Q 2772 3150 2772 3378 
Q 2772 3750 2511 3984 
Q 2250 4219 1831 4219 
Q 1534 4219 1204 4116 
Q 875 4013 500 3803 
L 500 4441 
Q 881 4594 1212 4672 
Q 1544 4750 1819 4750 
Q 2544 4750 2975 4387 
Q 3406 4025 3406 3419 
Q 3406 3131 3298 2873 
Q 3191 2616 2906 2266 
Q 2828 2175 2409 1742 
Q 1991 1309 1228 531 
z
" transform="scale(0.015625)"/>
     </defs>
     <use xlink:href="#DejaVuSans-32"/>
     <use xlink:href="#DejaVuSans-25" x="63.623047"/>
    </g>
   </g>
   <g id="text_3">
    <!-- $M_s$=.98 -->
    <g transform="translate(23.226207 160.912552)scale(0.08 -0.08)">
     <defs>
      <path id="DejaVuSans-Oblique-4d" d="M 1081 4666 
L 2028 4666 
L 2572 1522 
L 4378 4666 
L 5350 4666 
L 4441 0 
L 3828 0 
L 4622 4091 
L 2791 897 
L 2175 897 
L 1581 4103 
L 788 0 
L 172 0 
L 1081 4666 
z
" transform="scale(0.015625)"/>
      <path id="DejaVuSans-Oblique-73" d="M 3200 3397 
L 3091 2853 
Q 2863 2978 2609 3040 
Q 2356 3103 2088 3103 
Q 1634 3103 1373 2948 
Q 1113 2794 1113 2528 
Q 1113 2219 1719 2053 
Q 1766 2041 1788 2034 
L 1972 1978 
Q 2547 1819 2739 1644 
Q 2931 1469 2931 1166 
Q 2931 609 2489 259 
Q 2047 -91 1331 -91 
Q 1053 -91 747 -37 
Q 441 16 72 128 
L 184 722 
Q 500 559 806 475 
Q 1113 391 1394 391 
Q 1816 391 2080 572 
Q 2344 753 2344 1031 
Q 2344 1331 1650 1516 
L 1591 1531 
L 1394 1581 
Q 956 1697 753 1886 
Q 550 2075 550 2369 
Q 550 2928 970 3256 
Q 1391 3584 2113 3584 
Q 2397 3584 2667 3537 
Q 2938 3491 3200 3397 
z
" transform="scale(0.015625)"/>
      <path id="DejaVuSans-3d" d="M 678 2906 
L 4684 2906 
L 4684 2381 
L 678 2381 
L 678 2906 
z
M 678 1631 
L 4684 1631 
L 4684 1100 
L 678 1100 
L 678 1631 
z
" transform="scale(0.015625)"/>
      <path id="DejaVuSans-2e" d="M 684 794 
L 1344 794 
L 1344 0 
L 684 0 
L 684 794 
z
" transform="scale(0.015625)"/>
     </defs>
     <use xlink:href="#DejaVuSans-Oblique-4d" transform="translate(0 0.78125)"/>
     <use xlink:href="#DejaVuSans-Oblique-73" transform="translate(86.279297 -15.625)scale(0.7)"/>
     <use xlink:href="#DejaVuSans-3d" transform="translate(125.483398 0.78125)"/>
     <use xlink:href="#DejaVuSans-2e" transform="translate(209.272461 0.78125)"/>
     <use xlink:href="#DejaVuSans-39" transform="translate(241.05957 0.78125)"/>
     <use xlink:href="#DejaVuSans-38" transform="translate(304.682617 0.78125)"/>
    </g>
   </g>
   <g id="text_4">
    <!-- base -->
    <g transform="translate(20.822082 89.645793)scale(0.144 -0.144)">
     <defs>
      <path id="DejaVuSans-62" d="M 3116 1747 
Q 3116 2381 2855 2742 
Q 2594 3103 2138 3103 
Q 1681 3103 1420 2742 
Q 1159 2381 1159 1747 
Q 1159 1113 1420 752 
Q 1681 391 2138 391 
Q 2594 391 2855 752 
Q 3116 1113 3116 1747 
z
M 1159 2969 
Q 1341 3281 1617 3432 
Q 1894 3584 2278 3584 
Q 2916 3584 3314 3078 
Q 3713 2572 3713 1747 
Q 3713 922 3314 415 
Q 2916 -91 2278 -91 
Q 1894 -91 1617 61 
Q 1341 213 1159 525 
L 1159 0 
L 581 0 
L 581 4863 
L 1159 4863 
L 1159 2969 
z
" transform="scale(0.015625)"/>
      <path id="DejaVuSans-61" d="M 2194 1759 
Q 1497 1759 1228 1600 
Q 959 1441 959 1056 
Q 959 750 1161 570 
Q 1363 391 1709 391 
Q 2188 391 2477 730 
Q 2766 1069 2766 1631 
L 2766 1759 
L 2194 1759 
z
M 3341 1997 
L 3341 0 
L 2766 0 
L 2766 531 
Q 2569 213 2275 61 
Q 1981 -91 1556 -91 
Q 1019 -91 701 211 
Q 384 513 384 1019 
Q 384 1609 779 1909 
Q 1175 2209 1959 2209 
L 2766 2209 
L 2766 2266 
Q 2766 2663 2505 2880 
Q 2244 3097 1772 3097 
Q 1472 3097 1187 3025 
Q 903 2953 641 2809 
L 641 3341 
Q 956 3463 1253 3523 
Q 1550 3584 1831 3584 
Q 2591 3584 2966 3190 
Q 3341 2797 3341 1997 
z
" transform="scale(0.015625)"/>
      <path id="DejaVuSans-73" d="M 2834 3397 
L 2834 2853 
Q 2591 2978 2328 3040 
Q 2066 3103 1784 3103 
Q 1356 3103 1142 2972 
Q 928 2841 928 2578 
Q 928 2378 1081 2264 
Q 1234 2150 1697 2047 
L 1894 2003 
Q 2506 1872 2764 1633 
Q 3022 1394 3022 966 
Q 3022 478 2636 193 
Q 2250 -91 1575 -91 
Q 1294 -91 989 -36 
Q 684 19 347 128 
L 347 722 
Q 666 556 975 473 
Q 1284 391 1588 391 
Q 1994 391 2212 530 
Q 2431 669 2431 922 
Q 2431 1156 2273 1281 
Q 2116 1406 1581 1522 
L 1381 1569 
Q 847 1681 609 1914 
Q 372 2147 372 2553 
Q 372 3047 722 3315 
Q 1072 3584 1716 3584 
Q 2034 3584 2315 3537 
Q 2597 3491 2834 3397 
z
" transform="scale(0.015625)"/>
      <path id="DejaVuSans-65" d="M 3597 1894 
L 3597 1613 
L 953 1613 
Q 991 1019 1311 708 
Q 1631 397 2203 397 
Q 2534 397 2845 478 
Q 3156 559 3463 722 
L 3463 178 
Q 3153 47 2828 -22 
Q 2503 -91 2169 -91 
Q 1331 -91 842 396 
Q 353 884 353 1716 
Q 353 2575 817 3079 
Q 1281 3584 2069 3584 
Q 2775 3584 3186 3129 
Q 3597 2675 3597 1894 
z
M 3022 2063 
Q 3016 2534 2758 2815 
Q 2500 3097 2075 3097 
Q 1594 3097 1305 2825 
Q 1016 2553 972 2059 
L 3022 2063 
z
" transform="scale(0.015625)"/>
     </defs>
     <use xlink:href="#DejaVuSans-62"/>
     <use xlink:href="#DejaVuSans-61" x="63.476562"/>
     <use xlink:href="#DejaVuSans-73" x="124.755859"/>
     <use xlink:href="#DejaVuSans-65" x="176.855469"/>
    </g>
   </g>
  </g>
  <g id="axes_2">
   <g id="matplotlib.axis_3"/>
   <g id="matplotlib.axis_4"/>
   <g id="patch_4">
    <path d="M 136.502069 126.432 
C 136.502069 126.320036 136.501305 126.208073 136.499779 126.09612 
C 136.498252 125.984166 136.495961 125.872224 136.492908 125.760302 
L 111.873103 126.432 
L 136.502069 126.432 
z
" style="fill: #b0c4de"/>
   </g>
   <g id="patch_5">
    <path d="M 136.492908 125.760302 
C 136.405087 122.541383 135.686825 119.370713 134.378876 116.428193 
C 133.070927 113.485673 131.198505 110.828027 128.867848 108.606047 
C 126.537192 106.384067 123.793231 104.640587 120.791653 103.47453 
C 117.790076 102.308474 114.588746 101.742318 111.369303 101.808188 
C 108.14986 101.874057 104.974366 102.570682 102.022995 103.858535 
C 99.071625 105.146389 96.401273 107.000645 94.163452 109.316096 
C 91.925631 111.631546 90.16348 114.363555 88.976983 117.357111 
C 87.790486 120.350667 87.202514 123.548062 87.246428 126.76788 
C 87.290343 129.987697 87.965298 133.167868 89.232996 136.127951 
C 90.500694 139.088035 92.336698 141.770969 94.636835 144.024527 
C 96.936972 146.278085 99.656902 148.058824 102.642297 149.265707 
C 105.627693 150.47259 108.821005 151.082351 112.041047 151.060393 
C 115.261089 151.038435 118.445788 150.385182 121.414447 149.137698 
C 124.383106 147.890213 127.078498 146.072547 129.347688 143.78783 
C 131.616878 141.503114 133.416123 138.79539 134.643335 135.818294 
C 135.870547 132.841197 136.502069 129.652118 136.502069 126.432001 
L 111.873103 126.432 
L 136.492908 125.760302 
z
" style="fill: #f08080"/>
   </g>
   <g id="text_5">
    <!-- 0% -->
    <g transform="translate(118.717077 128.989847)scale(0.1 -0.1)">
     <defs>
      <path id="DejaVuSans-30" d="M 2034 4250 
Q 1547 4250 1301 3770 
Q 1056 3291 1056 2328 
Q 1056 1369 1301 889 
Q 1547 409 2034 409 
Q 2525 409 2770 889 
Q 3016 1369 3016 2328 
Q 3016 3291 2770 3770 
Q 2525 4250 2034 4250 
z
M 2034 4750 
Q 2819 4750 3233 4129 
Q 3647 3509 3647 2328 
Q 3647 1150 3233 529 
Q 2819 -91 2034 -91 
Q 1250 -91 836 529 
Q 422 1150 422 2328 
Q 422 3509 836 4129 
Q 1250 4750 2034 4750 
z
" transform="scale(0.015625)"/>
     </defs>
     <use xlink:href="#DejaVuSans-30"/>
     <use xlink:href="#DejaVuSans-25" x="63.623047"/>
    </g>
   </g>
   <g id="text_6">
    <!-- 100% -->
    <g transform="translate(82.802567 129.392903)scale(0.1 -0.1)">
     <defs>
      <path id="DejaVuSans-31" d="M 794 531 
L 1825 531 
L 1825 4091 
L 703 3866 
L 703 4441 
L 1819 4666 
L 2450 4666 
L 2450 531 
L 3481 531 
L 3481 0 
L 794 0 
L 794 531 
z
" transform="scale(0.015625)"/>
     </defs>
     <use xlink:href="#DejaVuSans-31"/>
     <use xlink:href="#DejaVuSans-30" x="63.623047"/>
     <use xlink:href="#DejaVuSans-30" x="127.246094"/>
     <use xlink:href="#DejaVuSans-25" x="190.869141"/>
    </g>
   </g>
   <g id="text_7">
    <!-- $M_s$=0 -->
    <g transform="translate(100.953103 160.912552)scale(0.08 -0.08)">
     <use xlink:href="#DejaVuSans-Oblique-4d" transform="translate(0 0.78125)"/>
     <use xlink:href="#DejaVuSans-Oblique-73" transform="translate(86.279297 -15.625)scale(0.7)"/>
     <use xlink:href="#DejaVuSans-3d" transform="translate(125.483398 0.78125)"/>
     <use xlink:href="#DejaVuSans-30" transform="translate(209.272461 0.78125)"/>
    </g>
   </g>
   <g id="text_8">
    <!-- zwsp -->
    <g transform="translate(93.884353 89.645793)scale(0.144 -0.144)">
     <defs>
      <path id="DejaVuSans-7a" d="M 353 3500 
L 3084 3500 
L 3084 2975 
L 922 459 
L 3084 459 
L 3084 0 
L 275 0 
L 275 525 
L 2438 3041 
L 353 3041 
L 353 3500 
z
" transform="scale(0.015625)"/>
      <path id="DejaVuSans-77" d="M 269 3500 
L 844 3500 
L 1563 769 
L 2278 3500 
L 2956 3500 
L 3675 769 
L 4391 3500 
L 4966 3500 
L 4050 0 
L 3372 0 
L 2619 2869 
L 1863 0 
L 1184 0 
L 269 3500 
z
" transform="scale(0.015625)"/>
      <path id="DejaVuSans-70" d="M 1159 525 
L 1159 -1331 
L 581 -1331 
L 581 3500 
L 1159 3500 
L 1159 2969 
Q 1341 3281 1617 3432 
Q 1894 3584 2278 3584 
Q 2916 3584 3314 3078 
Q 3713 2572 3713 1747 
Q 3713 922 3314 415 
Q 2916 -91 2278 -91 
Q 1894 -91 1617 61 
Q 1341 213 1159 525 
z
M 3116 1747 
Q 3116 2381 2855 2742 
Q 2594 3103 2138 3103 
Q 1681 3103 1420 2742 
Q 1159 2381 1159 1747 
Q 1159 1113 1420 752 
Q 1681 391 2138 391 
Q 2594 391 2855 752 
Q 3116 1113 3116 1747 
z
" transform="scale(0.015625)"/>
     </defs>
     <use xlink:href="#DejaVuSans-7a"/>
     <use xlink:href="#DejaVuSans-77" x="52.490234"/>
     <use xlink:href="#DejaVuSans-73" x="134.277344"/>
     <use xlink:href="#DejaVuSans-70" x="186.376953"/>
    </g>
   </g>
  </g>
  <g id="axes_3">
   <g id="matplotlib.axis_5"/>
   <g id="matplotlib.axis_6"/>
   <g id="patch_6">
    <path d="M 210.388966 126.432 
C 210.388966 123.230897 209.76488 120.060284 208.551707 117.097975 
C 207.338535 114.135666 205.559387 111.438093 203.314042 109.156539 
C 201.068697 106.874986 198.399927 105.052916 195.457403 103.792514 
C 192.514879 102.532113 189.354654 101.85739 186.153961 101.806186 
C 182.953267 101.754981 179.773077 102.328271 176.791741 103.493903 
C 173.810406 104.659536 171.084718 106.395306 168.767541 108.603869 
C 166.450363 110.812431 164.585837 113.451714 163.278529 116.373701 
C 161.97122 119.295687 161.246033 122.444715 161.143638 125.64418 
C 161.041242 128.843645 161.563589 132.032598 162.681383 135.032198 
C 163.799178 138.031797 165.491126 140.784901 167.662341 143.13711 
C 169.833556 145.489319 172.442676 147.395823 175.343378 148.749704 
C 178.244079 150.103585 181.381104 150.87905 184.578521 151.032611 
C 187.775939 151.186171 190.97284 150.714901 193.989936 149.645231 
C 197.007032 148.575561 199.786847 146.927867 202.173485 144.794555 
C 204.560124 142.661244 206.50812 140.082953 207.908226 137.20428 
C 209.308333 134.325606 210.133878 131.201387 210.338565 128.006834 
L 185.76 126.432 
L 210.388966 126.432 
z
" style="fill: #b0c4de"/>
   </g>
   <g id="patch_7">
    <path d="M 210.338565 128.006834 
C 210.35536 127.744714 210.36796 127.482342 210.376362 127.219819 
C 210.384764 126.957295 210.388966 126.694654 210.388966 126.431996 
L 185.76 126.432 
L 210.338565 128.006834 
z
" style="fill: #f08080"/>
   </g>
   <g id="text_9">
    <!-- 99% -->
    <g transform="translate(159.876902 128.718683)scale(0.1 -0.1)">
     <use xlink:href="#DejaVuSans-39"/>
     <use xlink:href="#DejaVuSans-39" x="63.623047"/>
     <use xlink:href="#DejaVuSans-25" x="127.246094"/>
    </g>
   </g>
   <g id="text_10">
    <!-- 1% -->
    <g transform="translate(192.597786 129.664066)scale(0.1 -0.1)">
     <use xlink:href="#DejaVuSans-31"/>
     <use xlink:href="#DejaVuSans-25" x="63.623047"/>
    </g>
   </g>
   <g id="text_11">
    <!-- $M_s$=.99 -->
    <g transform="translate(171 160.912552)scale(0.08 -0.08)">
     <use xlink:href="#DejaVuSans-Oblique-4d" transform="translate(0 0.78125)"/>
     <use xlink:href="#DejaVuSans-Oblique-73" transform="translate(86.279297 -15.625)scale(0.7)"/>
     <use xlink:href="#DejaVuSans-3d" transform="translate(125.483398 0.78125)"/>
     <use xlink:href="#DejaVuSans-2e" transform="translate(209.272461 0.78125)"/>
     <use xlink:href="#DejaVuSans-39" transform="translate(241.05957 0.78125)"/>
     <use xlink:href="#DejaVuSans-39" transform="translate(304.682617 0.78125)"/>
    </g>
   </g>
   <g id="text_12">
    <!-- zwnj -->
    <g transform="translate(169.529625 89.645793)scale(0.144 -0.144)">
     <defs>
      <path id="DejaVuSans-6e" d="M 3513 2113 
L 3513 0 
L 2938 0 
L 2938 2094 
Q 2938 2591 2744 2837 
Q 2550 3084 2163 3084 
Q 1697 3084 1428 2787 
Q 1159 2491 1159 1978 
L 1159 0 
L 581 0 
L 581 3500 
L 1159 3500 
L 1159 2956 
Q 1366 3272 1645 3428 
Q 1925 3584 2291 3584 
Q 2894 3584 3203 3211 
Q 3513 2838 3513 2113 
z
" transform="scale(0.015625)"/>
      <path id="DejaVuSans-6a" d="M 603 3500 
L 1178 3500 
L 1178 -63 
Q 1178 -731 923 -1031 
Q 669 -1331 103 -1331 
L -116 -1331 
L -116 -844 
L 38 -844 
Q 366 -844 484 -692 
Q 603 -541 603 -63 
L 603 3500 
z
M 603 4863 
L 1178 4863 
L 1178 4134 
L 603 4134 
L 603 4863 
z
" transform="scale(0.015625)"/>
     </defs>
     <use xlink:href="#DejaVuSans-7a"/>
     <use xlink:href="#DejaVuSans-77" x="52.490234"/>
     <use xlink:href="#DejaVuSans-6e" x="134.277344"/>
     <use xlink:href="#DejaVuSans-6a" x="197.65625"/>
    </g>
   </g>
  </g>
  <g id="axes_4">
   <g id="matplotlib.axis_7"/>
   <g id="matplotlib.axis_8"/>
   <g id="patch_8">
    <path d="M 284.275862 126.432 
C 284.275862 123.231207 283.651897 120.060895 282.438953 117.098828 
C 281.226009 114.136761 279.447189 111.439354 277.202232 109.157853 
C 274.957275 106.876353 272.288939 105.054213 269.346841 103.793603 
C 266.404744 102.532993 263.24492 101.857923 260.044544 101.806245 
C 256.844168 101.754566 253.664196 102.327264 250.682931 103.492225 
C 247.701666 104.657187 244.97589 106.392225 242.658441 108.600053 
C 240.340992 110.807882 238.476008 113.44645 237.168061 116.367811 
C 235.860114 119.289172 235.134115 122.437685 235.030771 125.636809 
C 234.927428 128.835933 235.448709 132.024738 236.565384 135.024423 
C 237.68206 138.024108 239.372862 140.777542 241.542987 143.130335 
C 243.713111 145.483128 246.321224 147.39047 249.221087 148.745414 
C 252.12095 150.100357 255.25733 150.877096 258.454369 151.032078 
C 261.651408 151.187059 264.848213 150.717331 267.865537 149.649233 
C 270.88286 148.581134 273.663233 146.935008 276.050758 144.803153 
C 278.438283 142.671299 280.387485 140.094321 281.789072 137.216712 
C 283.190659 134.339104 284.017935 131.215673 284.224514 128.021553 
L 259.646897 126.432 
L 284.275862 126.432 
z
" style="fill: #b0c4de"/>
   </g>
   <g id="patch_9">
    <path d="M 284.224514 128.021553 
C 284.241624 127.756991 284.254462 127.492169 284.263022 127.227193 
C 284.271581 126.962216 284.275862 126.697119 284.275862 126.432004 
L 259.646897 126.432 
L 284.224514 128.021553 
z
" style="fill: #f08080"/>
   </g>
   <g id="text_13">
    <!-- 99% -->
    <g transform="translate(233.76394 128.71426)scale(0.1 -0.1)">
     <use xlink:href="#DejaVuSans-39"/>
     <use xlink:href="#DejaVuSans-39" x="63.623047"/>
     <use xlink:href="#DejaVuSans-25" x="127.246094"/>
    </g>
   </g>
   <g id="text_14">
    <!-- 1% -->
    <g transform="translate(266.48454 129.668491)scale(0.1 -0.1)">
     <use xlink:href="#DejaVuSans-31"/>
     <use xlink:href="#DejaVuSans-25" x="63.623047"/>
    </g>
   </g>
   <g id="text_15">
    <!-- $M_s$=.99 -->
    <g transform="translate(244.886897 160.912552)scale(0.08 -0.08)">
     <use xlink:href="#DejaVuSans-Oblique-4d" transform="translate(0 0.78125)"/>
     <use xlink:href="#DejaVuSans-Oblique-73" transform="translate(86.279297 -15.625)scale(0.7)"/>
     <use xlink:href="#DejaVuSans-3d" transform="translate(125.483398 0.78125)"/>
     <use xlink:href="#DejaVuSans-2e" transform="translate(209.272461 0.78125)"/>
     <use xlink:href="#DejaVuSans-39" transform="translate(241.05957 0.78125)"/>
     <use xlink:href="#DejaVuSans-39" transform="translate(304.682617 0.78125)"/>
    </g>
   </g>
   <g id="text_16">
    <!-- zwj -->
    <g transform="translate(247.979522 89.645793)scale(0.144 -0.144)">
     <use xlink:href="#DejaVuSans-7a"/>
     <use xlink:href="#DejaVuSans-77" x="52.490234"/>
     <use xlink:href="#DejaVuSans-6a" x="134.277344"/>
    </g>
   </g>
  </g>
  <g id="axes_5">
   <g id="matplotlib.axis_9"/>
   <g id="matplotlib.axis_10"/>
   <g id="patch_10">
    <path d="M 358.162759 126.432 
C 358.162759 123.224653 357.536235 120.047975 356.318461 117.080804 
C 355.100686 114.113633 353.314949 111.412715 351.061781 109.130104 
C 348.808613 106.847493 346.131106 105.026843 343.179994 103.770651 
C 340.228883 102.514458 337.060606 101.846748 333.853529 101.80511 
C 330.646452 101.763472 327.461908 102.348702 324.479178 103.527854 
C 321.496448 104.707006 318.772575 106.45753 316.460906 108.680874 
C 314.149236 110.904219 312.29398 113.557865 310.999582 116.49242 
C 309.705183 119.426974 308.996399 122.586316 308.913129 125.792582 
C 308.82986 128.998848 309.373699 132.190721 310.51403 135.188508 
C 311.65436 138.186294 313.369374 140.932663 315.562521 143.273001 
C 317.755668 145.61334 320.385005 147.50289 323.302509 148.835276 
C 326.220012 150.167662 329.369886 150.917402 332.574801 151.042288 
C 335.779716 151.167174 338.97838 150.664818 341.990718 149.563502 
C 345.003056 148.462185 347.771457 146.782969 350.14007 144.620389 
C 352.508683 142.457809 354.432208 139.853224 355.802357 136.953264 
C 357.172506 134.053303 357.963075 130.913429 358.129557 127.710405 
L 333.533793 126.432 
L 358.162759 126.432 
z
" style="fill: #b0c4de"/>
   </g>
   <g id="patch_11">
    <path d="M 358.129557 127.710405 
C 358.140622 127.497526 358.148923 127.284512 358.154457 127.071417 
C 358.159991 126.858322 358.162759 126.645165 358.162759 126.431998 
L 333.533793 126.432 
L 358.129557 127.710405 
z
" style="fill: #f08080"/>
   </g>
   <g id="text_17">
    <!-- 99% -->
    <g transform="translate(307.648114 128.807724)scale(0.1 -0.1)">
     <use xlink:href="#DejaVuSans-39"/>
     <use xlink:href="#DejaVuSans-39" x="63.623047"/>
     <use xlink:href="#DejaVuSans-25" x="127.246094"/>
    </g>
   </g>
   <g id="text_18">
    <!-- 1% -->
    <g transform="translate(340.37416 129.575025)scale(0.1 -0.1)">
     <use xlink:href="#DejaVuSans-31"/>
     <use xlink:href="#DejaVuSans-25" x="63.623047"/>
    </g>
   </g>
   <g id="text_19">
    <!-- $M_s$=.99 -->
    <g transform="translate(318.773793 160.912552)scale(0.08 -0.08)">
     <use xlink:href="#DejaVuSans-Oblique-4d" transform="translate(0 0.78125)"/>
     <use xlink:href="#DejaVuSans-Oblique-73" transform="translate(86.279297 -15.625)scale(0.7)"/>
     <use xlink:href="#DejaVuSans-3d" transform="translate(125.483398 0.78125)"/>
     <use xlink:href="#DejaVuSans-2e" transform="translate(209.272461 0.78125)"/>
     <use xlink:href="#DejaVuSans-39" transform="translate(241.05957 0.78125)"/>
     <use xlink:href="#DejaVuSans-39" transform="translate(304.682617 0.78125)"/>
    </g>
   </g>
   <g id="text_20">
    <!-- rlo -->
    <g transform="translate(324.168168 89.645793)scale(0.144 -0.144)">
     <defs>
      <path id="DejaVuSans-72" d="M 2631 2963 
Q 2534 3019 2420 3045 
Q 2306 3072 2169 3072 
Q 1681 3072 1420 2755 
Q 1159 2438 1159 1844 
L 1159 0 
L 581 0 
L 581 3500 
L 1159 3500 
L 1159 2956 
Q 1341 3275 1631 3429 
Q 1922 3584 2338 3584 
Q 2397 3584 2469 3576 
Q 2541 3569 2628 3553 
L 2631 2963 
z
" transform="scale(0.015625)"/>
      <path id="DejaVuSans-6c" d="M 603 4863 
L 1178 4863 
L 1178 0 
L 603 0 
L 603 4863 
z
" transform="scale(0.015625)"/>
      <path id="DejaVuSans-6f" d="M 1959 3097 
Q 1497 3097 1228 2736 
Q 959 2375 959 1747 
Q 959 1119 1226 758 
Q 1494 397 1959 397 
Q 2419 397 2687 759 
Q 2956 1122 2956 1747 
Q 2956 2369 2687 2733 
Q 2419 3097 1959 3097 
z
M 1959 3584 
Q 2709 3584 3137 3096 
Q 3566 2609 3566 1747 
Q 3566 888 3137 398 
Q 2709 -91 1959 -91 
Q 1206 -91 779 398 
Q 353 888 353 1747 
Q 353 2609 779 3096 
Q 1206 3584 1959 3584 
z
" transform="scale(0.015625)"/>
     </defs>
     <use xlink:href="#DejaVuSans-72"/>
     <use xlink:href="#DejaVuSans-6c" x="41.113281"/>
     <use xlink:href="#DejaVuSans-6f" x="68.896484"/>
    </g>
   </g>
  </g>
  <g id="axes_6">
   <g id="matplotlib.axis_11"/>
   <g id="matplotlib.axis_12"/>
   <g id="patch_12">
    <path d="M 62.615172 271.584 
C 62.615172 268.389923 61.993823 265.226136 60.785821 262.269304 
C 59.577818 259.312472 57.806073 256.618675 55.56952 254.338333 
C 53.332968 252.057992 50.674025 250.234355 47.741169 248.969256 
C 44.808312 247.704156 41.657165 247.021587 38.463689 246.959663 
C 35.270213 246.89774 32.094974 247.457636 29.115278 248.608087 
C 26.135582 249.758539 23.407942 251.477726 21.084669 253.669649 
C 18.761396 255.861573 16.886554 258.48466 15.564832 261.392439 
C 14.243111 264.300219 13.499579 267.43754 13.375755 270.629215 
C 13.251931 273.820891 13.750164 277.006387 14.842632 280.007827 
C 15.935099 283.009267 17.601082 285.769724 19.747553 288.135055 
C 21.894023 290.500387 24.48027 292.425731 27.361878 293.803577 
C 30.243487 295.181423 33.365803 295.985638 36.554478 296.171316 
C 39.743154 296.356993 42.937711 295.920612 45.959766 294.886538 
C 48.981821 293.852465 51.774058 292.240312 54.180558 290.140102 
C 56.587059 288.039892 58.562181 285.491458 59.995633 282.637103 
C 61.429086 279.782749 62.293683 276.67661 62.541145 273.492134 
L 37.986207 271.584 
L 62.615172 271.584 
z
" style="fill: #b0c4de"/>
   </g>
   <g id="patch_13">
    <path d="M 62.541145 273.492134 
C 62.565809 273.174739 62.584317 272.856896 62.596659 272.538784 
C 62.609 272.220672 62.615172 271.902351 62.615172 271.583999 
L 37.986207 271.584 
L 62.541145 273.492134 
z
" style="fill: #f08080"/>
   </g>
   <g id="text_21">
    <!-- 99% -->
    <g transform="translate(12.106655 273.770504)scale(0.1 -0.1)">
     <use xlink:href="#DejaVuSans-39"/>
     <use xlink:href="#DejaVuSans-39" x="63.623047"/>
     <use xlink:href="#DejaVuSans-25" x="127.246094"/>
    </g>
   </g>
   <g id="text_22">
    <!-- 1% -->
    <g transform="translate(44.820447 274.916246)scale(0.1 -0.1)">
     <use xlink:href="#DejaVuSans-31"/>
     <use xlink:href="#DejaVuSans-25" x="63.623047"/>
    </g>
   </g>
   <g id="text_23">
    <!-- $M_s$=.99 -->
    <g transform="translate(23.226207 306.064552)scale(0.08 -0.08)">
     <use xlink:href="#DejaVuSans-Oblique-4d" transform="translate(0 0.78125)"/>
     <use xlink:href="#DejaVuSans-Oblique-73" transform="translate(86.279297 -15.625)scale(0.7)"/>
     <use xlink:href="#DejaVuSans-3d" transform="translate(125.483398 0.78125)"/>
     <use xlink:href="#DejaVuSans-2e" transform="translate(209.272461 0.78125)"/>
     <use xlink:href="#DejaVuSans-39" transform="translate(241.05957 0.78125)"/>
     <use xlink:href="#DejaVuSans-39" transform="translate(304.682617 0.78125)"/>
    </g>
   </g>
   <g id="text_24">
    <!-- bksp -->
    <g transform="translate(20.924457 234.797793)scale(0.144 -0.144)">
     <defs>
      <path id="DejaVuSans-6b" d="M 581 4863 
L 1159 4863 
L 1159 1991 
L 2875 3500 
L 3609 3500 
L 1753 1863 
L 3688 0 
L 2938 0 
L 1159 1709 
L 1159 0 
L 581 0 
L 581 4863 
z
" transform="scale(0.015625)"/>
     </defs>
     <use xlink:href="#DejaVuSans-62"/>
     <use xlink:href="#DejaVuSans-6b" x="63.476562"/>
     <use xlink:href="#DejaVuSans-73" x="121.386719"/>
     <use xlink:href="#DejaVuSans-70" x="173.486328"/>
    </g>
   </g>
  </g>
  <g id="axes_7">
   <g id="matplotlib.axis_13"/>
   <g id="matplotlib.axis_14"/>
   <g id="patch_14">
    <path d="M 136.502069 271.584 
C 136.502069 268.390455 135.880926 265.227184 134.673314 262.270766 
C 133.465702 259.314349 131.694517 256.620838 129.458629 254.340589 
C 127.222741 252.06034 124.564542 250.236586 121.632416 248.971133 
C 118.700291 247.70568 115.549832 247.022519 112.356903 246.959787 
C 109.163973 246.897054 105.989112 247.455939 103.009543 248.605244 
C 100.029974 249.754548 97.30219 251.472482 94.978461 253.663147 
C 92.654731 255.853811 90.779113 258.475673 89.456307 261.382375 
C 88.1335 264.289076 87.388586 267.425508 87.263145 270.616588 
C 87.137704 273.807669 87.634116 276.992897 88.72467 279.994467 
C 89.815223 282.996037 91.479242 285.757041 93.623838 288.123355 
C 95.768434 290.489668 98.352946 292.416427 101.233102 293.796076 
C 104.113258 295.175725 107.234452 295.982106 110.422453 296.170207 
C 113.610454 296.358307 116.804818 295.92456 119.827231 294.893178 
C 122.849645 293.861796 125.642803 292.252334 128.050787 290.154635 
C 130.458772 288.056936 132.435927 285.510771 133.871886 282.658271 
C 135.307846 279.805772 136.175383 276.701021 136.42607 273.51733 
L 111.873103 271.584 
L 136.502069 271.584 
z
" style="fill: #b0c4de"/>
   </g>
   <g id="patch_15">
    <path d="M 136.42607 273.51733 
C 136.451391 273.195762 136.470392 272.873727 136.483062 272.551412 
C 136.495732 272.229098 136.502069 271.906565 136.502069 271.584001 
L 111.873103 271.584 
L 136.42607 273.51733 
z
" style="fill: #f08080"/>
   </g>
   <g id="text_25">
    <!-- 99% -->
    <g transform="translate(85.993847 273.762928)scale(0.1 -0.1)">
     <use xlink:href="#DejaVuSans-39"/>
     <use xlink:href="#DejaVuSans-39" x="63.623047"/>
     <use xlink:href="#DejaVuSans-25" x="127.246094"/>
    </g>
   </g>
   <g id="text_26">
    <!-- 1% -->
    <g transform="translate(118.707047 274.923822)scale(0.1 -0.1)">
     <use xlink:href="#DejaVuSans-31"/>
     <use xlink:href="#DejaVuSans-25" x="63.623047"/>
    </g>
   </g>
   <g id="text_27">
    <!-- $M_s$=.99 -->
    <g transform="translate(97.113103 306.064552)scale(0.08 -0.08)">
     <use xlink:href="#DejaVuSans-Oblique-4d" transform="translate(0 0.78125)"/>
     <use xlink:href="#DejaVuSans-Oblique-73" transform="translate(86.279297 -15.625)scale(0.7)"/>
     <use xlink:href="#DejaVuSans-3d" transform="translate(125.483398 0.78125)"/>
     <use xlink:href="#DejaVuSans-2e" transform="translate(209.272461 0.78125)"/>
     <use xlink:href="#DejaVuSans-39" transform="translate(241.05957 0.78125)"/>
     <use xlink:href="#DejaVuSans-39" transform="translate(304.682617 0.78125)"/>
    </g>
   </g>
   <g id="text_28">
    <!-- del -->
    <g transform="translate(100.871728 234.797793)scale(0.144 -0.144)">
     <defs>
      <path id="DejaVuSans-64" d="M 2906 2969 
L 2906 4863 
L 3481 4863 
L 3481 0 
L 2906 0 
L 2906 525 
Q 2725 213 2448 61 
Q 2172 -91 1784 -91 
Q 1150 -91 751 415 
Q 353 922 353 1747 
Q 353 2572 751 3078 
Q 1150 3584 1784 3584 
Q 2172 3584 2448 3432 
Q 2725 3281 2906 2969 
z
M 947 1747 
Q 947 1113 1208 752 
Q 1469 391 1925 391 
Q 2381 391 2643 752 
Q 2906 1113 2906 1747 
Q 2906 2381 2643 2742 
Q 2381 3103 1925 3103 
Q 1469 3103 1208 2742 
Q 947 2381 947 1747 
z
" transform="scale(0.015625)"/>
     </defs>
     <use xlink:href="#DejaVuSans-64"/>
     <use xlink:href="#DejaVuSans-65" x="63.476562"/>
     <use xlink:href="#DejaVuSans-6c" x="125"/>
    </g>
   </g>
  </g>
  <g id="axes_8">
   <g id="matplotlib.axis_15"/>
   <g id="matplotlib.axis_16"/>
   <g id="patch_16">
    <path d="M 210.388966 271.584 
C 210.388966 268.385436 209.765869 265.217289 208.554566 262.256959 
C 207.343263 259.296628 205.566792 256.600417 203.324625 254.319299 
C 201.082458 252.038181 198.41724 250.215541 195.478209 248.953437 
C 192.539177 247.691333 189.382231 247.01377 186.184141 246.958687 
C 182.986051 246.903604 179.807644 247.472048 176.826892 248.632191 
C 173.84614 249.792334 171.119737 251.52211 168.800344 253.72466 
C 166.480951 255.927211 164.612683 258.560646 163.300153 261.477506 
C 161.987622 264.394367 161.255793 267.539177 161.145643 270.735844 
C 161.035493 273.932511 161.549117 277.120236 162.657756 280.120525 
C 163.766394 283.120814 165.448961 285.876602 167.611243 288.233581 
C 169.773524 290.590561 172.374394 292.503902 175.268219 293.86647 
C 178.162044 295.229038 181.293784 296.014916 184.48808 296.180101 
C 187.682376 296.345285 190.878474 295.886633 193.89741 294.829828 
C 196.916346 293.773022 199.700701 292.138163 202.094568 290.016792 
C 204.488435 287.895421 206.446283 285.327887 207.858484 282.457957 
C 209.270685 279.588026 210.11038 276.470284 210.330549 273.279306 
L 185.76 271.584 
L 210.388966 271.584 
z
" style="fill: #b0c4de"/>
   </g>
   <g id="patch_17">
    <path d="M 210.330549 273.279306 
C 210.350014 272.997195 210.364619 272.714769 210.374357 272.432155 
C 210.384095 272.14954 210.388966 271.866779 210.388966 271.583997 
L 185.76 271.584 
L 210.330549 273.279306 
z
" style="fill: #f08080"/>
   </g>
   <g id="text_29">
    <!-- 99% -->
    <g transform="translate(159.878105 273.834481)scale(0.1 -0.1)">
     <use xlink:href="#DejaVuSans-39"/>
     <use xlink:href="#DejaVuSans-39" x="63.623047"/>
     <use xlink:href="#DejaVuSans-25" x="127.246094"/>
    </g>
   </g>
   <g id="text_30">
    <!-- 1% -->
    <g transform="translate(192.596583 274.852268)scale(0.1 -0.1)">
     <use xlink:href="#DejaVuSans-31"/>
     <use xlink:href="#DejaVuSans-25" x="63.623047"/>
    </g>
   </g>
   <g id="text_31">
    <!-- $M_s$=.99 -->
    <g transform="translate(171 306.064552)scale(0.08 -0.08)">
     <use xlink:href="#DejaVuSans-Oblique-4d" transform="translate(0 0.78125)"/>
     <use xlink:href="#DejaVuSans-Oblique-73" transform="translate(86.279297 -15.625)scale(0.7)"/>
     <use xlink:href="#DejaVuSans-3d" transform="translate(125.483398 0.78125)"/>
     <use xlink:href="#DejaVuSans-2e" transform="translate(209.272461 0.78125)"/>
     <use xlink:href="#DejaVuSans-39" transform="translate(241.05957 0.78125)"/>
     <use xlink:href="#DejaVuSans-39" transform="translate(304.682617 0.78125)"/>
    </g>
   </g>
   <g id="text_32">
    <!-- homo -->
    <g transform="translate(165.37275 234.797793)scale(0.144 -0.144)">
     <defs>
      <path id="DejaVuSans-68" d="M 3513 2113 
L 3513 0 
L 2938 0 
L 2938 2094 
Q 2938 2591 2744 2837 
Q 2550 3084 2163 3084 
Q 1697 3084 1428 2787 
Q 1159 2491 1159 1978 
L 1159 0 
L 581 0 
L 581 4863 
L 1159 4863 
L 1159 2956 
Q 1366 3272 1645 3428 
Q 1925 3584 2291 3584 
Q 2894 3584 3203 3211 
Q 3513 2838 3513 2113 
z
" transform="scale(0.015625)"/>
      <path id="DejaVuSans-6d" d="M 3328 2828 
Q 3544 3216 3844 3400 
Q 4144 3584 4550 3584 
Q 5097 3584 5394 3201 
Q 5691 2819 5691 2113 
L 5691 0 
L 5113 0 
L 5113 2094 
Q 5113 2597 4934 2840 
Q 4756 3084 4391 3084 
Q 3944 3084 3684 2787 
Q 3425 2491 3425 1978 
L 3425 0 
L 2847 0 
L 2847 2094 
Q 2847 2600 2669 2842 
Q 2491 3084 2119 3084 
Q 1678 3084 1418 2786 
Q 1159 2488 1159 1978 
L 1159 0 
L 581 0 
L 581 3500 
L 1159 3500 
L 1159 2956 
Q 1356 3278 1631 3431 
Q 1906 3584 2284 3584 
Q 2666 3584 2933 3390 
Q 3200 3197 3328 2828 
z
" transform="scale(0.015625)"/>
     </defs>
     <use xlink:href="#DejaVuSans-68"/>
     <use xlink:href="#DejaVuSans-6f" x="63.378906"/>
     <use xlink:href="#DejaVuSans-6d" x="124.560547"/>
     <use xlink:href="#DejaVuSans-6f" x="221.972656"/>
    </g>
   </g>
  </g>
  <g id="axes_9">
   <g id="matplotlib.axis_17"/>
   <g id="matplotlib.axis_18"/>
   <g id="patch_18">
    <path d="M 284.275862 271.584 
C 284.275862 268.372859 283.647856 265.192496 282.427281 262.222374 
C 281.206705 259.252252 279.416959 256.549307 277.159035 254.266063 
C 274.90111 251.982818 272.218291 250.163043 269.261965 248.909424 
C 266.305638 247.655805 263.132476 246.992373 259.921534 246.956566 
C 256.710592 246.920758 253.523424 247.513261 250.539876 248.700641 
C 247.556328 249.88802 244.833595 251.647514 242.525314 253.879838 
C 240.217033 256.112162 238.367455 258.774522 237.080948 261.716686 
C 235.79444 264.658849 235.095666 267.824416 235.024056 271.034759 
C 234.952446 274.245102 235.509372 277.438679 236.663408 280.435282 
C 237.817444 283.431885 239.546467 286.174069 241.752913 288.507099 
C 243.959358 290.840129 246.600928 292.71928 249.528563 294.038515 
C 252.456198 295.357751 255.613776 296.091781 258.823121 296.199185 
C 262.032465 296.30659 265.232054 295.78531 268.241339 294.66476 
C 271.250624 293.544211 274.011919 291.845873 276.369408 289.665581 
C 278.726897 287.485288 280.635387 284.864837 281.987186 281.952095 
C 283.338986 279.039353 284.10818 275.890156 284.251365 272.682209 
L 259.646897 271.584 
L 284.275862 271.584 
z
" style="fill: #b0c4de"/>
   </g>
   <g id="patch_19">
    <path d="M 284.251365 272.682209 
C 284.25953 272.499293 284.265654 272.316291 284.269737 272.133239 
C 284.27382 271.950187 284.275862 271.767094 284.275862 271.583996 
L 259.646897 271.584 
L 284.251365 272.682209 
z
" style="fill: #f08080"/>
   </g>
   <g id="text_33">
    <!-- 99% -->
    <g transform="translate(233.759911 274.01383)scale(0.1 -0.1)">
     <use xlink:href="#DejaVuSans-39"/>
     <use xlink:href="#DejaVuSans-39" x="63.623047"/>
     <use xlink:href="#DejaVuSans-25" x="127.246094"/>
    </g>
   </g>
   <g id="text_34">
    <!-- 1% -->
    <g transform="translate(266.48857 274.672918)scale(0.1 -0.1)">
     <use xlink:href="#DejaVuSans-31"/>
     <use xlink:href="#DejaVuSans-25" x="63.623047"/>
    </g>
   </g>
   <g id="text_35">
    <!-- $M_s$=.99 -->
    <g transform="translate(244.886897 306.064552)scale(0.08 -0.08)">
     <use xlink:href="#DejaVuSans-Oblique-4d" transform="translate(0 0.78125)"/>
     <use xlink:href="#DejaVuSans-Oblique-73" transform="translate(86.279297 -15.625)scale(0.7)"/>
     <use xlink:href="#DejaVuSans-3d" transform="translate(125.483398 0.78125)"/>
     <use xlink:href="#DejaVuSans-2e" transform="translate(209.272461 0.78125)"/>
     <use xlink:href="#DejaVuSans-39" transform="translate(241.05957 0.78125)"/>
     <use xlink:href="#DejaVuSans-39" transform="translate(304.682617 0.78125)"/>
    </g>
   </g>
   <g id="text_36">
    <!-- zwsp2 -->
    <g transform="translate(237.077147 234.797793)scale(0.144 -0.144)">
     <use xlink:href="#DejaVuSans-7a"/>
     <use xlink:href="#DejaVuSans-77" x="52.490234"/>
     <use xlink:href="#DejaVuSans-73" x="134.277344"/>
     <use xlink:href="#DejaVuSans-70" x="186.376953"/>
     <use xlink:href="#DejaVuSans-32" x="249.853516"/>
    </g>
   </g>
  </g>
  <g id="axes_10">
   <g id="matplotlib.axis_19"/>
   <g id="matplotlib.axis_20"/>
   <g id="patch_20">
    <path d="M 358.162759 271.584 
C 358.162759 268.38055 357.537757 265.207657 356.322856 262.24352 
C 355.107955 259.279383 353.326331 256.580552 351.078047 254.298598 
C 348.829762 252.016645 346.157709 250.195106 343.211957 248.936283 
C 340.266204 247.67746 337.102952 247.005368 333.899855 246.957755 
C 330.696759 246.910142 327.514927 247.487915 324.533061 248.658626 
C 321.551194 249.829337 318.82618 251.570651 316.511063 253.78477 
C 314.195945 255.998889 312.334892 258.643574 311.032425 261.570291 
C 309.729958 264.497008 309.010925 267.649922 308.915709 270.851957 
C 308.820493 274.053991 309.350911 277.244059 310.477173 280.242997 
C 311.603435 283.241934 313.304054 285.992529 315.483519 288.340299 
C 317.662984 290.688069 320.279715 292.588225 323.186751 293.934048 
C 326.093786 295.279871 329.235664 296.045687 332.43593 296.188484 
C 335.636196 296.331281 338.833795 295.848336 341.849141 294.766772 
C 344.864487 293.685208 347.640054 292.025659 350.019959 289.88133 
C 352.399863 287.737001 354.338701 285.148801 355.727584 282.26209 
C 357.116466 279.375379 357.928894 276.24523 358.119242 273.04744 
L 333.533793 271.584 
L 358.162759 271.584 
z
" style="fill: #b0c4de"/>
   </g>
   <g id="patch_21">
    <path d="M 358.119242 273.04744 
C 358.133743 272.803817 358.144623 272.559991 358.151877 272.316044 
C 358.159131 272.072098 358.162759 271.828057 358.162759 271.584002 
L 333.533793 271.584 
L 358.119242 273.04744 
z
" style="fill: #f08080"/>
   </g>
   <g id="text_37">
    <!-- 99% -->
    <g transform="translate(307.649662 273.904149)scale(0.1 -0.1)">
     <use xlink:href="#DejaVuSans-39"/>
     <use xlink:href="#DejaVuSans-39" x="63.623047"/>
     <use xlink:href="#DejaVuSans-25" x="127.246094"/>
    </g>
   </g>
   <g id="text_38">
    <!-- 1% -->
    <g transform="translate(340.372612 274.782602)scale(0.1 -0.1)">
     <use xlink:href="#DejaVuSans-31"/>
     <use xlink:href="#DejaVuSans-25" x="63.623047"/>
    </g>
   </g>
   <g id="text_39">
    <!-- $M_s$=.99 -->
    <g transform="translate(318.773793 306.064552)scale(0.08 -0.08)">
     <use xlink:href="#DejaVuSans-Oblique-4d" transform="translate(0 0.78125)"/>
     <use xlink:href="#DejaVuSans-Oblique-73" transform="translate(86.279297 -15.625)scale(0.7)"/>
     <use xlink:href="#DejaVuSans-3d" transform="translate(125.483398 0.78125)"/>
     <use xlink:href="#DejaVuSans-2e" transform="translate(209.272461 0.78125)"/>
     <use xlink:href="#DejaVuSans-39" transform="translate(241.05957 0.78125)"/>
     <use xlink:href="#DejaVuSans-39" transform="translate(304.682617 0.78125)"/>
    </g>
   </g>
   <g id="text_40">
    <!-- homo2 -->
    <g transform="translate(308.565543 234.797793)scale(0.144 -0.144)">
     <use xlink:href="#DejaVuSans-68"/>
     <use xlink:href="#DejaVuSans-6f" x="63.378906"/>
     <use xlink:href="#DejaVuSans-6d" x="124.560547"/>
     <use xlink:href="#DejaVuSans-6f" x="221.972656"/>
     <use xlink:href="#DejaVuSans-32" x="283.154297"/>
    </g>
   </g>
   <g id="legend_1">
    <g id="patch_22">
     <path d="M 87.219375 386.650207 
L 284.300625 386.650207 
Q 286.300625 386.650207 286.300625 384.650207 
L 286.300625 356.293957 
Q 286.300625 354.293957 284.300625 354.293957 
L 87.219375 354.293957 
Q 85.219375 354.293957 85.219375 356.293957 
L 85.219375 384.650207 
Q 85.219375 386.650207 87.219375 386.650207 
z
" style="fill: #e5e5e5; opacity: 0.8; stroke: #cccccc; stroke-width: 0.5; stroke-linejoin: miter"/>
    </g>
    <g id="patch_23">
     <path d="M 89.219375 365.892394 
L 109.219375 365.892394 
L 109.219375 358.892394 
L 89.219375 358.892394 
z
" style="fill: #b0c4de"/>
    </g>
    <g id="text_41">
     <!-- Perturbed Target Present in SERP -->
     <g transform="translate(117.219375 365.892394)scale(0.1 -0.1)">
      <defs>
       <path id="DejaVuSans-50" d="M 1259 4147 
L 1259 2394 
L 2053 2394 
Q 2494 2394 2734 2622 
Q 2975 2850 2975 3272 
Q 2975 3691 2734 3919 
Q 2494 4147 2053 4147 
L 1259 4147 
z
M 628 4666 
L 2053 4666 
Q 2838 4666 3239 4311 
Q 3641 3956 3641 3272 
Q 3641 2581 3239 2228 
Q 2838 1875 2053 1875 
L 1259 1875 
L 1259 0 
L 628 0 
L 628 4666 
z
" transform="scale(0.015625)"/>
       <path id="DejaVuSans-74" d="M 1172 4494 
L 1172 3500 
L 2356 3500 
L 2356 3053 
L 1172 3053 
L 1172 1153 
Q 1172 725 1289 603 
Q 1406 481 1766 481 
L 2356 481 
L 2356 0 
L 1766 0 
Q 1100 0 847 248 
Q 594 497 594 1153 
L 594 3053 
L 172 3053 
L 172 3500 
L 594 3500 
L 594 4494 
L 1172 4494 
z
" transform="scale(0.015625)"/>
       <path id="DejaVuSans-75" d="M 544 1381 
L 544 3500 
L 1119 3500 
L 1119 1403 
Q 1119 906 1312 657 
Q 1506 409 1894 409 
Q 2359 409 2629 706 
Q 2900 1003 2900 1516 
L 2900 3500 
L 3475 3500 
L 3475 0 
L 2900 0 
L 2900 538 
Q 2691 219 2414 64 
Q 2138 -91 1772 -91 
Q 1169 -91 856 284 
Q 544 659 544 1381 
z
M 1991 3584 
L 1991 3584 
z
" transform="scale(0.015625)"/>
       <path id="DejaVuSans-20" transform="scale(0.015625)"/>
       <path id="DejaVuSans-54" d="M -19 4666 
L 3928 4666 
L 3928 4134 
L 2272 4134 
L 2272 0 
L 1638 0 
L 1638 4134 
L -19 4134 
L -19 4666 
z
" transform="scale(0.015625)"/>
       <path id="DejaVuSans-67" d="M 2906 1791 
Q 2906 2416 2648 2759 
Q 2391 3103 1925 3103 
Q 1463 3103 1205 2759 
Q 947 2416 947 1791 
Q 947 1169 1205 825 
Q 1463 481 1925 481 
Q 2391 481 2648 825 
Q 2906 1169 2906 1791 
z
M 3481 434 
Q 3481 -459 3084 -895 
Q 2688 -1331 1869 -1331 
Q 1566 -1331 1297 -1286 
Q 1028 -1241 775 -1147 
L 775 -588 
Q 1028 -725 1275 -790 
Q 1522 -856 1778 -856 
Q 2344 -856 2625 -561 
Q 2906 -266 2906 331 
L 2906 616 
Q 2728 306 2450 153 
Q 2172 0 1784 0 
Q 1141 0 747 490 
Q 353 981 353 1791 
Q 353 2603 747 3093 
Q 1141 3584 1784 3584 
Q 2172 3584 2450 3431 
Q 2728 3278 2906 2969 
L 2906 3500 
L 3481 3500 
L 3481 434 
z
" transform="scale(0.015625)"/>
       <path id="DejaVuSans-69" d="M 603 3500 
L 1178 3500 
L 1178 0 
L 603 0 
L 603 3500 
z
M 603 4863 
L 1178 4863 
L 1178 4134 
L 603 4134 
L 603 4863 
z
" transform="scale(0.015625)"/>
       <path id="DejaVuSans-53" d="M 3425 4513 
L 3425 3897 
Q 3066 4069 2747 4153 
Q 2428 4238 2131 4238 
Q 1616 4238 1336 4038 
Q 1056 3838 1056 3469 
Q 1056 3159 1242 3001 
Q 1428 2844 1947 2747 
L 2328 2669 
Q 3034 2534 3370 2195 
Q 3706 1856 3706 1288 
Q 3706 609 3251 259 
Q 2797 -91 1919 -91 
Q 1588 -91 1214 -16 
Q 841 59 441 206 
L 441 856 
Q 825 641 1194 531 
Q 1563 422 1919 422 
Q 2459 422 2753 634 
Q 3047 847 3047 1241 
Q 3047 1584 2836 1778 
Q 2625 1972 2144 2069 
L 1759 2144 
Q 1053 2284 737 2584 
Q 422 2884 422 3419 
Q 422 4038 858 4394 
Q 1294 4750 2059 4750 
Q 2388 4750 2728 4690 
Q 3069 4631 3425 4513 
z
" transform="scale(0.015625)"/>
       <path id="DejaVuSans-45" d="M 628 4666 
L 3578 4666 
L 3578 4134 
L 1259 4134 
L 1259 2753 
L 3481 2753 
L 3481 2222 
L 1259 2222 
L 1259 531 
L 3634 531 
L 3634 0 
L 628 0 
L 628 4666 
z
" transform="scale(0.015625)"/>
       <path id="DejaVuSans-52" d="M 2841 2188 
Q 3044 2119 3236 1894 
Q 3428 1669 3622 1275 
L 4263 0 
L 3584 0 
L 2988 1197 
Q 2756 1666 2539 1819 
Q 2322 1972 1947 1972 
L 1259 1972 
L 1259 0 
L 628 0 
L 628 4666 
L 2053 4666 
Q 2853 4666 3247 4331 
Q 3641 3997 3641 3322 
Q 3641 2881 3436 2590 
Q 3231 2300 2841 2188 
z
M 1259 4147 
L 1259 2491 
L 2053 2491 
Q 2509 2491 2742 2702 
Q 2975 2913 2975 3322 
Q 2975 3731 2742 3939 
Q 2509 4147 2053 4147 
L 1259 4147 
z
" transform="scale(0.015625)"/>
      </defs>
      <use xlink:href="#DejaVuSans-50"/>
      <use xlink:href="#DejaVuSans-65" x="56.677734"/>
      <use xlink:href="#DejaVuSans-72" x="118.201172"/>
      <use xlink:href="#DejaVuSans-74" x="159.314453"/>
      <use xlink:href="#DejaVuSans-75" x="198.523438"/>
      <use xlink:href="#DejaVuSans-72" x="261.902344"/>
      <use xlink:href="#DejaVuSans-62" x="303.015625"/>
      <use xlink:href="#DejaVuSans-65" x="366.492188"/>
      <use xlink:href="#DejaVuSans-64" x="428.015625"/>
      <use xlink:href="#DejaVuSans-20" x="491.492188"/>
      <use xlink:href="#DejaVuSans-54" x="523.279297"/>
      <use xlink:href="#DejaVuSans-61" x="567.863281"/>
      <use xlink:href="#DejaVuSans-72" x="629.142578"/>
      <use xlink:href="#DejaVuSans-67" x="668.505859"/>
      <use xlink:href="#DejaVuSans-65" x="731.982422"/>
      <use xlink:href="#DejaVuSans-74" x="793.505859"/>
      <use xlink:href="#DejaVuSans-20" x="832.714844"/>
      <use xlink:href="#DejaVuSans-50" x="864.501953"/>
      <use xlink:href="#DejaVuSans-72" x="923.054688"/>
      <use xlink:href="#DejaVuSans-65" x="961.917969"/>
      <use xlink:href="#DejaVuSans-73" x="1023.441406"/>
      <use xlink:href="#DejaVuSans-65" x="1075.541016"/>
      <use xlink:href="#DejaVuSans-6e" x="1137.064453"/>
      <use xlink:href="#DejaVuSans-74" x="1200.443359"/>
      <use xlink:href="#DejaVuSans-20" x="1239.652344"/>
      <use xlink:href="#DejaVuSans-69" x="1271.439453"/>
      <use xlink:href="#DejaVuSans-6e" x="1299.222656"/>
      <use xlink:href="#DejaVuSans-20" x="1362.601562"/>
      <use xlink:href="#DejaVuSans-53" x="1394.388672"/>
      <use xlink:href="#DejaVuSans-45" x="1457.865234"/>
      <use xlink:href="#DejaVuSans-52" x="1521.048828"/>
      <use xlink:href="#DejaVuSans-50" x="1590.53125"/>
     </g>
    </g>
    <g id="patch_24">
     <path d="M 89.219375 380.570519 
L 109.219375 380.570519 
L 109.219375 373.570519 
L 89.219375 373.570519 
z
" style="fill: #f08080"/>
    </g>
    <g id="text_42">
     <!-- Perturbed Target Absent in SERP -->
     <g transform="translate(117.219375 380.570519)scale(0.1 -0.1)">
      <defs>
       <path id="DejaVuSans-41" d="M 2188 4044 
L 1331 1722 
L 3047 1722 
L 2188 4044 
z
M 1831 4666 
L 2547 4666 
L 4325 0 
L 3669 0 
L 3244 1197 
L 1141 1197 
L 716 0 
L 50 0 
L 1831 4666 
z
" transform="scale(0.015625)"/>
      </defs>
      <use xlink:href="#DejaVuSans-50"/>
      <use xlink:href="#DejaVuSans-65" x="56.677734"/>
      <use xlink:href="#DejaVuSans-72" x="118.201172"/>
      <use xlink:href="#DejaVuSans-74" x="159.314453"/>
      <use xlink:href="#DejaVuSans-75" x="198.523438"/>
      <use xlink:href="#DejaVuSans-72" x="261.902344"/>
      <use xlink:href="#DejaVuSans-62" x="303.015625"/>
      <use xlink:href="#DejaVuSans-65" x="366.492188"/>
      <use xlink:href="#DejaVuSans-64" x="428.015625"/>
      <use xlink:href="#DejaVuSans-20" x="491.492188"/>
      <use xlink:href="#DejaVuSans-54" x="523.279297"/>
      <use xlink:href="#DejaVuSans-61" x="567.863281"/>
      <use xlink:href="#DejaVuSans-72" x="629.142578"/>
      <use xlink:href="#DejaVuSans-67" x="668.505859"/>
      <use xlink:href="#DejaVuSans-65" x="731.982422"/>
      <use xlink:href="#DejaVuSans-74" x="793.505859"/>
      <use xlink:href="#DejaVuSans-20" x="832.714844"/>
      <use xlink:href="#DejaVuSans-41" x="864.501953"/>
      <use xlink:href="#DejaVuSans-62" x="932.910156"/>
      <use xlink:href="#DejaVuSans-73" x="996.386719"/>
      <use xlink:href="#DejaVuSans-65" x="1048.486328"/>
      <use xlink:href="#DejaVuSans-6e" x="1110.009766"/>
      <use xlink:href="#DejaVuSans-74" x="1173.388672"/>
      <use xlink:href="#DejaVuSans-20" x="1212.597656"/>
      <use xlink:href="#DejaVuSans-69" x="1244.384766"/>
      <use xlink:href="#DejaVuSans-6e" x="1272.167969"/>
      <use xlink:href="#DejaVuSans-20" x="1335.546875"/>
      <use xlink:href="#DejaVuSans-53" x="1367.333984"/>
      <use xlink:href="#DejaVuSans-45" x="1430.810547"/>
      <use xlink:href="#DejaVuSans-52" x="1493.994141"/>
      <use xlink:href="#DejaVuSans-50" x="1563.476562"/>
     </g>
    </g>
   </g>
  </g>
  <g id="text_43">
   <!-- Elasticsearch: -->
   <g transform="translate(124.63 19.3575)scale(0.16 -0.16)">
    <defs>
     <path id="DejaVuSans-63" d="M 3122 3366 
L 3122 2828 
Q 2878 2963 2633 3030 
Q 2388 3097 2138 3097 
Q 1578 3097 1268 2742 
Q 959 2388 959 1747 
Q 959 1106 1268 751 
Q 1578 397 2138 397 
Q 2388 397 2633 464 
Q 2878 531 3122 666 
L 3122 134 
Q 2881 22 2623 -34 
Q 2366 -91 2075 -91 
Q 1284 -91 818 406 
Q 353 903 353 1747 
Q 353 2603 823 3093 
Q 1294 3584 2113 3584 
Q 2378 3584 2631 3529 
Q 2884 3475 3122 3366 
z
" transform="scale(0.015625)"/>
     <path id="DejaVuSans-3a" d="M 750 794 
L 1409 794 
L 1409 0 
L 750 0 
L 750 794 
z
M 750 3309 
L 1409 3309 
L 1409 2516 
L 750 2516 
L 750 3309 
z
" transform="scale(0.015625)"/>
    </defs>
    <use xlink:href="#DejaVuSans-45"/>
    <use xlink:href="#DejaVuSans-6c" x="63.183594"/>
    <use xlink:href="#DejaVuSans-61" x="90.966797"/>
    <use xlink:href="#DejaVuSans-73" x="152.246094"/>
    <use xlink:href="#DejaVuSans-74" x="204.345703"/>
    <use xlink:href="#DejaVuSans-69" x="243.554688"/>
    <use xlink:href="#DejaVuSans-63" x="271.337891"/>
    <use xlink:href="#DejaVuSans-73" x="326.318359"/>
    <use xlink:href="#DejaVuSans-65" x="378.417969"/>
    <use xlink:href="#DejaVuSans-61" x="439.941406"/>
    <use xlink:href="#DejaVuSans-72" x="501.220703"/>
    <use xlink:href="#DejaVuSans-63" x="540.083984"/>
    <use xlink:href="#DejaVuSans-68" x="595.064453"/>
    <use xlink:href="#DejaVuSans-3a" x="658.443359"/>
   </g>
   <!-- Perturbed Result from Perturbed Query -->
   <g transform="translate(23.54625 37.274)scale(0.16 -0.16)">
    <defs>
     <path id="DejaVuSans-66" d="M 2375 4863 
L 2375 4384 
L 1825 4384 
Q 1516 4384 1395 4259 
Q 1275 4134 1275 3809 
L 1275 3500 
L 2222 3500 
L 2222 3053 
L 1275 3053 
L 1275 0 
L 697 0 
L 697 3053 
L 147 3053 
L 147 3500 
L 697 3500 
L 697 3744 
Q 697 4328 969 4595 
Q 1241 4863 1831 4863 
L 2375 4863 
z
" transform="scale(0.015625)"/>
     <path id="DejaVuSans-51" d="M 2522 4238 
Q 1834 4238 1429 3725 
Q 1025 3213 1025 2328 
Q 1025 1447 1429 934 
Q 1834 422 2522 422 
Q 3209 422 3611 934 
Q 4013 1447 4013 2328 
Q 4013 3213 3611 3725 
Q 3209 4238 2522 4238 
z
M 3406 84 
L 4238 -825 
L 3475 -825 
L 2784 -78 
Q 2681 -84 2626 -87 
Q 2572 -91 2522 -91 
Q 1538 -91 948 567 
Q 359 1225 359 2328 
Q 359 3434 948 4092 
Q 1538 4750 2522 4750 
Q 3503 4750 4090 4092 
Q 4678 3434 4678 2328 
Q 4678 1516 4351 937 
Q 4025 359 3406 84 
z
" transform="scale(0.015625)"/>
     <path id="DejaVuSans-79" d="M 2059 -325 
Q 1816 -950 1584 -1140 
Q 1353 -1331 966 -1331 
L 506 -1331 
L 506 -850 
L 844 -850 
Q 1081 -850 1212 -737 
Q 1344 -625 1503 -206 
L 1606 56 
L 191 3500 
L 800 3500 
L 1894 763 
L 2988 3500 
L 3597 3500 
L 2059 -325 
z
" transform="scale(0.015625)"/>
    </defs>
    <use xlink:href="#DejaVuSans-50"/>
    <use xlink:href="#DejaVuSans-65" x="56.677734"/>
    <use xlink:href="#DejaVuSans-72" x="118.201172"/>
    <use xlink:href="#DejaVuSans-74" x="159.314453"/>
    <use xlink:href="#DejaVuSans-75" x="198.523438"/>
    <use xlink:href="#DejaVuSans-72" x="261.902344"/>
    <use xlink:href="#DejaVuSans-62" x="303.015625"/>
    <use xlink:href="#DejaVuSans-65" x="366.492188"/>
    <use xlink:href="#DejaVuSans-64" x="428.015625"/>
    <use xlink:href="#DejaVuSans-20" x="491.492188"/>
    <use xlink:href="#DejaVuSans-52" x="523.279297"/>
    <use xlink:href="#DejaVuSans-65" x="588.261719"/>
    <use xlink:href="#DejaVuSans-73" x="649.785156"/>
    <use xlink:href="#DejaVuSans-75" x="701.884766"/>
    <use xlink:href="#DejaVuSans-6c" x="765.263672"/>
    <use xlink:href="#DejaVuSans-74" x="793.046875"/>
    <use xlink:href="#DejaVuSans-20" x="832.255859"/>
    <use xlink:href="#DejaVuSans-66" x="864.042969"/>
    <use xlink:href="#DejaVuSans-72" x="899.248047"/>
    <use xlink:href="#DejaVuSans-6f" x="938.111328"/>
    <use xlink:href="#DejaVuSans-6d" x="999.292969"/>
    <use xlink:href="#DejaVuSans-20" x="1096.705078"/>
    <use xlink:href="#DejaVuSans-50" x="1128.492188"/>
    <use xlink:href="#DejaVuSans-65" x="1185.169922"/>
    <use xlink:href="#DejaVuSans-72" x="1246.693359"/>
    <use xlink:href="#DejaVuSans-74" x="1287.806641"/>
    <use xlink:href="#DejaVuSans-75" x="1327.015625"/>
    <use xlink:href="#DejaVuSans-72" x="1390.394531"/>
    <use xlink:href="#DejaVuSans-62" x="1431.507812"/>
    <use xlink:href="#DejaVuSans-65" x="1494.984375"/>
    <use xlink:href="#DejaVuSans-64" x="1556.507812"/>
    <use xlink:href="#DejaVuSans-20" x="1619.984375"/>
    <use xlink:href="#DejaVuSans-51" x="1651.771484"/>
    <use xlink:href="#DejaVuSans-75" x="1730.482422"/>
    <use xlink:href="#DejaVuSans-65" x="1793.861328"/>
    <use xlink:href="#DejaVuSans-72" x="1855.384766"/>
    <use xlink:href="#DejaVuSans-79" x="1896.498047"/>
   </g>
  </g>
 </g>
</svg>
