<?xml version="1.0" encoding="utf-8" standalone="no"?>
<!DOCTYPE svg PUBLIC "-//W3C//DTD SVG 1.1//EN"
  "http://www.w3.org/Graphics/SVG/1.1/DTD/svg11.dtd">
<svg xmlns:xlink="http://www.w3.org/1999/xlink" width="460.8pt" height="345.6pt" viewBox="0 0 460.8 345.6" xmlns="http://www.w3.org/2000/svg" version="1.1">
 <metadata>
  <rdf:RDF xmlns:dc="http://purl.org/dc/elements/1.1/" xmlns:cc="http://creativecommons.org/ns#" xmlns:rdf="http://www.w3.org/1999/02/22-rdf-syntax-ns#">
   <cc:Work>
    <dc:type rdf:resource="http://purl.org/dc/dcmitype/StillImage"/>
    <dc:date>2022-12-15T21:38:12.094756</dc:date>
    <dc:format>image/svg+xml</dc:format>
    <dc:creator>
     <cc:Agent>
      <dc:title>Matplotlib v3.6.2, https://matplotlib.org/</dc:title>
     </cc:Agent>
    </dc:creator>
   </cc:Work>
  </rdf:RDF>
 </metadata>
 <defs>
  <style type="text/css">*{stroke-linejoin: round; stroke-linecap: butt}</style>
 </defs>
 <g id="figure_1">
  <g id="patch_1">
   <path d="M 0 345.6 
L 460.8 345.6 
L 460.8 0 
L 0 0 
z
" style="fill: #ffffff"/>
  </g>
  <g id="axes_1">
   <g id="matplotlib.axis_1"/>
   <g id="matplotlib.axis_2"/>
   <g id="patch_2">
    <path d="M 113.015172 101.952 
C 113.015172 98.797759 112.409225 95.672686 111.230341 92.747029 
C 110.051457 89.821372 108.321439 87.14924 106.134535 84.876205 
C 103.947631 82.603169 101.344288 80.77127 98.466329 79.480305 
C 95.58837 78.18934 92.489024 77.463185 89.337134 77.341399 
C 86.185245 77.219613 83.039107 77.70445 80.070115 78.769495 
C 77.101122 79.83454 74.364186 81.460096 72.008409 83.557607 
C 69.652632 85.655118 67.721584 88.18579 66.320463 91.011759 
C 64.919342 93.837728 64.074062 96.906726 63.830672 100.051563 
C 63.587283 103.1964 63.950284 106.358912 64.899902 109.366812 
C 65.84952 112.374712 67.368191 115.17237 69.373181 117.607376 
C 71.378171 120.042382 73.832398 122.0697 76.602162 123.578887 
C 79.371926 125.088074 82.406 126.051218 85.539095 126.415849 
C 88.67219 126.78048 91.846359 126.539853 94.888681 125.707079 
C 97.931003 124.874305 100.785211 123.464784 103.295814 121.555305 
C 105.806417 119.645826 107.926981 117.271703 109.541984 114.562275 
C 111.156987 111.852846 112.236559 108.858222 112.721887 105.741541 
L 88.386207 101.952 
L 113.015172 101.952 
z
" style="fill: #20b2aa"/>
   </g>
   <g id="patch_3">
    <path d="M 112.721887 105.741541 
C 112.819466 105.114906 112.892806 104.484735 112.941742 103.852437 
C 112.990677 103.22014 113.015172 102.586189 113.015172 101.952001 
L 88.386207 101.952 
L 112.721887 105.741541 
z
" style="fill: #ff6347"/>
   </g>
   <g id="text_1">
    <!-- Present -->
    <g transform="translate(23.861056 102.620894) scale(0.1 -0.1)">
     <defs>
      <path id="DejaVuSans-50" d="M 1259 4147 
L 1259 2394 
L 2053 2394 
Q 2494 2394 2734 2622 
Q 2975 2850 2975 3272 
Q 2975 3691 2734 3919 
Q 2494 4147 2053 4147 
L 1259 4147 
z
M 628 4666 
L 2053 4666 
Q 2838 4666 3239 4311 
Q 3641 3956 3641 3272 
Q 3641 2581 3239 2228 
Q 2838 1875 2053 1875 
L 1259 1875 
L 1259 0 
L 628 0 
L 628 4666 
z
" transform="scale(0.015625)"/>
      <path id="DejaVuSans-72" d="M 2631 2963 
Q 2534 3019 2420 3045 
Q 2306 3072 2169 3072 
Q 1681 3072 1420 2755 
Q 1159 2438 1159 1844 
L 1159 0 
L 581 0 
L 581 3500 
L 1159 3500 
L 1159 2956 
Q 1341 3275 1631 3429 
Q 1922 3584 2338 3584 
Q 2397 3584 2469 3576 
Q 2541 3569 2628 3553 
L 2631 2963 
z
" transform="scale(0.015625)"/>
      <path id="DejaVuSans-65" d="M 3597 1894 
L 3597 1613 
L 953 1613 
Q 991 1019 1311 708 
Q 1631 397 2203 397 
Q 2534 397 2845 478 
Q 3156 559 3463 722 
L 3463 178 
Q 3153 47 2828 -22 
Q 2503 -91 2169 -91 
Q 1331 -91 842 396 
Q 353 884 353 1716 
Q 353 2575 817 3079 
Q 1281 3584 2069 3584 
Q 2775 3584 3186 3129 
Q 3597 2675 3597 1894 
z
M 3022 2063 
Q 3016 2534 2758 2815 
Q 2500 3097 2075 3097 
Q 1594 3097 1305 2825 
Q 1016 2553 972 2059 
L 3022 2063 
z
" transform="scale(0.015625)"/>
      <path id="DejaVuSans-73" d="M 2834 3397 
L 2834 2853 
Q 2591 2978 2328 3040 
Q 2066 3103 1784 3103 
Q 1356 3103 1142 2972 
Q 928 2841 928 2578 
Q 928 2378 1081 2264 
Q 1234 2150 1697 2047 
L 1894 2003 
Q 2506 1872 2764 1633 
Q 3022 1394 3022 966 
Q 3022 478 2636 193 
Q 2250 -91 1575 -91 
Q 1294 -91 989 -36 
Q 684 19 347 128 
L 347 722 
Q 666 556 975 473 
Q 1284 391 1588 391 
Q 1994 391 2212 530 
Q 2431 669 2431 922 
Q 2431 1156 2273 1281 
Q 2116 1406 1581 1522 
L 1381 1569 
Q 847 1681 609 1914 
Q 372 2147 372 2553 
Q 372 3047 722 3315 
Q 1072 3584 1716 3584 
Q 2034 3584 2315 3537 
Q 2597 3491 2834 3397 
z
" transform="scale(0.015625)"/>
      <path id="DejaVuSans-6e" d="M 3513 2113 
L 3513 0 
L 2938 0 
L 2938 2094 
Q 2938 2591 2744 2837 
Q 2550 3084 2163 3084 
Q 1697 3084 1428 2787 
Q 1159 2491 1159 1978 
L 1159 0 
L 581 0 
L 581 3500 
L 1159 3500 
L 1159 2956 
Q 1366 3272 1645 3428 
Q 1925 3584 2291 3584 
Q 2894 3584 3203 3211 
Q 3513 2838 3513 2113 
z
" transform="scale(0.015625)"/>
      <path id="DejaVuSans-74" d="M 1172 4494 
L 1172 3500 
L 2356 3500 
L 2356 3053 
L 1172 3053 
L 1172 1153 
Q 1172 725 1289 603 
Q 1406 481 1766 481 
L 2356 481 
L 2356 0 
L 1766 0 
Q 1100 0 847 248 
Q 594 497 594 1153 
L 594 3053 
L 172 3053 
L 172 3500 
L 594 3500 
L 594 4494 
L 1172 4494 
z
" transform="scale(0.015625)"/>
     </defs>
     <use xlink:href="#DejaVuSans-50"/>
     <use xlink:href="#DejaVuSans-72" x="58.552734"/>
     <use xlink:href="#DejaVuSans-65" x="97.416016"/>
     <use xlink:href="#DejaVuSans-73" x="158.939453"/>
     <use xlink:href="#DejaVuSans-65" x="211.039062"/>
     <use xlink:href="#DejaVuSans-6e" x="272.5625"/>
     <use xlink:href="#DejaVuSans-74" x="335.941406"/>
    </g>
   </g>
   <g id="text_2">
    <!-- 98% -->
    <g transform="translate(62.539605 103.571113) scale(0.1 -0.1)">
     <defs>
      <path id="DejaVuSans-39" d="M 703 97 
L 703 672 
Q 941 559 1184 500 
Q 1428 441 1663 441 
Q 2288 441 2617 861 
Q 2947 1281 2994 2138 
Q 2813 1869 2534 1725 
Q 2256 1581 1919 1581 
Q 1219 1581 811 2004 
Q 403 2428 403 3163 
Q 403 3881 828 4315 
Q 1253 4750 1959 4750 
Q 2769 4750 3195 4129 
Q 3622 3509 3622 2328 
Q 3622 1225 3098 567 
Q 2575 -91 1691 -91 
Q 1453 -91 1209 -44 
Q 966 3 703 97 
z
M 1959 2075 
Q 2384 2075 2632 2365 
Q 2881 2656 2881 3163 
Q 2881 3666 2632 3958 
Q 2384 4250 1959 4250 
Q 1534 4250 1286 3958 
Q 1038 3666 1038 3163 
Q 1038 2656 1286 2365 
Q 1534 2075 1959 2075 
z
" transform="scale(0.015625)"/>
      <path id="DejaVuSans-38" d="M 2034 2216 
Q 1584 2216 1326 1975 
Q 1069 1734 1069 1313 
Q 1069 891 1326 650 
Q 1584 409 2034 409 
Q 2484 409 2743 651 
Q 3003 894 3003 1313 
Q 3003 1734 2745 1975 
Q 2488 2216 2034 2216 
z
M 1403 2484 
Q 997 2584 770 2862 
Q 544 3141 544 3541 
Q 544 4100 942 4425 
Q 1341 4750 2034 4750 
Q 2731 4750 3128 4425 
Q 3525 4100 3525 3541 
Q 3525 3141 3298 2862 
Q 3072 2584 2669 2484 
Q 3125 2378 3379 2068 
Q 3634 1759 3634 1313 
Q 3634 634 3220 271 
Q 2806 -91 2034 -91 
Q 1263 -91 848 271 
Q 434 634 434 1313 
Q 434 1759 690 2068 
Q 947 2378 1403 2484 
z
M 1172 3481 
Q 1172 3119 1398 2916 
Q 1625 2713 2034 2713 
Q 2441 2713 2670 2916 
Q 2900 3119 2900 3481 
Q 2900 3844 2670 4047 
Q 2441 4250 2034 4250 
Q 1625 4250 1398 4047 
Q 1172 3844 1172 3481 
z
" transform="scale(0.015625)"/>
      <path id="DejaVuSans-25" d="M 4653 2053 
Q 4381 2053 4226 1822 
Q 4072 1591 4072 1178 
Q 4072 772 4226 539 
Q 4381 306 4653 306 
Q 4919 306 5073 539 
Q 5228 772 5228 1178 
Q 5228 1588 5073 1820 
Q 4919 2053 4653 2053 
z
M 4653 2450 
Q 5147 2450 5437 2106 
Q 5728 1763 5728 1178 
Q 5728 594 5436 251 
Q 5144 -91 4653 -91 
Q 4153 -91 3862 251 
Q 3572 594 3572 1178 
Q 3572 1766 3864 2108 
Q 4156 2450 4653 2450 
z
M 1428 4353 
Q 1159 4353 1004 4120 
Q 850 3888 850 3481 
Q 850 3069 1003 2837 
Q 1156 2606 1428 2606 
Q 1700 2606 1854 2837 
Q 2009 3069 2009 3481 
Q 2009 3884 1853 4118 
Q 1697 4353 1428 4353 
z
M 4250 4750 
L 4750 4750 
L 1831 -91 
L 1331 -91 
L 4250 4750 
z
M 1428 4750 
Q 1922 4750 2215 4408 
Q 2509 4066 2509 3481 
Q 2509 2891 2217 2550 
Q 1925 2209 1428 2209 
Q 931 2209 642 2551 
Q 353 2894 353 3481 
Q 353 4063 643 4406 
Q 934 4750 1428 4750 
z
" transform="scale(0.015625)"/>
     </defs>
     <use xlink:href="#DejaVuSans-39"/>
     <use xlink:href="#DejaVuSans-38" x="63.623047"/>
     <use xlink:href="#DejaVuSans-25" x="127.246094"/>
    </g>
   </g>
   <g id="text_3">
    <!-- Absent -->
    <g transform="translate(115.397295 106.801856) scale(0.1 -0.1)">
     <defs>
      <path id="DejaVuSans-41" d="M 2188 4044 
L 1331 1722 
L 3047 1722 
L 2188 4044 
z
M 1831 4666 
L 2547 4666 
L 4325 0 
L 3669 0 
L 3244 1197 
L 1141 1197 
L 716 0 
L 50 0 
L 1831 4666 
z
" transform="scale(0.015625)"/>
      <path id="DejaVuSans-62" d="M 3116 1747 
Q 3116 2381 2855 2742 
Q 2594 3103 2138 3103 
Q 1681 3103 1420 2742 
Q 1159 2381 1159 1747 
Q 1159 1113 1420 752 
Q 1681 391 2138 391 
Q 2594 391 2855 752 
Q 3116 1113 3116 1747 
z
M 1159 2969 
Q 1341 3281 1617 3432 
Q 1894 3584 2278 3584 
Q 2916 3584 3314 3078 
Q 3713 2572 3713 1747 
Q 3713 922 3314 415 
Q 2916 -91 2278 -91 
Q 1894 -91 1617 61 
Q 1341 213 1159 525 
L 1159 0 
L 581 0 
L 581 4863 
L 1159 4863 
L 1159 2969 
z
" transform="scale(0.015625)"/>
     </defs>
     <use xlink:href="#DejaVuSans-41"/>
     <use xlink:href="#DejaVuSans-62" x="68.408203"/>
     <use xlink:href="#DejaVuSans-73" x="131.884766"/>
     <use xlink:href="#DejaVuSans-65" x="183.984375"/>
     <use xlink:href="#DejaVuSans-6e" x="245.507812"/>
     <use xlink:href="#DejaVuSans-74" x="308.886719"/>
    </g>
   </g>
   <g id="text_4">
    <!-- 2% -->
    <g transform="translate(95.187496 105.851637) scale(0.1 -0.1)">
     <defs>
      <path id="DejaVuSans-32" d="M 1228 531 
L 3431 531 
L 3431 0 
L 469 0 
L 469 531 
Q 828 903 1448 1529 
Q 2069 2156 2228 2338 
Q 2531 2678 2651 2914 
Q 2772 3150 2772 3378 
Q 2772 3750 2511 3984 
Q 2250 4219 1831 4219 
Q 1534 4219 1204 4116 
Q 875 4013 500 3803 
L 500 4441 
Q 881 4594 1212 4672 
Q 1544 4750 1819 4750 
Q 2544 4750 2975 4387 
Q 3406 4025 3406 3419 
Q 3406 3131 3298 2873 
Q 3191 2616 2906 2266 
Q 2828 2175 2409 1742 
Q 1991 1309 1228 531 
z
" transform="scale(0.015625)"/>
     </defs>
     <use xlink:href="#DejaVuSans-32"/>
     <use xlink:href="#DejaVuSans-25" x="63.623047"/>
    </g>
   </g>
   <g id="text_5">
    <!-- base -->
    <g transform="translate(71.222082 65.165793) scale(0.144 -0.144)">
     <defs>
      <path id="DejaVuSans-61" d="M 2194 1759 
Q 1497 1759 1228 1600 
Q 959 1441 959 1056 
Q 959 750 1161 570 
Q 1363 391 1709 391 
Q 2188 391 2477 730 
Q 2766 1069 2766 1631 
L 2766 1759 
L 2194 1759 
z
M 3341 1997 
L 3341 0 
L 2766 0 
L 2766 531 
Q 2569 213 2275 61 
Q 1981 -91 1556 -91 
Q 1019 -91 701 211 
Q 384 513 384 1019 
Q 384 1609 779 1909 
Q 1175 2209 1959 2209 
L 2766 2209 
L 2766 2266 
Q 2766 2663 2505 2880 
Q 2244 3097 1772 3097 
Q 1472 3097 1187 3025 
Q 903 2953 641 2809 
L 641 3341 
Q 956 3463 1253 3523 
Q 1550 3584 1831 3584 
Q 2591 3584 2966 3190 
Q 3341 2797 3341 1997 
z
" transform="scale(0.015625)"/>
     </defs>
     <use xlink:href="#DejaVuSans-62"/>
     <use xlink:href="#DejaVuSans-61" x="63.476562"/>
     <use xlink:href="#DejaVuSans-73" x="124.755859"/>
     <use xlink:href="#DejaVuSans-65" x="176.855469"/>
    </g>
   </g>
  </g>
  <g id="axes_2">
   <g id="matplotlib.axis_3"/>
   <g id="matplotlib.axis_4"/>
   <g id="patch_4">
    <path d="M 186.902069 101.952 
C 186.902069 101.94498 186.902066 101.937961 186.90206 101.930941 
C 186.902054 101.923921 186.902045 101.916902 186.902033 101.909882 
L 162.273103 101.952 
L 186.902069 101.952 
z
" style="fill: #20b2aa"/>
   </g>
   <g id="patch_5">
    <path d="M 186.902033 101.909882 
C 186.896504 98.676526 186.254302 95.475683 185.012161 92.490435 
C 183.77002 89.505187 181.952083 86.793559 179.662333 84.510652 
C 177.372584 82.227744 174.655527 80.41793 171.666575 79.184729 
C 168.677623 77.951527 165.474872 77.318908 162.241514 77.323055 
C 159.008157 77.327202 155.807039 77.968035 152.82126 79.2089 
C 149.835482 80.449765 147.123076 82.266542 144.839191 84.555316 
C 142.555305 86.844089 140.744329 89.560372 139.50985 92.548796 
C 138.275371 95.537221 137.641382 98.739701 137.644147 101.97306 
C 137.646912 105.206419 138.286377 108.407811 139.525965 111.39412 
C 140.765553 114.380428 142.581171 117.09361 144.868968 119.378474 
C 147.156765 121.663338 149.872273 123.475475 152.860169 124.711231 
C 155.848066 125.946988 159.050275 126.582346 162.283635 126.580963 
C 165.516995 126.579581 168.718659 125.941485 171.705498 124.703173 
C 174.692336 123.464862 177.406294 121.650404 179.692136 119.363584 
C 181.977978 117.076764 183.791275 114.362031 185.028309 111.374663 
C 186.265343 108.387295 186.902069 105.185358 186.902069 101.951998 
L 162.273103 101.952 
L 186.902033 101.909882 
z
" style="fill: #ff6347"/>
   </g>
   <g id="text_6">
    <!-- Present -->
    <g transform="translate(189.364956 104.68821) scale(0.1 -0.1)">
     <use xlink:href="#DejaVuSans-50"/>
     <use xlink:href="#DejaVuSans-72" x="58.552734"/>
     <use xlink:href="#DejaVuSans-65" x="97.416016"/>
     <use xlink:href="#DejaVuSans-73" x="158.939453"/>
     <use xlink:href="#DejaVuSans-65" x="211.039062"/>
     <use xlink:href="#DejaVuSans-6e" x="272.5625"/>
     <use xlink:href="#DejaVuSans-74" x="335.941406"/>
    </g>
   </g>
   <g id="text_7">
    <!-- 0% -->
    <g transform="translate(169.118446 104.69874) scale(0.1 -0.1)">
     <defs>
      <path id="DejaVuSans-30" d="M 2034 4250 
Q 1547 4250 1301 3770 
Q 1056 3291 1056 2328 
Q 1056 1369 1301 889 
Q 1547 409 2034 409 
Q 2525 409 2770 889 
Q 3016 1369 3016 2328 
Q 3016 3291 2770 3770 
Q 2525 4250 2034 4250 
z
M 2034 4750 
Q 2819 4750 3233 4129 
Q 3647 3509 3647 2328 
Q 3647 1150 3233 529 
Q 2819 -91 2034 -91 
Q 1250 -91 836 529 
Q 422 1150 422 2328 
Q 422 3509 836 4129 
Q 1250 4750 2034 4750 
z
" transform="scale(0.015625)"/>
     </defs>
     <use xlink:href="#DejaVuSans-30"/>
     <use xlink:href="#DejaVuSans-25" x="63.623047"/>
    </g>
   </g>
   <g id="text_8">
    <!-- Absent -->
    <g transform="translate(100.371876 104.734541) scale(0.1 -0.1)">
     <use xlink:href="#DejaVuSans-41"/>
     <use xlink:href="#DejaVuSans-62" x="68.408203"/>
     <use xlink:href="#DejaVuSans-73" x="131.884766"/>
     <use xlink:href="#DejaVuSans-65" x="183.984375"/>
     <use xlink:href="#DejaVuSans-6e" x="245.507812"/>
     <use xlink:href="#DejaVuSans-74" x="308.886719"/>
    </g>
   </g>
   <g id="text_9">
    <!-- 100% -->
    <g transform="translate(133.201198 104.724011) scale(0.1 -0.1)">
     <defs>
      <path id="DejaVuSans-31" d="M 794 531 
L 1825 531 
L 1825 4091 
L 703 3866 
L 703 4441 
L 1819 4666 
L 2450 4666 
L 2450 531 
L 3481 531 
L 3481 0 
L 794 0 
L 794 531 
z
" transform="scale(0.015625)"/>
     </defs>
     <use xlink:href="#DejaVuSans-31"/>
     <use xlink:href="#DejaVuSans-30" x="63.623047"/>
     <use xlink:href="#DejaVuSans-30" x="127.246094"/>
     <use xlink:href="#DejaVuSans-25" x="190.869141"/>
    </g>
   </g>
   <g id="text_10">
    <!-- zwsp -->
    <g transform="translate(144.284353 65.165793) scale(0.144 -0.144)">
     <defs>
      <path id="DejaVuSans-7a" d="M 353 3500 
L 3084 3500 
L 3084 2975 
L 922 459 
L 3084 459 
L 3084 0 
L 275 0 
L 275 525 
L 2438 3041 
L 353 3041 
L 353 3500 
z
" transform="scale(0.015625)"/>
      <path id="DejaVuSans-77" d="M 269 3500 
L 844 3500 
L 1563 769 
L 2278 3500 
L 2956 3500 
L 3675 769 
L 4391 3500 
L 4966 3500 
L 4050 0 
L 3372 0 
L 2619 2869 
L 1863 0 
L 1184 0 
L 269 3500 
z
" transform="scale(0.015625)"/>
      <path id="DejaVuSans-70" d="M 1159 525 
L 1159 -1331 
L 581 -1331 
L 581 3500 
L 1159 3500 
L 1159 2969 
Q 1341 3281 1617 3432 
Q 1894 3584 2278 3584 
Q 2916 3584 3314 3078 
Q 3713 2572 3713 1747 
Q 3713 922 3314 415 
Q 2916 -91 2278 -91 
Q 1894 -91 1617 61 
Q 1341 213 1159 525 
z
M 3116 1747 
Q 3116 2381 2855 2742 
Q 2594 3103 2138 3103 
Q 1681 3103 1420 2742 
Q 1159 2381 1159 1747 
Q 1159 1113 1420 752 
Q 1681 391 2138 391 
Q 2594 391 2855 752 
Q 3116 1113 3116 1747 
z
" transform="scale(0.015625)"/>
     </defs>
     <use xlink:href="#DejaVuSans-7a"/>
     <use xlink:href="#DejaVuSans-77" x="52.490234"/>
     <use xlink:href="#DejaVuSans-73" x="134.277344"/>
     <use xlink:href="#DejaVuSans-70" x="186.376953"/>
    </g>
   </g>
  </g>
  <g id="axes_3">
   <g id="matplotlib.axis_5"/>
   <g id="matplotlib.axis_6"/>
   <g id="patch_6">
    <path d="M 260.788966 101.952 
C 260.788966 101.946384 260.788964 101.940769 260.78896 101.935153 
C 260.788956 101.929537 260.78895 101.923921 260.788942 101.918306 
L 236.16 101.952 
L 260.788966 101.952 
z
" style="fill: #20b2aa"/>
   </g>
   <g id="patch_7">
    <path d="M 260.788942 101.918306 
C 260.784519 98.684771 260.143342 95.483536 258.90209 92.497727 
C 257.660838 89.511917 255.84364 86.799574 253.554449 84.515857 
C 251.265257 82.232139 248.548571 80.42144 245.559798 79.18734 
C 242.571026 77.953241 239.368265 77.31973 236.134729 77.323047 
C 232.901193 77.326365 229.699739 77.966447 226.713506 79.206678 
C 223.727272 80.446908 221.014307 82.263178 218.729807 84.551589 
C 216.445306 86.839999 214.633678 89.556066 213.398557 92.544416 
C 212.163435 95.532767 211.528828 98.735311 211.53104 101.968847 
C 211.533252 105.202384 212.172239 108.404057 213.411448 111.390715 
C 214.650657 114.377372 216.465999 117.090958 218.753628 119.376241 
C 221.041257 121.661524 223.756704 123.474081 226.744632 124.710225 
C 229.73256 125.946368 232.934886 126.58207 236.168424 126.580964 
C 239.401961 126.579858 242.603852 125.941966 245.590934 124.703779 
C 248.578015 123.465591 251.292221 121.651177 253.578287 119.36433 
C 255.864352 117.077483 257.677837 114.362656 258.915003 111.375151 
C 260.152169 108.387646 260.788966 105.185537 260.788966 101.952 
L 236.16 101.952 
L 260.788942 101.918306 
z
" style="fill: #ff6347"/>
   </g>
   <g id="text_11">
    <!-- Present -->
    <g transform="translate(263.251856 104.692843) scale(0.1 -0.1)">
     <use xlink:href="#DejaVuSans-50"/>
     <use xlink:href="#DejaVuSans-72" x="58.552734"/>
     <use xlink:href="#DejaVuSans-65" x="97.416016"/>
     <use xlink:href="#DejaVuSans-73" x="158.939453"/>
     <use xlink:href="#DejaVuSans-65" x="211.039062"/>
     <use xlink:href="#DejaVuSans-6e" x="272.5625"/>
     <use xlink:href="#DejaVuSans-74" x="335.941406"/>
    </g>
   </g>
   <g id="text_12">
    <!-- 0% -->
    <g transform="translate(243.005345 104.701267) scale(0.1 -0.1)">
     <use xlink:href="#DejaVuSans-30"/>
     <use xlink:href="#DejaVuSans-25" x="63.623047"/>
    </g>
   </g>
   <g id="text_13">
    <!-- Absent -->
    <g transform="translate(174.258769 104.729907) scale(0.1 -0.1)">
     <use xlink:href="#DejaVuSans-41"/>
     <use xlink:href="#DejaVuSans-62" x="68.408203"/>
     <use xlink:href="#DejaVuSans-73" x="131.884766"/>
     <use xlink:href="#DejaVuSans-65" x="183.984375"/>
     <use xlink:href="#DejaVuSans-6e" x="245.507812"/>
     <use xlink:href="#DejaVuSans-74" x="308.886719"/>
    </g>
   </g>
   <g id="text_14">
    <!-- 100% -->
    <g transform="translate(207.088093 104.721483) scale(0.1 -0.1)">
     <use xlink:href="#DejaVuSans-31"/>
     <use xlink:href="#DejaVuSans-30" x="63.623047"/>
     <use xlink:href="#DejaVuSans-30" x="127.246094"/>
     <use xlink:href="#DejaVuSans-25" x="190.869141"/>
    </g>
   </g>
   <g id="text_15">
    <!-- zwnj -->
    <g transform="translate(219.929625 65.165793) scale(0.144 -0.144)">
     <defs>
      <path id="DejaVuSans-6a" d="M 603 3500 
L 1178 3500 
L 1178 -63 
Q 1178 -731 923 -1031 
Q 669 -1331 103 -1331 
L -116 -1331 
L -116 -844 
L 38 -844 
Q 366 -844 484 -692 
Q 603 -541 603 -63 
L 603 3500 
z
M 603 4863 
L 1178 4863 
L 1178 4134 
L 603 4134 
L 603 4863 
z
" transform="scale(0.015625)"/>
     </defs>
     <use xlink:href="#DejaVuSans-7a"/>
     <use xlink:href="#DejaVuSans-77" x="52.490234"/>
     <use xlink:href="#DejaVuSans-6e" x="134.277344"/>
     <use xlink:href="#DejaVuSans-6a" x="197.65625"/>
    </g>
   </g>
  </g>
  <g id="axes_4">
   <g id="matplotlib.axis_7"/>
   <g id="matplotlib.axis_8"/>
   <g id="patch_8">
    <path d="M 334.675862 101.952 
C 334.675862 101.946384 334.67586 101.940769 334.675856 101.935153 
C 334.675852 101.929537 334.675847 101.923921 334.675839 101.918306 
L 310.046897 101.952 
L 334.675862 101.952 
z
" style="fill: #20b2aa"/>
   </g>
   <g id="patch_9">
    <path d="M 334.675839 101.918306 
C 334.671415 98.684771 334.030238 95.483536 332.788987 92.497727 
C 331.547735 89.511917 329.730537 86.799574 327.441345 84.515857 
C 325.152154 82.232139 322.435468 80.42144 319.446695 79.18734 
C 316.457922 77.953241 313.255161 77.31973 310.021626 77.323047 
C 306.78809 77.326365 303.586636 77.966447 300.600402 79.206678 
C 297.614168 80.446908 294.901204 82.263178 292.616703 84.551589 
C 290.332203 86.839999 288.520575 89.556066 287.285453 92.544416 
C 286.050331 95.532767 285.415725 98.735311 285.417937 101.968847 
C 285.420149 105.202384 286.059136 108.404057 287.298345 111.390715 
C 288.537554 114.377372 290.352896 117.090958 292.640525 119.376241 
C 294.928154 121.661524 297.643601 123.474081 300.631528 124.710225 
C 303.619456 125.946368 306.821783 126.58207 310.05532 126.580964 
C 313.288857 126.579858 316.490749 125.941966 319.47783 124.703779 
C 322.464912 123.465591 325.179118 121.651177 327.465183 119.36433 
C 329.751248 117.077483 331.564734 114.362656 332.8019 111.375151 
C 334.039065 108.387646 334.675862 105.185537 334.675862 101.952 
L 310.046897 101.952 
L 334.675839 101.918306 
z
" style="fill: #ff6347"/>
   </g>
   <g id="text_16">
    <!-- Present -->
    <g transform="translate(337.138752 104.692843) scale(0.1 -0.1)">
     <use xlink:href="#DejaVuSans-50"/>
     <use xlink:href="#DejaVuSans-72" x="58.552734"/>
     <use xlink:href="#DejaVuSans-65" x="97.416016"/>
     <use xlink:href="#DejaVuSans-73" x="158.939453"/>
     <use xlink:href="#DejaVuSans-65" x="211.039062"/>
     <use xlink:href="#DejaVuSans-6e" x="272.5625"/>
     <use xlink:href="#DejaVuSans-74" x="335.941406"/>
    </g>
   </g>
   <g id="text_17">
    <!-- 0% -->
    <g transform="translate(316.892241 104.701267) scale(0.1 -0.1)">
     <use xlink:href="#DejaVuSans-30"/>
     <use xlink:href="#DejaVuSans-25" x="63.623047"/>
    </g>
   </g>
   <g id="text_18">
    <!-- Absent -->
    <g transform="translate(248.145666 104.729907) scale(0.1 -0.1)">
     <use xlink:href="#DejaVuSans-41"/>
     <use xlink:href="#DejaVuSans-62" x="68.408203"/>
     <use xlink:href="#DejaVuSans-73" x="131.884766"/>
     <use xlink:href="#DejaVuSans-65" x="183.984375"/>
     <use xlink:href="#DejaVuSans-6e" x="245.507812"/>
     <use xlink:href="#DejaVuSans-74" x="308.886719"/>
    </g>
   </g>
   <g id="text_19">
    <!-- 100% -->
    <g transform="translate(280.974989 104.721483) scale(0.1 -0.1)">
     <use xlink:href="#DejaVuSans-31"/>
     <use xlink:href="#DejaVuSans-30" x="63.623047"/>
     <use xlink:href="#DejaVuSans-30" x="127.246094"/>
     <use xlink:href="#DejaVuSans-25" x="190.869141"/>
    </g>
   </g>
   <g id="text_20">
    <!-- zwj -->
    <g transform="translate(298.379522 65.165793) scale(0.144 -0.144)">
     <use xlink:href="#DejaVuSans-7a"/>
     <use xlink:href="#DejaVuSans-77" x="52.490234"/>
     <use xlink:href="#DejaVuSans-6a" x="134.277344"/>
    </g>
   </g>
  </g>
  <g id="axes_5">
   <g id="matplotlib.axis_9"/>
   <g id="matplotlib.axis_10"/>
   <g id="patch_10">
    <path d="M 408.562759 101.952 
C 408.562759 101.951532 408.562759 101.951064 408.562759 101.950596 
C 408.562759 101.950128 408.562759 101.94966 408.562758 101.949192 
L 383.933793 101.952 
L 408.562759 101.952 
z
" style="fill: #20b2aa"/>
   </g>
   <g id="patch_11">
    <path d="M 408.562758 101.949192 
C 408.56239 98.715005 407.924972 95.512338 406.686983 92.524471 
C 405.448993 89.536604 403.634508 86.821641 401.347364 84.534954 
C 399.06022 82.248266 396.344896 80.434323 393.356782 79.19693 
C 390.368668 77.959537 387.165873 77.322758 383.931686 77.323035 
C 380.697499 77.323311 377.494814 77.960638 374.506911 79.198542 
C 371.519009 80.436446 368.803995 82.250855 366.517243 84.537933 
C 364.23049 86.825012 362.416469 89.540285 361.178991 92.528364 
C 359.941513 95.516442 359.304643 98.719219 359.304828 101.953406 
C 359.305012 105.187593 359.942248 108.390297 361.180067 111.378234 
C 362.417886 114.366171 364.232217 117.081237 366.519231 119.368055 
C 368.806244 121.654872 371.521466 123.468971 374.509509 124.706534 
C 377.497553 125.944097 380.700311 126.581058 383.934498 126.580966 
C 387.168685 126.580873 390.371407 125.943729 393.359379 124.705994 
C 396.347352 123.46826 399.062469 121.654007 401.349352 119.367058 
C 403.636235 117.080109 405.450411 114.36494 406.688059 111.376932 
C 407.925707 108.388923 408.562759 105.186183 408.562759 101.951996 
L 383.933793 101.952 
L 408.562758 101.949192 
z
" style="fill: #ff6347"/>
   </g>
   <g id="text_21">
    <!-- Present -->
    <g transform="translate(411.025655 104.709831) scale(0.1 -0.1)">
     <use xlink:href="#DejaVuSans-50"/>
     <use xlink:href="#DejaVuSans-72" x="58.552734"/>
     <use xlink:href="#DejaVuSans-65" x="97.416016"/>
     <use xlink:href="#DejaVuSans-73" x="158.939453"/>
     <use xlink:href="#DejaVuSans-65" x="211.039062"/>
     <use xlink:href="#DejaVuSans-6e" x="272.5625"/>
     <use xlink:href="#DejaVuSans-74" x="335.941406"/>
    </g>
   </g>
   <g id="text_22">
    <!-- 0% -->
    <g transform="translate(390.779141 104.710533) scale(0.1 -0.1)">
     <use xlink:href="#DejaVuSans-30"/>
     <use xlink:href="#DejaVuSans-25" x="63.623047"/>
    </g>
   </g>
   <g id="text_23">
    <!-- Absent -->
    <g transform="translate(322.032556 104.712921) scale(0.1 -0.1)">
     <use xlink:href="#DejaVuSans-41"/>
     <use xlink:href="#DejaVuSans-62" x="68.408203"/>
     <use xlink:href="#DejaVuSans-73" x="131.884766"/>
     <use xlink:href="#DejaVuSans-65" x="183.984375"/>
     <use xlink:href="#DejaVuSans-6e" x="245.507812"/>
     <use xlink:href="#DejaVuSans-74" x="308.886719"/>
    </g>
   </g>
   <g id="text_24">
    <!-- 100% -->
    <g transform="translate(354.861883 104.712219) scale(0.1 -0.1)">
     <use xlink:href="#DejaVuSans-31"/>
     <use xlink:href="#DejaVuSans-30" x="63.623047"/>
     <use xlink:href="#DejaVuSans-30" x="127.246094"/>
     <use xlink:href="#DejaVuSans-25" x="190.869141"/>
    </g>
   </g>
   <g id="text_25">
    <!-- rlo -->
    <g transform="translate(374.568168 65.165793) scale(0.144 -0.144)">
     <defs>
      <path id="DejaVuSans-6c" d="M 603 4863 
L 1178 4863 
L 1178 0 
L 603 0 
L 603 4863 
z
" transform="scale(0.015625)"/>
      <path id="DejaVuSans-6f" d="M 1959 3097 
Q 1497 3097 1228 2736 
Q 959 2375 959 1747 
Q 959 1119 1226 758 
Q 1494 397 1959 397 
Q 2419 397 2687 759 
Q 2956 1122 2956 1747 
Q 2956 2369 2687 2733 
Q 2419 3097 1959 3097 
z
M 1959 3584 
Q 2709 3584 3137 3096 
Q 3566 2609 3566 1747 
Q 3566 888 3137 398 
Q 2709 -91 1959 -91 
Q 1206 -91 779 398 
Q 353 888 353 1747 
Q 353 2609 779 3096 
Q 1206 3584 1959 3584 
z
" transform="scale(0.015625)"/>
     </defs>
     <use xlink:href="#DejaVuSans-72"/>
     <use xlink:href="#DejaVuSans-6c" x="41.113281"/>
     <use xlink:href="#DejaVuSans-6f" x="68.896484"/>
    </g>
   </g>
  </g>
  <g id="axes_6">
   <g id="matplotlib.axis_11"/>
   <g id="matplotlib.axis_12"/>
   <g id="patch_12">
    <path d="M 113.015172 247.104 
C 113.015172 246.623353 113.001102 246.142809 112.97298 245.662986 
C 112.944858 245.183162 112.902696 244.704265 112.846548 244.226909 
L 88.386207 247.104 
L 113.015172 247.104 
z
" style="fill: #20b2aa"/>
   </g>
   <g id="patch_13">
    <path d="M 112.846548 244.226909 
C 112.475816 241.075033 111.499344 238.02432 109.970974 235.242981 
C 108.442603 232.461641 106.39095 230.001751 103.929138 227.998942 
C 101.467325 225.996133 98.641446 224.487905 95.607314 223.557417 
C 92.573182 222.62693 89.387605 222.291606 86.226229 222.569933 
C 83.064853 222.84826 79.986869 223.735028 77.16199 225.181343 
C 74.337111 226.627657 71.818229 228.606438 69.744228 231.008579 
C 67.670227 233.410721 66.07994 236.191248 65.061051 239.196848 
C 64.042163 242.202448 63.613749 245.376846 63.799434 248.545014 
C 63.985118 251.713182 64.781422 254.8158 66.144441 257.681798 
C 67.50746 260.547796 69.411673 263.123512 71.752086 265.266928 
C 74.092499 267.410345 76.825292 269.081328 79.799785 270.187745 
C 82.774277 271.294162 85.934777 271.815297 89.107022 271.722415 
C 92.279267 271.629533 95.403862 270.924374 98.308524 269.645818 
C 101.213185 268.367262 103.843529 266.539249 106.054524 264.26257 
C 108.265519 261.985891 110.015767 259.303173 111.208765 256.362336 
C 112.401762 253.421499 113.015172 250.277605 113.015172 247.104001 
L 88.386207 247.104 
L 112.846548 244.226909 
z
" style="fill: #ff6347"/>
   </g>
   <g id="text_26">
    <!-- Present -->
    <g transform="translate(115.431658 248.278259) scale(0.1 -0.1)">
     <use xlink:href="#DejaVuSans-50"/>
     <use xlink:href="#DejaVuSans-72" x="58.552734"/>
     <use xlink:href="#DejaVuSans-65" x="97.416016"/>
     <use xlink:href="#DejaVuSans-73" x="158.939453"/>
     <use xlink:href="#DejaVuSans-65" x="211.039062"/>
     <use xlink:href="#DejaVuSans-6e" x="272.5625"/>
     <use xlink:href="#DejaVuSans-74" x="335.941406"/>
    </g>
   </g>
   <g id="text_27">
    <!-- 2% -->
    <g transform="translate(95.20624 248.998766) scale(0.1 -0.1)">
     <use xlink:href="#DejaVuSans-32"/>
     <use xlink:href="#DejaVuSans-25" x="63.623047"/>
    </g>
   </g>
   <g id="text_28">
    <!-- Absent -->
    <g transform="translate(26.531381 251.44849) scale(0.1 -0.1)">
     <use xlink:href="#DejaVuSans-41"/>
     <use xlink:href="#DejaVuSans-62" x="68.408203"/>
     <use xlink:href="#DejaVuSans-73" x="131.884766"/>
     <use xlink:href="#DejaVuSans-65" x="183.984375"/>
     <use xlink:href="#DejaVuSans-6e" x="245.507812"/>
     <use xlink:href="#DejaVuSans-74" x="308.886719"/>
    </g>
   </g>
   <g id="text_29">
    <!-- 98% -->
    <g transform="translate(62.520862 250.727983) scale(0.1 -0.1)">
     <use xlink:href="#DejaVuSans-39"/>
     <use xlink:href="#DejaVuSans-38" x="63.623047"/>
     <use xlink:href="#DejaVuSans-25" x="127.246094"/>
    </g>
   </g>
   <g id="text_30">
    <!-- bksp -->
    <g transform="translate(71.324457 210.317793) scale(0.144 -0.144)">
     <defs>
      <path id="DejaVuSans-6b" d="M 581 4863 
L 1159 4863 
L 1159 1991 
L 2875 3500 
L 3609 3500 
L 1753 1863 
L 3688 0 
L 2938 0 
L 1159 1709 
L 1159 0 
L 581 0 
L 581 4863 
z
" transform="scale(0.015625)"/>
     </defs>
     <use xlink:href="#DejaVuSans-62"/>
     <use xlink:href="#DejaVuSans-6b" x="63.476562"/>
     <use xlink:href="#DejaVuSans-73" x="121.386719"/>
     <use xlink:href="#DejaVuSans-70" x="173.486328"/>
    </g>
   </g>
  </g>
  <g id="axes_7">
   <g id="matplotlib.axis_13"/>
   <g id="matplotlib.axis_14"/>
   <g id="patch_14">
    <path d="M 186.902069 247.104 
C 186.902069 246.623353 186.887999 246.142809 186.859877 245.662986 
C 186.831755 245.183162 186.789592 244.704265 186.733445 244.226909 
L 162.273103 247.104 
L 186.902069 247.104 
z
" style="fill: #20b2aa"/>
   </g>
   <g id="patch_15">
    <path d="M 186.733445 244.226909 
C 186.362712 241.075033 185.386241 238.02432 183.85787 235.242981 
C 182.3295 232.461641 180.277847 230.001751 177.816034 227.998942 
C 175.354222 225.996133 172.528343 224.487905 169.494211 223.557417 
C 166.460079 222.62693 163.274502 222.291606 160.113126 222.569933 
C 156.951749 222.84826 153.873766 223.735028 151.048887 225.181343 
C 148.224008 226.627657 145.705125 228.606438 143.631124 231.008579 
C 141.557124 233.410721 139.966836 236.191248 138.947948 239.196848 
C 137.929059 242.202448 137.500646 245.376846 137.68633 248.545014 
C 137.872014 251.713182 138.668319 254.8158 140.031338 257.681798 
C 141.394357 260.547796 143.29857 263.123512 145.638983 265.266928 
C 147.979396 267.410345 150.712188 269.081328 153.686681 270.187745 
C 156.661174 271.294162 159.821674 271.815297 162.993919 271.722415 
C 166.166164 271.629533 169.290758 270.924374 172.19542 269.645818 
C 175.100082 268.367262 177.730426 266.539249 179.941421 264.26257 
C 182.152415 261.985891 183.902664 259.303173 185.095661 256.362336 
C 186.288659 253.421499 186.902069 250.277605 186.902069 247.104001 
L 162.273103 247.104 
L 186.733445 244.226909 
z
" style="fill: #ff6347"/>
   </g>
   <g id="text_31">
    <!-- Present -->
    <g transform="translate(189.318554 248.278259) scale(0.1 -0.1)">
     <use xlink:href="#DejaVuSans-50"/>
     <use xlink:href="#DejaVuSans-72" x="58.552734"/>
     <use xlink:href="#DejaVuSans-65" x="97.416016"/>
     <use xlink:href="#DejaVuSans-73" x="158.939453"/>
     <use xlink:href="#DejaVuSans-65" x="211.039062"/>
     <use xlink:href="#DejaVuSans-6e" x="272.5625"/>
     <use xlink:href="#DejaVuSans-74" x="335.941406"/>
    </g>
   </g>
   <g id="text_32">
    <!-- 2% -->
    <g transform="translate(169.093136 248.998766) scale(0.1 -0.1)">
     <use xlink:href="#DejaVuSans-32"/>
     <use xlink:href="#DejaVuSans-25" x="63.623047"/>
    </g>
   </g>
   <g id="text_33">
    <!-- Absent -->
    <g transform="translate(100.418278 251.44849) scale(0.1 -0.1)">
     <use xlink:href="#DejaVuSans-41"/>
     <use xlink:href="#DejaVuSans-62" x="68.408203"/>
     <use xlink:href="#DejaVuSans-73" x="131.884766"/>
     <use xlink:href="#DejaVuSans-65" x="183.984375"/>
     <use xlink:href="#DejaVuSans-6e" x="245.507812"/>
     <use xlink:href="#DejaVuSans-74" x="308.886719"/>
    </g>
   </g>
   <g id="text_34">
    <!-- 98% -->
    <g transform="translate(136.407758 250.727983) scale(0.1 -0.1)">
     <use xlink:href="#DejaVuSans-39"/>
     <use xlink:href="#DejaVuSans-38" x="63.623047"/>
     <use xlink:href="#DejaVuSans-25" x="127.246094"/>
    </g>
   </g>
   <g id="text_35">
    <!-- del -->
    <g transform="translate(151.271728 210.317793) scale(0.144 -0.144)">
     <defs>
      <path id="DejaVuSans-64" d="M 2906 2969 
L 2906 4863 
L 3481 4863 
L 3481 0 
L 2906 0 
L 2906 525 
Q 2725 213 2448 61 
Q 2172 -91 1784 -91 
Q 1150 -91 751 415 
Q 353 922 353 1747 
Q 353 2572 751 3078 
Q 1150 3584 1784 3584 
Q 2172 3584 2448 3432 
Q 2725 3281 2906 2969 
z
M 947 1747 
Q 947 1113 1208 752 
Q 1469 391 1925 391 
Q 2381 391 2643 752 
Q 2906 1113 2906 1747 
Q 2906 2381 2643 2742 
Q 2381 3103 1925 3103 
Q 1469 3103 1208 2742 
Q 947 2381 947 1747 
z
" transform="scale(0.015625)"/>
     </defs>
     <use xlink:href="#DejaVuSans-64"/>
     <use xlink:href="#DejaVuSans-65" x="63.476562"/>
     <use xlink:href="#DejaVuSans-6c" x="125"/>
    </g>
   </g>
  </g>
  <g id="axes_8">
   <g id="matplotlib.axis_15"/>
   <g id="matplotlib.axis_16"/>
   <g id="patch_16">
    <path d="M 260.788966 247.104 
C 260.788966 247.102245 260.788965 247.10049 260.788965 247.098735 
C 260.788965 247.09698 260.788964 247.095225 260.788963 247.093471 
L 236.16 247.104 
L 260.788966 247.104 
z
" style="fill: #20b2aa"/>
   </g>
   <g id="patch_17">
    <path d="M 260.788963 247.093471 
C 260.787581 243.859446 260.149223 240.657137 258.910418 237.669784 
C 257.671613 234.682431 255.856449 231.968123 253.568793 229.682178 
C 251.281137 227.396233 248.565472 225.5831 245.577193 224.346531 
C 242.588914 223.109961 239.386128 222.473999 236.152104 222.475036 
C 232.918079 222.476073 229.715702 223.114088 226.728217 224.352574 
C 223.740731 225.591059 221.026229 227.405933 218.74004 229.693344 
C 216.45385 231.980756 214.640427 234.696227 213.403538 237.684374 
C 212.166648 240.67252 211.530344 243.875238 211.531035 247.109263 
C 211.531726 250.343287 212.169399 253.545733 213.407565 256.533351 
C 214.645731 259.520968 216.460315 262.235664 218.747482 264.522099 
C 221.034649 266.808533 223.749926 268.622246 226.73794 269.859455 
C 229.725955 271.096664 232.928605 271.733311 236.162629 271.732965 
C 239.396654 271.73262 242.599168 271.09529 245.586918 269.857443 
C 248.574668 268.619596 251.289558 266.805303 253.576237 264.51838 
C 255.862916 262.231458 257.676919 259.516375 258.914448 256.528493 
C 260.151976 253.540611 260.788965 250.338029 260.788966 247.104004 
L 236.16 247.104 
L 260.788963 247.093471 
z
" style="fill: #ff6347"/>
   </g>
   <g id="text_36">
    <!-- Present -->
    <g transform="translate(263.251861 249.857584) scale(0.1 -0.1)">
     <use xlink:href="#DejaVuSans-50"/>
     <use xlink:href="#DejaVuSans-72" x="58.552734"/>
     <use xlink:href="#DejaVuSans-65" x="97.416016"/>
     <use xlink:href="#DejaVuSans-73" x="158.939453"/>
     <use xlink:href="#DejaVuSans-65" x="211.039062"/>
     <use xlink:href="#DejaVuSans-6e" x="272.5625"/>
     <use xlink:href="#DejaVuSans-74" x="335.941406"/>
    </g>
   </g>
   <g id="text_37">
    <!-- 0% -->
    <g transform="translate(243.005348 249.860216) scale(0.1 -0.1)">
     <use xlink:href="#DejaVuSans-30"/>
     <use xlink:href="#DejaVuSans-25" x="63.623047"/>
    </g>
   </g>
   <g id="text_38">
    <!-- Absent -->
    <g transform="translate(174.258764 249.869164) scale(0.1 -0.1)">
     <use xlink:href="#DejaVuSans-41"/>
     <use xlink:href="#DejaVuSans-62" x="68.408203"/>
     <use xlink:href="#DejaVuSans-73" x="131.884766"/>
     <use xlink:href="#DejaVuSans-65" x="183.984375"/>
     <use xlink:href="#DejaVuSans-6e" x="245.507812"/>
     <use xlink:href="#DejaVuSans-74" x="308.886719"/>
    </g>
   </g>
   <g id="text_39">
    <!-- 100% -->
    <g transform="translate(207.08809 249.866533) scale(0.1 -0.1)">
     <use xlink:href="#DejaVuSans-31"/>
     <use xlink:href="#DejaVuSans-30" x="63.623047"/>
     <use xlink:href="#DejaVuSans-30" x="127.246094"/>
     <use xlink:href="#DejaVuSans-25" x="190.869141"/>
    </g>
   </g>
   <g id="text_40">
    <!-- homo -->
    <g transform="translate(215.77275 210.317793) scale(0.144 -0.144)">
     <defs>
      <path id="DejaVuSans-68" d="M 3513 2113 
L 3513 0 
L 2938 0 
L 2938 2094 
Q 2938 2591 2744 2837 
Q 2550 3084 2163 3084 
Q 1697 3084 1428 2787 
Q 1159 2491 1159 1978 
L 1159 0 
L 581 0 
L 581 4863 
L 1159 4863 
L 1159 2956 
Q 1366 3272 1645 3428 
Q 1925 3584 2291 3584 
Q 2894 3584 3203 3211 
Q 3513 2838 3513 2113 
z
" transform="scale(0.015625)"/>
      <path id="DejaVuSans-6d" d="M 3328 2828 
Q 3544 3216 3844 3400 
Q 4144 3584 4550 3584 
Q 5097 3584 5394 3201 
Q 5691 2819 5691 2113 
L 5691 0 
L 5113 0 
L 5113 2094 
Q 5113 2597 4934 2840 
Q 4756 3084 4391 3084 
Q 3944 3084 3684 2787 
Q 3425 2491 3425 1978 
L 3425 0 
L 2847 0 
L 2847 2094 
Q 2847 2600 2669 2842 
Q 2491 3084 2119 3084 
Q 1678 3084 1418 2786 
Q 1159 2488 1159 1978 
L 1159 0 
L 581 0 
L 581 3500 
L 1159 3500 
L 1159 2956 
Q 1356 3278 1631 3431 
Q 1906 3584 2284 3584 
Q 2666 3584 2933 3390 
Q 3200 3197 3328 2828 
z
" transform="scale(0.015625)"/>
     </defs>
     <use xlink:href="#DejaVuSans-68"/>
     <use xlink:href="#DejaVuSans-6f" x="63.378906"/>
     <use xlink:href="#DejaVuSans-6d" x="124.560547"/>
     <use xlink:href="#DejaVuSans-6f" x="221.972656"/>
    </g>
   </g>
  </g>
  <g id="axes_9">
   <g id="matplotlib.axis_17"/>
   <g id="matplotlib.axis_18"/>
   <g id="patch_18">
    <path d="M 334.675862 247.104 
C 334.675862 243.473744 333.873224 239.887989 332.325571 236.604161 
C 330.777917 233.320332 328.523191 230.41894 325.723263 228.108277 
L 310.046897 247.104 
L 334.675862 247.104 
z
" style="fill: #20b2aa"/>
   </g>
   <g id="patch_19">
    <path d="M 325.723263 228.108277 
C 323.580252 226.339741 321.153334 224.946536 318.545466 223.987766 
C 315.937598 223.028997 313.186188 222.518415 310.407959 222.477681 
C 307.62973 222.436948 304.864534 222.866647 302.229678 223.74855 
C 299.594823 224.630453 297.128103 225.951909 294.934166 227.656859 
C 292.740228 229.361808 290.850542 231.425794 289.345275 233.761257 
C 287.840007 236.096719 286.74075 238.670158 286.094137 241.372399 
C 285.447524 244.07464 285.26283 246.866922 285.547891 249.630788 
C 285.832951 252.394654 286.583678 255.090459 287.768222 257.603837 
C 288.952765 260.117216 290.554135 262.412116 292.504396 264.391181 
C 294.454657 266.370246 296.725834 268.005087 299.221577 269.22635 
C 301.717319 270.447614 304.401828 271.237781 307.161218 271.56333 
C 309.920608 271.888879 312.715298 271.74514 315.426728 271.138212 
C 318.138158 270.531284 320.727436 269.469872 323.084715 267.999005 
C 325.441994 266.528138 327.533462 264.668914 329.270392 262.500207 
C 331.007321 260.3315 332.364798 257.884418 333.285234 255.262775 
C 334.20567 252.641132 334.675862 249.882532 334.675862 247.104005 
L 310.046897 247.104 
L 325.723263 228.108277 
z
" style="fill: #ff6347"/>
   </g>
   <g id="text_41">
    <!-- Present -->
    <g transform="translate(334.553438 238.313552) scale(0.1 -0.1)">
     <use xlink:href="#DejaVuSans-50"/>
     <use xlink:href="#DejaVuSans-72" x="58.552734"/>
     <use xlink:href="#DejaVuSans-65" x="97.416016"/>
     <use xlink:href="#DejaVuSans-73" x="158.939453"/>
     <use xlink:href="#DejaVuSans-65" x="211.039062"/>
     <use xlink:href="#DejaVuSans-6e" x="272.5625"/>
     <use xlink:href="#DejaVuSans-74" x="335.941406"/>
    </g>
   </g>
   <g id="text_42">
    <!-- 14% -->
    <g transform="translate(312.30082 243.563471) scale(0.1 -0.1)">
     <defs>
      <path id="DejaVuSans-34" d="M 2419 4116 
L 825 1625 
L 2419 1625 
L 2419 4116 
z
M 2253 4666 
L 3047 4666 
L 3047 1625 
L 3713 1625 
L 3713 1100 
L 3047 1100 
L 3047 0 
L 2419 0 
L 2419 1100 
L 313 1100 
L 313 1709 
L 2253 4666 
z
" transform="scale(0.015625)"/>
     </defs>
     <use xlink:href="#DejaVuSans-31"/>
     <use xlink:href="#DejaVuSans-34" x="63.623047"/>
     <use xlink:href="#DejaVuSans-25" x="127.246094"/>
    </g>
   </g>
   <g id="text_43">
    <!-- Absent -->
    <g transform="translate(250.730979 261.413196) scale(0.1 -0.1)">
     <use xlink:href="#DejaVuSans-41"/>
     <use xlink:href="#DejaVuSans-62" x="68.408203"/>
     <use xlink:href="#DejaVuSans-73" x="131.884766"/>
     <use xlink:href="#DejaVuSans-65" x="183.984375"/>
     <use xlink:href="#DejaVuSans-6e" x="245.507812"/>
     <use xlink:href="#DejaVuSans-74" x="308.886719"/>
    </g>
   </g>
   <g id="text_44">
    <!-- 86% -->
    <g transform="translate(285.56641 256.163277) scale(0.1 -0.1)">
     <defs>
      <path id="DejaVuSans-36" d="M 2113 2584 
Q 1688 2584 1439 2293 
Q 1191 2003 1191 1497 
Q 1191 994 1439 701 
Q 1688 409 2113 409 
Q 2538 409 2786 701 
Q 3034 994 3034 1497 
Q 3034 2003 2786 2293 
Q 2538 2584 2113 2584 
z
M 3366 4563 
L 3366 3988 
Q 3128 4100 2886 4159 
Q 2644 4219 2406 4219 
Q 1781 4219 1451 3797 
Q 1122 3375 1075 2522 
Q 1259 2794 1537 2939 
Q 1816 3084 2150 3084 
Q 2853 3084 3261 2657 
Q 3669 2231 3669 1497 
Q 3669 778 3244 343 
Q 2819 -91 2113 -91 
Q 1303 -91 875 529 
Q 447 1150 447 2328 
Q 447 3434 972 4092 
Q 1497 4750 2381 4750 
Q 2619 4750 2861 4703 
Q 3103 4656 3366 4563 
z
" transform="scale(0.015625)"/>
     </defs>
     <use xlink:href="#DejaVuSans-38"/>
     <use xlink:href="#DejaVuSans-36" x="63.623047"/>
     <use xlink:href="#DejaVuSans-25" x="127.246094"/>
    </g>
   </g>
   <g id="text_45">
    <!-- zwsp2 -->
    <g transform="translate(287.477147 210.317793) scale(0.144 -0.144)">
     <use xlink:href="#DejaVuSans-7a"/>
     <use xlink:href="#DejaVuSans-77" x="52.490234"/>
     <use xlink:href="#DejaVuSans-73" x="134.277344"/>
     <use xlink:href="#DejaVuSans-70" x="186.376953"/>
     <use xlink:href="#DejaVuSans-32" x="249.853516"/>
    </g>
   </g>
  </g>
  <g id="axes_10">
   <g id="matplotlib.axis_19"/>
   <g id="matplotlib.axis_20"/>
   <g id="patch_20">
    <path d="M 408.562759 247.104 
C 408.562759 247.102011 408.562758 247.100022 408.562758 247.098033 
C 408.562757 247.096044 408.562757 247.094055 408.562756 247.092067 
L 383.933793 247.104 
L 408.562759 247.104 
z
" style="fill: #20b2aa"/>
   </g>
   <g id="patch_21">
    <path d="M 408.562756 247.092067 
C 408.561189 243.858072 407.92266 240.655827 406.683707 237.668568 
C 405.444753 234.681309 403.629466 231.96712 401.341717 229.68131 
C 399.053968 227.3955 396.338241 225.582514 393.349932 224.346094 
C 390.361623 223.109674 387.158838 222.473861 383.924844 222.475036 
C 380.690849 222.476211 377.488527 223.114352 374.501117 224.352943 
C 371.513708 225.591535 368.799299 227.406493 366.513212 229.693966 
C 364.227125 231.981438 362.41381 234.696945 361.177028 237.685104 
C 359.940246 240.673263 359.304045 243.875971 359.304828 247.109966 
C 359.305612 250.343961 359.943364 253.54636 361.181594 256.533919 
C 362.419823 259.521479 364.234453 262.236107 366.521648 264.522472 
C 368.808843 266.808836 371.524131 268.622479 374.51214 269.859623 
C 377.500149 271.096768 380.70278 271.733357 383.936775 271.732965 
C 387.17077 271.732574 390.373246 271.095209 393.360956 269.857341 
C 396.348665 268.619474 399.063514 266.805173 401.350155 264.518255 
C 403.636797 262.231337 405.450769 259.516269 406.688275 256.52841 
C 407.925781 253.540551 408.562758 250.337997 408.562759 247.104002 
L 383.933793 247.104 
L 408.562756 247.092067 
z
" style="fill: #ff6347"/>
   </g>
   <g id="text_46">
    <!-- Present -->
    <g transform="translate(411.025654 249.856812) scale(0.1 -0.1)">
     <use xlink:href="#DejaVuSans-50"/>
     <use xlink:href="#DejaVuSans-72" x="58.552734"/>
     <use xlink:href="#DejaVuSans-65" x="97.416016"/>
     <use xlink:href="#DejaVuSans-73" x="158.939453"/>
     <use xlink:href="#DejaVuSans-65" x="211.039062"/>
     <use xlink:href="#DejaVuSans-6e" x="272.5625"/>
     <use xlink:href="#DejaVuSans-74" x="335.941406"/>
    </g>
   </g>
   <g id="text_47">
    <!-- 0% -->
    <g transform="translate(390.779141 249.859795) scale(0.1 -0.1)">
     <use xlink:href="#DejaVuSans-30"/>
     <use xlink:href="#DejaVuSans-25" x="63.623047"/>
    </g>
   </g>
   <g id="text_48">
    <!-- Absent -->
    <g transform="translate(322.032557 249.869937) scale(0.1 -0.1)">
     <use xlink:href="#DejaVuSans-41"/>
     <use xlink:href="#DejaVuSans-62" x="68.408203"/>
     <use xlink:href="#DejaVuSans-73" x="131.884766"/>
     <use xlink:href="#DejaVuSans-65" x="183.984375"/>
     <use xlink:href="#DejaVuSans-6e" x="245.507812"/>
     <use xlink:href="#DejaVuSans-74" x="308.886719"/>
    </g>
   </g>
   <g id="text_49">
    <!-- 100% -->
    <g transform="translate(354.861883 249.866954) scale(0.1 -0.1)">
     <use xlink:href="#DejaVuSans-31"/>
     <use xlink:href="#DejaVuSans-30" x="63.623047"/>
     <use xlink:href="#DejaVuSans-30" x="127.246094"/>
     <use xlink:href="#DejaVuSans-25" x="190.869141"/>
    </g>
   </g>
   <g id="text_50">
    <!-- homo2 -->
    <g transform="translate(358.965543 210.317793) scale(0.144 -0.144)">
     <use xlink:href="#DejaVuSans-68"/>
     <use xlink:href="#DejaVuSans-6f" x="63.378906"/>
     <use xlink:href="#DejaVuSans-6d" x="124.560547"/>
     <use xlink:href="#DejaVuSans-6f" x="221.972656"/>
     <use xlink:href="#DejaVuSans-32" x="283.154297"/>
    </g>
   </g>
  </g>
  <g id="text_51">
   <!-- Percentage Target Page in Elasticsearch SERP per Technique -->
   <g transform="translate(-10.57125 19.0695) scale(0.16 -0.16)">
    <defs>
     <path id="DejaVuSans-63" d="M 3122 3366 
L 3122 2828 
Q 2878 2963 2633 3030 
Q 2388 3097 2138 3097 
Q 1578 3097 1268 2742 
Q 959 2388 959 1747 
Q 959 1106 1268 751 
Q 1578 397 2138 397 
Q 2388 397 2633 464 
Q 2878 531 3122 666 
L 3122 134 
Q 2881 22 2623 -34 
Q 2366 -91 2075 -91 
Q 1284 -91 818 406 
Q 353 903 353 1747 
Q 353 2603 823 3093 
Q 1294 3584 2113 3584 
Q 2378 3584 2631 3529 
Q 2884 3475 3122 3366 
z
" transform="scale(0.015625)"/>
     <path id="DejaVuSans-67" d="M 2906 1791 
Q 2906 2416 2648 2759 
Q 2391 3103 1925 3103 
Q 1463 3103 1205 2759 
Q 947 2416 947 1791 
Q 947 1169 1205 825 
Q 1463 481 1925 481 
Q 2391 481 2648 825 
Q 2906 1169 2906 1791 
z
M 3481 434 
Q 3481 -459 3084 -895 
Q 2688 -1331 1869 -1331 
Q 1566 -1331 1297 -1286 
Q 1028 -1241 775 -1147 
L 775 -588 
Q 1028 -725 1275 -790 
Q 1522 -856 1778 -856 
Q 2344 -856 2625 -561 
Q 2906 -266 2906 331 
L 2906 616 
Q 2728 306 2450 153 
Q 2172 0 1784 0 
Q 1141 0 747 490 
Q 353 981 353 1791 
Q 353 2603 747 3093 
Q 1141 3584 1784 3584 
Q 2172 3584 2450 3431 
Q 2728 3278 2906 2969 
L 2906 3500 
L 3481 3500 
L 3481 434 
z
" transform="scale(0.015625)"/>
     <path id="DejaVuSans-20" transform="scale(0.015625)"/>
     <path id="DejaVuSans-54" d="M -19 4666 
L 3928 4666 
L 3928 4134 
L 2272 4134 
L 2272 0 
L 1638 0 
L 1638 4134 
L -19 4134 
L -19 4666 
z
" transform="scale(0.015625)"/>
     <path id="DejaVuSans-69" d="M 603 3500 
L 1178 3500 
L 1178 0 
L 603 0 
L 603 3500 
z
M 603 4863 
L 1178 4863 
L 1178 4134 
L 603 4134 
L 603 4863 
z
" transform="scale(0.015625)"/>
     <path id="DejaVuSans-45" d="M 628 4666 
L 3578 4666 
L 3578 4134 
L 1259 4134 
L 1259 2753 
L 3481 2753 
L 3481 2222 
L 1259 2222 
L 1259 531 
L 3634 531 
L 3634 0 
L 628 0 
L 628 4666 
z
" transform="scale(0.015625)"/>
     <path id="DejaVuSans-53" d="M 3425 4513 
L 3425 3897 
Q 3066 4069 2747 4153 
Q 2428 4238 2131 4238 
Q 1616 4238 1336 4038 
Q 1056 3838 1056 3469 
Q 1056 3159 1242 3001 
Q 1428 2844 1947 2747 
L 2328 2669 
Q 3034 2534 3370 2195 
Q 3706 1856 3706 1288 
Q 3706 609 3251 259 
Q 2797 -91 1919 -91 
Q 1588 -91 1214 -16 
Q 841 59 441 206 
L 441 856 
Q 825 641 1194 531 
Q 1563 422 1919 422 
Q 2459 422 2753 634 
Q 3047 847 3047 1241 
Q 3047 1584 2836 1778 
Q 2625 1972 2144 2069 
L 1759 2144 
Q 1053 2284 737 2584 
Q 422 2884 422 3419 
Q 422 4038 858 4394 
Q 1294 4750 2059 4750 
Q 2388 4750 2728 4690 
Q 3069 4631 3425 4513 
z
" transform="scale(0.015625)"/>
     <path id="DejaVuSans-52" d="M 2841 2188 
Q 3044 2119 3236 1894 
Q 3428 1669 3622 1275 
L 4263 0 
L 3584 0 
L 2988 1197 
Q 2756 1666 2539 1819 
Q 2322 1972 1947 1972 
L 1259 1972 
L 1259 0 
L 628 0 
L 628 4666 
L 2053 4666 
Q 2853 4666 3247 4331 
Q 3641 3997 3641 3322 
Q 3641 2881 3436 2590 
Q 3231 2300 2841 2188 
z
M 1259 4147 
L 1259 2491 
L 2053 2491 
Q 2509 2491 2742 2702 
Q 2975 2913 2975 3322 
Q 2975 3731 2742 3939 
Q 2509 4147 2053 4147 
L 1259 4147 
z
" transform="scale(0.015625)"/>
     <path id="DejaVuSans-71" d="M 947 1747 
Q 947 1113 1208 752 
Q 1469 391 1925 391 
Q 2381 391 2643 752 
Q 2906 1113 2906 1747 
Q 2906 2381 2643 2742 
Q 2381 3103 1925 3103 
Q 1469 3103 1208 2742 
Q 947 2381 947 1747 
z
M 2906 525 
Q 2725 213 2448 61 
Q 2172 -91 1784 -91 
Q 1150 -91 751 415 
Q 353 922 353 1747 
Q 353 2572 751 3078 
Q 1150 3584 1784 3584 
Q 2172 3584 2448 3432 
Q 2725 3281 2906 2969 
L 2906 3500 
L 3481 3500 
L 3481 -1331 
L 2906 -1331 
L 2906 525 
z
" transform="scale(0.015625)"/>
     <path id="DejaVuSans-75" d="M 544 1381 
L 544 3500 
L 1119 3500 
L 1119 1403 
Q 1119 906 1312 657 
Q 1506 409 1894 409 
Q 2359 409 2629 706 
Q 2900 1003 2900 1516 
L 2900 3500 
L 3475 3500 
L 3475 0 
L 2900 0 
L 2900 538 
Q 2691 219 2414 64 
Q 2138 -91 1772 -91 
Q 1169 -91 856 284 
Q 544 659 544 1381 
z
M 1991 3584 
L 1991 3584 
z
" transform="scale(0.015625)"/>
    </defs>
    <use xlink:href="#DejaVuSans-50"/>
    <use xlink:href="#DejaVuSans-65" x="56.677734"/>
    <use xlink:href="#DejaVuSans-72" x="118.201172"/>
    <use xlink:href="#DejaVuSans-63" x="157.064453"/>
    <use xlink:href="#DejaVuSans-65" x="212.044922"/>
    <use xlink:href="#DejaVuSans-6e" x="273.568359"/>
    <use xlink:href="#DejaVuSans-74" x="336.947266"/>
    <use xlink:href="#DejaVuSans-61" x="376.15625"/>
    <use xlink:href="#DejaVuSans-67" x="437.435547"/>
    <use xlink:href="#DejaVuSans-65" x="500.912109"/>
    <use xlink:href="#DejaVuSans-20" x="562.435547"/>
    <use xlink:href="#DejaVuSans-54" x="594.222656"/>
    <use xlink:href="#DejaVuSans-61" x="638.806641"/>
    <use xlink:href="#DejaVuSans-72" x="700.085938"/>
    <use xlink:href="#DejaVuSans-67" x="739.449219"/>
    <use xlink:href="#DejaVuSans-65" x="802.925781"/>
    <use xlink:href="#DejaVuSans-74" x="864.449219"/>
    <use xlink:href="#DejaVuSans-20" x="903.658203"/>
    <use xlink:href="#DejaVuSans-50" x="935.445312"/>
    <use xlink:href="#DejaVuSans-61" x="991.248047"/>
    <use xlink:href="#DejaVuSans-67" x="1052.527344"/>
    <use xlink:href="#DejaVuSans-65" x="1116.003906"/>
    <use xlink:href="#DejaVuSans-20" x="1177.527344"/>
    <use xlink:href="#DejaVuSans-69" x="1209.314453"/>
    <use xlink:href="#DejaVuSans-6e" x="1237.097656"/>
    <use xlink:href="#DejaVuSans-20" x="1300.476562"/>
    <use xlink:href="#DejaVuSans-45" x="1332.263672"/>
    <use xlink:href="#DejaVuSans-6c" x="1395.447266"/>
    <use xlink:href="#DejaVuSans-61" x="1423.230469"/>
    <use xlink:href="#DejaVuSans-73" x="1484.509766"/>
    <use xlink:href="#DejaVuSans-74" x="1536.609375"/>
    <use xlink:href="#DejaVuSans-69" x="1575.818359"/>
    <use xlink:href="#DejaVuSans-63" x="1603.601562"/>
    <use xlink:href="#DejaVuSans-73" x="1658.582031"/>
    <use xlink:href="#DejaVuSans-65" x="1710.681641"/>
    <use xlink:href="#DejaVuSans-61" x="1772.205078"/>
    <use xlink:href="#DejaVuSans-72" x="1833.484375"/>
    <use xlink:href="#DejaVuSans-63" x="1872.347656"/>
    <use xlink:href="#DejaVuSans-68" x="1927.328125"/>
    <use xlink:href="#DejaVuSans-20" x="1990.707031"/>
    <use xlink:href="#DejaVuSans-53" x="2022.494141"/>
    <use xlink:href="#DejaVuSans-45" x="2085.970703"/>
    <use xlink:href="#DejaVuSans-52" x="2149.154297"/>
    <use xlink:href="#DejaVuSans-50" x="2218.636719"/>
    <use xlink:href="#DejaVuSans-20" x="2278.939453"/>
    <use xlink:href="#DejaVuSans-70" x="2310.726562"/>
    <use xlink:href="#DejaVuSans-65" x="2374.203125"/>
    <use xlink:href="#DejaVuSans-72" x="2435.726562"/>
    <use xlink:href="#DejaVuSans-20" x="2476.839844"/>
    <use xlink:href="#DejaVuSans-54" x="2508.626953"/>
    <use xlink:href="#DejaVuSans-65" x="2552.710938"/>
    <use xlink:href="#DejaVuSans-63" x="2614.234375"/>
    <use xlink:href="#DejaVuSans-68" x="2669.214844"/>
    <use xlink:href="#DejaVuSans-6e" x="2732.59375"/>
    <use xlink:href="#DejaVuSans-69" x="2795.972656"/>
    <use xlink:href="#DejaVuSans-71" x="2823.755859"/>
    <use xlink:href="#DejaVuSans-75" x="2887.232422"/>
    <use xlink:href="#DejaVuSans-65" x="2950.611328"/>
   </g>
  </g>
 </g>
</svg>
