<?xml version="1.0" encoding="utf-8" standalone="no"?>
<!DOCTYPE svg PUBLIC "-//W3C//DTD SVG 1.1//EN"
  "http://www.w3.org/Graphics/SVG/1.1/DTD/svg11.dtd">
<svg xmlns:xlink="http://www.w3.org/1999/xlink" width="371.52pt" height="393.850207pt" viewBox="0 0 371.52 393.850207" xmlns="http://www.w3.org/2000/svg" version="1.1">
 <metadata>
  <rdf:RDF xmlns:dc="http://purl.org/dc/elements/1.1/" xmlns:cc="http://creativecommons.org/ns#" xmlns:rdf="http://www.w3.org/1999/02/22-rdf-syntax-ns#">
   <cc:Work>
    <dc:type rdf:resource="http://purl.org/dc/dcmitype/StillImage"/>
    <dc:date>2023-03-03T17:04:44.790417</dc:date>
    <dc:format>image/svg+xml</dc:format>
    <dc:creator>
     <cc:Agent>
      <dc:title>Matplotlib v3.5.3, https://matplotlib.org/</dc:title>
     </cc:Agent>
    </dc:creator>
   </cc:Work>
  </rdf:RDF>
 </metadata>
 <defs>
  <style type="text/css">*{stroke-linejoin: round; stroke-linecap: butt}</style>
 </defs>
 <g id="figure_1">
  <g id="patch_1">
   <path d="M 0 393.850207 
L 371.52 393.850207 
L 371.52 0 
L 0 0 
z
" style="fill: #ffffff"/>
  </g>
  <g id="axes_1">
   <g id="matplotlib.axis_1"/>
   <g id="matplotlib.axis_2"/>
   <g id="patch_2">
    <path d="M 62.615172 126.432 
C 62.615172 123.277759 62.009225 120.152686 60.830341 117.227029 
C 59.651457 114.301372 57.921439 111.62924 55.734535 109.356205 
C 53.547631 107.083169 50.944288 105.25127 48.066329 103.960305 
C 45.18837 102.66934 42.089024 101.943185 38.937134 101.821399 
C 35.785245 101.699613 32.639107 102.18445 29.670115 103.249495 
C 26.701122 104.31454 23.964186 105.940096 21.608409 108.037607 
C 19.252632 110.135118 17.321584 112.66579 15.920463 115.491759 
C 14.519342 118.317728 13.674062 121.386726 13.430672 124.531563 
C 13.187283 127.6764 13.550284 130.838912 14.499902 133.846812 
C 15.44952 136.854712 16.968191 139.65237 18.973181 142.087376 
C 20.978171 144.522382 23.432398 146.5497 26.202162 148.058887 
C 28.971926 149.568074 32.006 150.531218 35.139095 150.895849 
C 38.27219 151.26048 41.446359 151.019853 44.488681 150.187079 
C 47.531003 149.354305 50.385211 147.944784 52.895814 146.035305 
C 55.406417 144.125826 57.526981 141.751703 59.141984 139.042275 
C 60.756987 136.332846 61.836559 133.338222 62.321887 130.221541 
L 37.986207 126.432 
L 62.615172 126.432 
z
" style="fill: #20b2aa"/>
   </g>
   <g id="patch_3">
    <path d="M 62.321887 130.221541 
C 62.419466 129.594906 62.492806 128.964735 62.541742 128.332437 
C 62.590677 127.70014 62.615172 127.066189 62.615172 126.432001 
L 37.986207 126.432 
L 62.321887 130.221541 
z
" style="fill: #ff6347"/>
   </g>
   <g id="text_1">
    <!-- 98% -->
    <g transform="translate(12.139605 128.051113)scale(0.1 -0.1)">
     <defs>
      <path id="DejaVuSans-39" d="M 703 97 
L 703 672 
Q 941 559 1184 500 
Q 1428 441 1663 441 
Q 2288 441 2617 861 
Q 2947 1281 2994 2138 
Q 2813 1869 2534 1725 
Q 2256 1581 1919 1581 
Q 1219 1581 811 2004 
Q 403 2428 403 3163 
Q 403 3881 828 4315 
Q 1253 4750 1959 4750 
Q 2769 4750 3195 4129 
Q 3622 3509 3622 2328 
Q 3622 1225 3098 567 
Q 2575 -91 1691 -91 
Q 1453 -91 1209 -44 
Q 966 3 703 97 
z
M 1959 2075 
Q 2384 2075 2632 2365 
Q 2881 2656 2881 3163 
Q 2881 3666 2632 3958 
Q 2384 4250 1959 4250 
Q 1534 4250 1286 3958 
Q 1038 3666 1038 3163 
Q 1038 2656 1286 2365 
Q 1534 2075 1959 2075 
z
" transform="scale(0.015625)"/>
      <path id="DejaVuSans-38" d="M 2034 2216 
Q 1584 2216 1326 1975 
Q 1069 1734 1069 1313 
Q 1069 891 1326 650 
Q 1584 409 2034 409 
Q 2484 409 2743 651 
Q 3003 894 3003 1313 
Q 3003 1734 2745 1975 
Q 2488 2216 2034 2216 
z
M 1403 2484 
Q 997 2584 770 2862 
Q 544 3141 544 3541 
Q 544 4100 942 4425 
Q 1341 4750 2034 4750 
Q 2731 4750 3128 4425 
Q 3525 4100 3525 3541 
Q 3525 3141 3298 2862 
Q 3072 2584 2669 2484 
Q 3125 2378 3379 2068 
Q 3634 1759 3634 1313 
Q 3634 634 3220 271 
Q 2806 -91 2034 -91 
Q 1263 -91 848 271 
Q 434 634 434 1313 
Q 434 1759 690 2068 
Q 947 2378 1403 2484 
z
M 1172 3481 
Q 1172 3119 1398 2916 
Q 1625 2713 2034 2713 
Q 2441 2713 2670 2916 
Q 2900 3119 2900 3481 
Q 2900 3844 2670 4047 
Q 2441 4250 2034 4250 
Q 1625 4250 1398 4047 
Q 1172 3844 1172 3481 
z
" transform="scale(0.015625)"/>
      <path id="DejaVuSans-25" d="M 4653 2053 
Q 4381 2053 4226 1822 
Q 4072 1591 4072 1178 
Q 4072 772 4226 539 
Q 4381 306 4653 306 
Q 4919 306 5073 539 
Q 5228 772 5228 1178 
Q 5228 1588 5073 1820 
Q 4919 2053 4653 2053 
z
M 4653 2450 
Q 5147 2450 5437 2106 
Q 5728 1763 5728 1178 
Q 5728 594 5436 251 
Q 5144 -91 4653 -91 
Q 4153 -91 3862 251 
Q 3572 594 3572 1178 
Q 3572 1766 3864 2108 
Q 4156 2450 4653 2450 
z
M 1428 4353 
Q 1159 4353 1004 4120 
Q 850 3888 850 3481 
Q 850 3069 1003 2837 
Q 1156 2606 1428 2606 
Q 1700 2606 1854 2837 
Q 2009 3069 2009 3481 
Q 2009 3884 1853 4118 
Q 1697 4353 1428 4353 
z
M 4250 4750 
L 4750 4750 
L 1831 -91 
L 1331 -91 
L 4250 4750 
z
M 1428 4750 
Q 1922 4750 2215 4408 
Q 2509 4066 2509 3481 
Q 2509 2891 2217 2550 
Q 1925 2209 1428 2209 
Q 931 2209 642 2551 
Q 353 2894 353 3481 
Q 353 4063 643 4406 
Q 934 4750 1428 4750 
z
" transform="scale(0.015625)"/>
     </defs>
     <use xlink:href="#DejaVuSans-39"/>
     <use xlink:href="#DejaVuSans-38" x="63.623047"/>
     <use xlink:href="#DejaVuSans-25" x="127.246094"/>
    </g>
   </g>
   <g id="text_2">
    <!-- 2% -->
    <g transform="translate(44.787496 130.331637)scale(0.1 -0.1)">
     <defs>
      <path id="DejaVuSans-32" d="M 1228 531 
L 3431 531 
L 3431 0 
L 469 0 
L 469 531 
Q 828 903 1448 1529 
Q 2069 2156 2228 2338 
Q 2531 2678 2651 2914 
Q 2772 3150 2772 3378 
Q 2772 3750 2511 3984 
Q 2250 4219 1831 4219 
Q 1534 4219 1204 4116 
Q 875 4013 500 3803 
L 500 4441 
Q 881 4594 1212 4672 
Q 1544 4750 1819 4750 
Q 2544 4750 2975 4387 
Q 3406 4025 3406 3419 
Q 3406 3131 3298 2873 
Q 3191 2616 2906 2266 
Q 2828 2175 2409 1742 
Q 1991 1309 1228 531 
z
" transform="scale(0.015625)"/>
     </defs>
     <use xlink:href="#DejaVuSans-32"/>
     <use xlink:href="#DejaVuSans-25" x="63.623047"/>
    </g>
   </g>
   <g id="text_3">
    <!-- base -->
    <g transform="translate(20.822082 89.645793)scale(0.144 -0.144)">
     <defs>
      <path id="DejaVuSans-62" d="M 3116 1747 
Q 3116 2381 2855 2742 
Q 2594 3103 2138 3103 
Q 1681 3103 1420 2742 
Q 1159 2381 1159 1747 
Q 1159 1113 1420 752 
Q 1681 391 2138 391 
Q 2594 391 2855 752 
Q 3116 1113 3116 1747 
z
M 1159 2969 
Q 1341 3281 1617 3432 
Q 1894 3584 2278 3584 
Q 2916 3584 3314 3078 
Q 3713 2572 3713 1747 
Q 3713 922 3314 415 
Q 2916 -91 2278 -91 
Q 1894 -91 1617 61 
Q 1341 213 1159 525 
L 1159 0 
L 581 0 
L 581 4863 
L 1159 4863 
L 1159 2969 
z
" transform="scale(0.015625)"/>
      <path id="DejaVuSans-61" d="M 2194 1759 
Q 1497 1759 1228 1600 
Q 959 1441 959 1056 
Q 959 750 1161 570 
Q 1363 391 1709 391 
Q 2188 391 2477 730 
Q 2766 1069 2766 1631 
L 2766 1759 
L 2194 1759 
z
M 3341 1997 
L 3341 0 
L 2766 0 
L 2766 531 
Q 2569 213 2275 61 
Q 1981 -91 1556 -91 
Q 1019 -91 701 211 
Q 384 513 384 1019 
Q 384 1609 779 1909 
Q 1175 2209 1959 2209 
L 2766 2209 
L 2766 2266 
Q 2766 2663 2505 2880 
Q 2244 3097 1772 3097 
Q 1472 3097 1187 3025 
Q 903 2953 641 2809 
L 641 3341 
Q 956 3463 1253 3523 
Q 1550 3584 1831 3584 
Q 2591 3584 2966 3190 
Q 3341 2797 3341 1997 
z
" transform="scale(0.015625)"/>
      <path id="DejaVuSans-73" d="M 2834 3397 
L 2834 2853 
Q 2591 2978 2328 3040 
Q 2066 3103 1784 3103 
Q 1356 3103 1142 2972 
Q 928 2841 928 2578 
Q 928 2378 1081 2264 
Q 1234 2150 1697 2047 
L 1894 2003 
Q 2506 1872 2764 1633 
Q 3022 1394 3022 966 
Q 3022 478 2636 193 
Q 2250 -91 1575 -91 
Q 1294 -91 989 -36 
Q 684 19 347 128 
L 347 722 
Q 666 556 975 473 
Q 1284 391 1588 391 
Q 1994 391 2212 530 
Q 2431 669 2431 922 
Q 2431 1156 2273 1281 
Q 2116 1406 1581 1522 
L 1381 1569 
Q 847 1681 609 1914 
Q 372 2147 372 2553 
Q 372 3047 722 3315 
Q 1072 3584 1716 3584 
Q 2034 3584 2315 3537 
Q 2597 3491 2834 3397 
z
" transform="scale(0.015625)"/>
      <path id="DejaVuSans-65" d="M 3597 1894 
L 3597 1613 
L 953 1613 
Q 991 1019 1311 708 
Q 1631 397 2203 397 
Q 2534 397 2845 478 
Q 3156 559 3463 722 
L 3463 178 
Q 3153 47 2828 -22 
Q 2503 -91 2169 -91 
Q 1331 -91 842 396 
Q 353 884 353 1716 
Q 353 2575 817 3079 
Q 1281 3584 2069 3584 
Q 2775 3584 3186 3129 
Q 3597 2675 3597 1894 
z
M 3022 2063 
Q 3016 2534 2758 2815 
Q 2500 3097 2075 3097 
Q 1594 3097 1305 2825 
Q 1016 2553 972 2059 
L 3022 2063 
z
" transform="scale(0.015625)"/>
     </defs>
     <use xlink:href="#DejaVuSans-62"/>
     <use xlink:href="#DejaVuSans-61" x="63.476562"/>
     <use xlink:href="#DejaVuSans-73" x="124.755859"/>
     <use xlink:href="#DejaVuSans-65" x="176.855469"/>
    </g>
   </g>
  </g>
  <g id="axes_2">
   <g id="matplotlib.axis_3"/>
   <g id="matplotlib.axis_4"/>
   <g id="patch_4">
    <path d="M 136.502069 126.432 
C 136.502069 126.42498 136.502066 126.417961 136.50206 126.410941 
C 136.502054 126.403921 136.502045 126.396902 136.502033 126.389882 
L 111.873103 126.432 
L 136.502069 126.432 
z
" style="fill: #20b2aa"/>
   </g>
   <g id="patch_5">
    <path d="M 136.502033 126.389882 
C 136.496504 123.156526 135.854302 119.955683 134.612161 116.970435 
C 133.37002 113.985187 131.552083 111.273559 129.262333 108.990652 
C 126.972584 106.707744 124.255527 104.89793 121.266575 103.664729 
C 118.277623 102.431527 115.074872 101.798908 111.841514 101.803055 
C 108.608157 101.807202 105.407039 102.448035 102.42126 103.6889 
C 99.435482 104.929765 96.723076 106.746542 94.439191 109.035316 
C 92.155305 111.324089 90.344329 114.040372 89.10985 117.028796 
C 87.875371 120.017221 87.241382 123.219701 87.244147 126.45306 
C 87.246912 129.686419 87.886377 132.887811 89.125965 135.87412 
C 90.365553 138.860428 92.181171 141.57361 94.468968 143.858474 
C 96.756765 146.143338 99.472273 147.955475 102.460169 149.191231 
C 105.448066 150.426988 108.650275 151.062346 111.883635 151.060963 
C 115.116995 151.059581 118.318659 150.421485 121.305498 149.183173 
C 124.292336 147.944862 127.006294 146.130404 129.292136 143.843584 
C 131.577978 141.556764 133.391275 138.842031 134.628309 135.854663 
C 135.865343 132.867295 136.502069 129.665358 136.502069 126.431998 
L 111.873103 126.432 
L 136.502033 126.389882 
z
" style="fill: #ff6347"/>
   </g>
   <g id="text_4">
    <!-- 0% -->
    <g transform="translate(118.718446 129.17874)scale(0.1 -0.1)">
     <defs>
      <path id="DejaVuSans-30" d="M 2034 4250 
Q 1547 4250 1301 3770 
Q 1056 3291 1056 2328 
Q 1056 1369 1301 889 
Q 1547 409 2034 409 
Q 2525 409 2770 889 
Q 3016 1369 3016 2328 
Q 3016 3291 2770 3770 
Q 2525 4250 2034 4250 
z
M 2034 4750 
Q 2819 4750 3233 4129 
Q 3647 3509 3647 2328 
Q 3647 1150 3233 529 
Q 2819 -91 2034 -91 
Q 1250 -91 836 529 
Q 422 1150 422 2328 
Q 422 3509 836 4129 
Q 1250 4750 2034 4750 
z
" transform="scale(0.015625)"/>
     </defs>
     <use xlink:href="#DejaVuSans-30"/>
     <use xlink:href="#DejaVuSans-25" x="63.623047"/>
    </g>
   </g>
   <g id="text_5">
    <!-- 100% -->
    <g transform="translate(82.801198 129.204011)scale(0.1 -0.1)">
     <defs>
      <path id="DejaVuSans-31" d="M 794 531 
L 1825 531 
L 1825 4091 
L 703 3866 
L 703 4441 
L 1819 4666 
L 2450 4666 
L 2450 531 
L 3481 531 
L 3481 0 
L 794 0 
L 794 531 
z
" transform="scale(0.015625)"/>
     </defs>
     <use xlink:href="#DejaVuSans-31"/>
     <use xlink:href="#DejaVuSans-30" x="63.623047"/>
     <use xlink:href="#DejaVuSans-30" x="127.246094"/>
     <use xlink:href="#DejaVuSans-25" x="190.869141"/>
    </g>
   </g>
   <g id="text_6">
    <!-- zwsp -->
    <g transform="translate(93.884353 89.645793)scale(0.144 -0.144)">
     <defs>
      <path id="DejaVuSans-7a" d="M 353 3500 
L 3084 3500 
L 3084 2975 
L 922 459 
L 3084 459 
L 3084 0 
L 275 0 
L 275 525 
L 2438 3041 
L 353 3041 
L 353 3500 
z
" transform="scale(0.015625)"/>
      <path id="DejaVuSans-77" d="M 269 3500 
L 844 3500 
L 1563 769 
L 2278 3500 
L 2956 3500 
L 3675 769 
L 4391 3500 
L 4966 3500 
L 4050 0 
L 3372 0 
L 2619 2869 
L 1863 0 
L 1184 0 
L 269 3500 
z
" transform="scale(0.015625)"/>
      <path id="DejaVuSans-70" d="M 1159 525 
L 1159 -1331 
L 581 -1331 
L 581 3500 
L 1159 3500 
L 1159 2969 
Q 1341 3281 1617 3432 
Q 1894 3584 2278 3584 
Q 2916 3584 3314 3078 
Q 3713 2572 3713 1747 
Q 3713 922 3314 415 
Q 2916 -91 2278 -91 
Q 1894 -91 1617 61 
Q 1341 213 1159 525 
z
M 3116 1747 
Q 3116 2381 2855 2742 
Q 2594 3103 2138 3103 
Q 1681 3103 1420 2742 
Q 1159 2381 1159 1747 
Q 1159 1113 1420 752 
Q 1681 391 2138 391 
Q 2594 391 2855 752 
Q 3116 1113 3116 1747 
z
" transform="scale(0.015625)"/>
     </defs>
     <use xlink:href="#DejaVuSans-7a"/>
     <use xlink:href="#DejaVuSans-77" x="52.490234"/>
     <use xlink:href="#DejaVuSans-73" x="134.277344"/>
     <use xlink:href="#DejaVuSans-70" x="186.376953"/>
    </g>
   </g>
  </g>
  <g id="axes_3">
   <g id="matplotlib.axis_5"/>
   <g id="matplotlib.axis_6"/>
   <g id="patch_6">
    <path d="M 210.388966 126.432 
C 210.388966 126.426384 210.388964 126.420769 210.38896 126.415153 
C 210.388956 126.409537 210.38895 126.403921 210.388942 126.398306 
L 185.76 126.432 
L 210.388966 126.432 
z
" style="fill: #20b2aa"/>
   </g>
   <g id="patch_7">
    <path d="M 210.388942 126.398306 
C 210.384519 123.164771 209.743342 119.963536 208.50209 116.977727 
C 207.260838 113.991917 205.44364 111.279574 203.154449 108.995857 
C 200.865257 106.712139 198.148571 104.90144 195.159798 103.66734 
C 192.171026 102.433241 188.968265 101.79973 185.734729 101.803047 
C 182.501193 101.806365 179.299739 102.446447 176.313506 103.686678 
C 173.327272 104.926908 170.614307 106.743178 168.329807 109.031589 
C 166.045306 111.319999 164.233678 114.036066 162.998557 117.024416 
C 161.763435 120.012767 161.128828 123.215311 161.13104 126.448847 
C 161.133252 129.682384 161.772239 132.884057 163.011448 135.870715 
C 164.250657 138.857372 166.065999 141.570958 168.353628 143.856241 
C 170.641257 146.141524 173.356704 147.954081 176.344632 149.190225 
C 179.33256 150.426368 182.534886 151.06207 185.768424 151.060964 
C 189.001961 151.059858 192.203852 150.421966 195.190934 149.183779 
C 198.178015 147.945591 200.892221 146.131177 203.178287 143.84433 
C 205.464352 141.557483 207.277837 138.842656 208.515003 135.855151 
C 209.752169 132.867646 210.388966 129.665537 210.388966 126.432 
L 185.76 126.432 
L 210.388942 126.398306 
z
" style="fill: #ff6347"/>
   </g>
   <g id="text_7">
    <!-- 0% -->
    <g transform="translate(192.605345 129.181267)scale(0.1 -0.1)">
     <use xlink:href="#DejaVuSans-30"/>
     <use xlink:href="#DejaVuSans-25" x="63.623047"/>
    </g>
   </g>
   <g id="text_8">
    <!-- 100% -->
    <g transform="translate(156.688093 129.201483)scale(0.1 -0.1)">
     <use xlink:href="#DejaVuSans-31"/>
     <use xlink:href="#DejaVuSans-30" x="63.623047"/>
     <use xlink:href="#DejaVuSans-30" x="127.246094"/>
     <use xlink:href="#DejaVuSans-25" x="190.869141"/>
    </g>
   </g>
   <g id="text_9">
    <!-- zwnj -->
    <g transform="translate(169.529625 89.645793)scale(0.144 -0.144)">
     <defs>
      <path id="DejaVuSans-6e" d="M 3513 2113 
L 3513 0 
L 2938 0 
L 2938 2094 
Q 2938 2591 2744 2837 
Q 2550 3084 2163 3084 
Q 1697 3084 1428 2787 
Q 1159 2491 1159 1978 
L 1159 0 
L 581 0 
L 581 3500 
L 1159 3500 
L 1159 2956 
Q 1366 3272 1645 3428 
Q 1925 3584 2291 3584 
Q 2894 3584 3203 3211 
Q 3513 2838 3513 2113 
z
" transform="scale(0.015625)"/>
      <path id="DejaVuSans-6a" d="M 603 3500 
L 1178 3500 
L 1178 -63 
Q 1178 -731 923 -1031 
Q 669 -1331 103 -1331 
L -116 -1331 
L -116 -844 
L 38 -844 
Q 366 -844 484 -692 
Q 603 -541 603 -63 
L 603 3500 
z
M 603 4863 
L 1178 4863 
L 1178 4134 
L 603 4134 
L 603 4863 
z
" transform="scale(0.015625)"/>
     </defs>
     <use xlink:href="#DejaVuSans-7a"/>
     <use xlink:href="#DejaVuSans-77" x="52.490234"/>
     <use xlink:href="#DejaVuSans-6e" x="134.277344"/>
     <use xlink:href="#DejaVuSans-6a" x="197.65625"/>
    </g>
   </g>
  </g>
  <g id="axes_4">
   <g id="matplotlib.axis_7"/>
   <g id="matplotlib.axis_8"/>
   <g id="patch_8">
    <path d="M 284.275862 126.432 
C 284.275862 126.426384 284.27586 126.420769 284.275856 126.415153 
C 284.275852 126.409537 284.275847 126.403921 284.275839 126.398306 
L 259.646897 126.432 
L 284.275862 126.432 
z
" style="fill: #20b2aa"/>
   </g>
   <g id="patch_9">
    <path d="M 284.275839 126.398306 
C 284.271415 123.164771 283.630238 119.963536 282.388987 116.977727 
C 281.147735 113.991917 279.330537 111.279574 277.041345 108.995857 
C 274.752154 106.712139 272.035468 104.90144 269.046695 103.66734 
C 266.057922 102.433241 262.855161 101.79973 259.621626 101.803047 
C 256.38809 101.806365 253.186636 102.446447 250.200402 103.686678 
C 247.214168 104.926908 244.501204 106.743178 242.216703 109.031589 
C 239.932203 111.319999 238.120575 114.036066 236.885453 117.024416 
C 235.650331 120.012767 235.015725 123.215311 235.017937 126.448847 
C 235.020149 129.682384 235.659136 132.884057 236.898345 135.870715 
C 238.137554 138.857372 239.952896 141.570958 242.240525 143.856241 
C 244.528154 146.141524 247.243601 147.954081 250.231528 149.190225 
C 253.219456 150.426368 256.421783 151.06207 259.65532 151.060964 
C 262.888857 151.059858 266.090749 150.421966 269.07783 149.183779 
C 272.064912 147.945591 274.779118 146.131177 277.065183 143.84433 
C 279.351248 141.557483 281.164734 138.842656 282.4019 135.855151 
C 283.639065 132.867646 284.275862 129.665537 284.275862 126.432 
L 259.646897 126.432 
L 284.275839 126.398306 
z
" style="fill: #ff6347"/>
   </g>
   <g id="text_10">
    <!-- 0% -->
    <g transform="translate(266.492241 129.181267)scale(0.1 -0.1)">
     <use xlink:href="#DejaVuSans-30"/>
     <use xlink:href="#DejaVuSans-25" x="63.623047"/>
    </g>
   </g>
   <g id="text_11">
    <!-- 100% -->
    <g transform="translate(230.574989 129.201483)scale(0.1 -0.1)">
     <use xlink:href="#DejaVuSans-31"/>
     <use xlink:href="#DejaVuSans-30" x="63.623047"/>
     <use xlink:href="#DejaVuSans-30" x="127.246094"/>
     <use xlink:href="#DejaVuSans-25" x="190.869141"/>
    </g>
   </g>
   <g id="text_12">
    <!-- zwj -->
    <g transform="translate(247.979522 89.645793)scale(0.144 -0.144)">
     <use xlink:href="#DejaVuSans-7a"/>
     <use xlink:href="#DejaVuSans-77" x="52.490234"/>
     <use xlink:href="#DejaVuSans-6a" x="134.277344"/>
    </g>
   </g>
  </g>
  <g id="axes_5">
   <g id="matplotlib.axis_9"/>
   <g id="matplotlib.axis_10"/>
   <g id="patch_10">
    <path d="M 358.162759 126.432 
C 358.162759 126.431532 358.162759 126.431064 358.162759 126.430596 
C 358.162759 126.430128 358.162759 126.42966 358.162758 126.429192 
L 333.533793 126.432 
L 358.162759 126.432 
z
" style="fill: #20b2aa"/>
   </g>
   <g id="patch_11">
    <path d="M 358.162758 126.429192 
C 358.16239 123.195005 357.524972 119.992338 356.286983 117.004471 
C 355.048993 114.016604 353.234508 111.301641 350.947364 109.014954 
C 348.66022 106.728266 345.944896 104.914323 342.956782 103.67693 
C 339.968668 102.439537 336.765873 101.802758 333.531686 101.803035 
C 330.297499 101.803311 327.094814 102.440638 324.106911 103.678542 
C 321.119009 104.916446 318.403995 106.730855 316.117243 109.017933 
C 313.83049 111.305012 312.016469 114.020285 310.778991 117.008364 
C 309.541513 119.996442 308.904643 123.199219 308.904828 126.433406 
C 308.905012 129.667593 309.542248 132.870297 310.780067 135.858234 
C 312.017886 138.846171 313.832217 141.561237 316.119231 143.848055 
C 318.406244 146.134872 321.121466 147.948971 324.109509 149.186534 
C 327.097553 150.424097 330.300311 151.061058 333.534498 151.060966 
C 336.768685 151.060873 339.971407 150.423729 342.959379 149.185994 
C 345.947352 147.94826 348.662469 146.134007 350.949352 143.847058 
C 353.236235 141.560109 355.050411 138.84494 356.288059 135.856932 
C 357.525707 132.868923 358.162759 129.666183 358.162759 126.431996 
L 333.533793 126.432 
L 358.162758 126.429192 
z
" style="fill: #ff6347"/>
   </g>
   <g id="text_13">
    <!-- 0% -->
    <g transform="translate(340.379141 129.190533)scale(0.1 -0.1)">
     <use xlink:href="#DejaVuSans-30"/>
     <use xlink:href="#DejaVuSans-25" x="63.623047"/>
    </g>
   </g>
   <g id="text_14">
    <!-- 100% -->
    <g transform="translate(304.461883 129.192219)scale(0.1 -0.1)">
     <use xlink:href="#DejaVuSans-31"/>
     <use xlink:href="#DejaVuSans-30" x="63.623047"/>
     <use xlink:href="#DejaVuSans-30" x="127.246094"/>
     <use xlink:href="#DejaVuSans-25" x="190.869141"/>
    </g>
   </g>
   <g id="text_15">
    <!-- rlo -->
    <g transform="translate(324.168168 89.645793)scale(0.144 -0.144)">
     <defs>
      <path id="DejaVuSans-72" d="M 2631 2963 
Q 2534 3019 2420 3045 
Q 2306 3072 2169 3072 
Q 1681 3072 1420 2755 
Q 1159 2438 1159 1844 
L 1159 0 
L 581 0 
L 581 3500 
L 1159 3500 
L 1159 2956 
Q 1341 3275 1631 3429 
Q 1922 3584 2338 3584 
Q 2397 3584 2469 3576 
Q 2541 3569 2628 3553 
L 2631 2963 
z
" transform="scale(0.015625)"/>
      <path id="DejaVuSans-6c" d="M 603 4863 
L 1178 4863 
L 1178 0 
L 603 0 
L 603 4863 
z
" transform="scale(0.015625)"/>
      <path id="DejaVuSans-6f" d="M 1959 3097 
Q 1497 3097 1228 2736 
Q 959 2375 959 1747 
Q 959 1119 1226 758 
Q 1494 397 1959 397 
Q 2419 397 2687 759 
Q 2956 1122 2956 1747 
Q 2956 2369 2687 2733 
Q 2419 3097 1959 3097 
z
M 1959 3584 
Q 2709 3584 3137 3096 
Q 3566 2609 3566 1747 
Q 3566 888 3137 398 
Q 2709 -91 1959 -91 
Q 1206 -91 779 398 
Q 353 888 353 1747 
Q 353 2609 779 3096 
Q 1206 3584 1959 3584 
z
" transform="scale(0.015625)"/>
     </defs>
     <use xlink:href="#DejaVuSans-72"/>
     <use xlink:href="#DejaVuSans-6c" x="41.113281"/>
     <use xlink:href="#DejaVuSans-6f" x="68.896484"/>
    </g>
   </g>
  </g>
  <g id="axes_6">
   <g id="matplotlib.axis_11"/>
   <g id="matplotlib.axis_12"/>
   <g id="patch_12">
    <path d="M 62.615172 271.584 
C 62.615172 271.103353 62.601102 270.622809 62.57298 270.142986 
C 62.544858 269.663162 62.502696 269.184265 62.446548 268.706909 
L 37.986207 271.584 
L 62.615172 271.584 
z
" style="fill: #20b2aa"/>
   </g>
   <g id="patch_13">
    <path d="M 62.446548 268.706909 
C 62.075816 265.555033 61.099344 262.50432 59.570974 259.722981 
C 58.042603 256.941641 55.99095 254.481751 53.529138 252.478942 
C 51.067325 250.476133 48.241446 248.967905 45.207314 248.037417 
C 42.173182 247.10693 38.987605 246.771606 35.826229 247.049933 
C 32.664853 247.32826 29.586869 248.215028 26.76199 249.661343 
C 23.937111 251.107657 21.418229 253.086438 19.344228 255.488579 
C 17.270227 257.890721 15.67994 260.671248 14.661051 263.676848 
C 13.642163 266.682448 13.213749 269.856846 13.399434 273.025014 
C 13.585118 276.193182 14.381422 279.2958 15.744441 282.161798 
C 17.10746 285.027796 19.011673 287.603512 21.352086 289.746928 
C 23.692499 291.890345 26.425292 293.561328 29.399785 294.667745 
C 32.374277 295.774162 35.534777 296.295297 38.707022 296.202415 
C 41.879267 296.109533 45.003862 295.404374 47.908524 294.125818 
C 50.813185 292.847262 53.443529 291.019249 55.654524 288.74257 
C 57.865519 286.465891 59.615767 283.783173 60.808765 280.842336 
C 62.001762 277.901499 62.615172 274.757605 62.615172 271.584001 
L 37.986207 271.584 
L 62.446548 268.706909 
z
" style="fill: #ff6347"/>
   </g>
   <g id="text_16">
    <!-- 2% -->
    <g transform="translate(44.80624 273.478766)scale(0.1 -0.1)">
     <use xlink:href="#DejaVuSans-32"/>
     <use xlink:href="#DejaVuSans-25" x="63.623047"/>
    </g>
   </g>
   <g id="text_17">
    <!-- 98% -->
    <g transform="translate(12.120862 275.207983)scale(0.1 -0.1)">
     <use xlink:href="#DejaVuSans-39"/>
     <use xlink:href="#DejaVuSans-38" x="63.623047"/>
     <use xlink:href="#DejaVuSans-25" x="127.246094"/>
    </g>
   </g>
   <g id="text_18">
    <!-- bksp -->
    <g transform="translate(20.924457 234.797793)scale(0.144 -0.144)">
     <defs>
      <path id="DejaVuSans-6b" d="M 581 4863 
L 1159 4863 
L 1159 1991 
L 2875 3500 
L 3609 3500 
L 1753 1863 
L 3688 0 
L 2938 0 
L 1159 1709 
L 1159 0 
L 581 0 
L 581 4863 
z
" transform="scale(0.015625)"/>
     </defs>
     <use xlink:href="#DejaVuSans-62"/>
     <use xlink:href="#DejaVuSans-6b" x="63.476562"/>
     <use xlink:href="#DejaVuSans-73" x="121.386719"/>
     <use xlink:href="#DejaVuSans-70" x="173.486328"/>
    </g>
   </g>
  </g>
  <g id="axes_7">
   <g id="matplotlib.axis_13"/>
   <g id="matplotlib.axis_14"/>
   <g id="patch_14">
    <path d="M 136.502069 271.584 
C 136.502069 271.103353 136.487999 270.622809 136.459877 270.142986 
C 136.431755 269.663162 136.389592 269.184265 136.333445 268.706909 
L 111.873103 271.584 
L 136.502069 271.584 
z
" style="fill: #20b2aa"/>
   </g>
   <g id="patch_15">
    <path d="M 136.333445 268.706909 
C 135.962712 265.555033 134.986241 262.50432 133.45787 259.722981 
C 131.9295 256.941641 129.877847 254.481751 127.416034 252.478942 
C 124.954222 250.476133 122.128343 248.967905 119.094211 248.037417 
C 116.060079 247.10693 112.874502 246.771606 109.713126 247.049933 
C 106.551749 247.32826 103.473766 248.215028 100.648887 249.661343 
C 97.824008 251.107657 95.305125 253.086438 93.231124 255.488579 
C 91.157124 257.890721 89.566836 260.671248 88.547948 263.676848 
C 87.529059 266.682448 87.100646 269.856846 87.28633 273.025014 
C 87.472014 276.193182 88.268319 279.2958 89.631338 282.161798 
C 90.994357 285.027796 92.89857 287.603512 95.238983 289.746928 
C 97.579396 291.890345 100.312188 293.561328 103.286681 294.667745 
C 106.261174 295.774162 109.421674 296.295297 112.593919 296.202415 
C 115.766164 296.109533 118.890758 295.404374 121.79542 294.125818 
C 124.700082 292.847262 127.330426 291.019249 129.541421 288.74257 
C 131.752415 286.465891 133.502664 283.783173 134.695661 280.842336 
C 135.888659 277.901499 136.502069 274.757605 136.502069 271.584001 
L 111.873103 271.584 
L 136.333445 268.706909 
z
" style="fill: #ff6347"/>
   </g>
   <g id="text_19">
    <!-- 2% -->
    <g transform="translate(118.693136 273.478766)scale(0.1 -0.1)">
     <use xlink:href="#DejaVuSans-32"/>
     <use xlink:href="#DejaVuSans-25" x="63.623047"/>
    </g>
   </g>
   <g id="text_20">
    <!-- 98% -->
    <g transform="translate(86.007758 275.207983)scale(0.1 -0.1)">
     <use xlink:href="#DejaVuSans-39"/>
     <use xlink:href="#DejaVuSans-38" x="63.623047"/>
     <use xlink:href="#DejaVuSans-25" x="127.246094"/>
    </g>
   </g>
   <g id="text_21">
    <!-- del -->
    <g transform="translate(100.871728 234.797793)scale(0.144 -0.144)">
     <defs>
      <path id="DejaVuSans-64" d="M 2906 2969 
L 2906 4863 
L 3481 4863 
L 3481 0 
L 2906 0 
L 2906 525 
Q 2725 213 2448 61 
Q 2172 -91 1784 -91 
Q 1150 -91 751 415 
Q 353 922 353 1747 
Q 353 2572 751 3078 
Q 1150 3584 1784 3584 
Q 2172 3584 2448 3432 
Q 2725 3281 2906 2969 
z
M 947 1747 
Q 947 1113 1208 752 
Q 1469 391 1925 391 
Q 2381 391 2643 752 
Q 2906 1113 2906 1747 
Q 2906 2381 2643 2742 
Q 2381 3103 1925 3103 
Q 1469 3103 1208 2742 
Q 947 2381 947 1747 
z
" transform="scale(0.015625)"/>
     </defs>
     <use xlink:href="#DejaVuSans-64"/>
     <use xlink:href="#DejaVuSans-65" x="63.476562"/>
     <use xlink:href="#DejaVuSans-6c" x="125"/>
    </g>
   </g>
  </g>
  <g id="axes_8">
   <g id="matplotlib.axis_15"/>
   <g id="matplotlib.axis_16"/>
   <g id="patch_16">
    <path d="M 210.388966 271.584 
C 210.388966 271.582245 210.388965 271.58049 210.388965 271.578735 
C 210.388965 271.57698 210.388964 271.575225 210.388963 271.573471 
L 185.76 271.584 
L 210.388966 271.584 
z
" style="fill: #20b2aa"/>
   </g>
   <g id="patch_17">
    <path d="M 210.388963 271.573471 
C 210.387581 268.339446 209.749223 265.137137 208.510418 262.149784 
C 207.271613 259.162431 205.456449 256.448123 203.168793 254.162178 
C 200.881137 251.876233 198.165472 250.0631 195.177193 248.826531 
C 192.188914 247.589961 188.986128 246.953999 185.752104 246.955036 
C 182.518079 246.956073 179.315702 247.594088 176.328217 248.832574 
C 173.340731 250.071059 170.626229 251.885933 168.34004 254.173344 
C 166.05385 256.460756 164.240427 259.176227 163.003538 262.164374 
C 161.766648 265.15252 161.130344 268.355238 161.131035 271.589263 
C 161.131726 274.823287 161.769399 278.025733 163.007565 281.013351 
C 164.245731 284.000968 166.060315 286.715664 168.347482 289.002099 
C 170.634649 291.288533 173.349926 293.102246 176.33794 294.339455 
C 179.325955 295.576664 182.528605 296.213311 185.762629 296.212965 
C 188.996654 296.21262 192.199168 295.57529 195.186918 294.337443 
C 198.174668 293.099596 200.889558 291.285303 203.176237 288.99838 
C 205.462916 286.711458 207.276919 283.996375 208.514448 281.008493 
C 209.751976 278.020611 210.388965 274.818029 210.388966 271.584004 
L 185.76 271.584 
L 210.388963 271.573471 
z
" style="fill: #ff6347"/>
   </g>
   <g id="text_22">
    <!-- 0% -->
    <g transform="translate(192.605348 274.340216)scale(0.1 -0.1)">
     <use xlink:href="#DejaVuSans-30"/>
     <use xlink:href="#DejaVuSans-25" x="63.623047"/>
    </g>
   </g>
   <g id="text_23">
    <!-- 100% -->
    <g transform="translate(156.68809 274.346533)scale(0.1 -0.1)">
     <use xlink:href="#DejaVuSans-31"/>
     <use xlink:href="#DejaVuSans-30" x="63.623047"/>
     <use xlink:href="#DejaVuSans-30" x="127.246094"/>
     <use xlink:href="#DejaVuSans-25" x="190.869141"/>
    </g>
   </g>
   <g id="text_24">
    <!-- homo -->
    <g transform="translate(165.37275 234.797793)scale(0.144 -0.144)">
     <defs>
      <path id="DejaVuSans-68" d="M 3513 2113 
L 3513 0 
L 2938 0 
L 2938 2094 
Q 2938 2591 2744 2837 
Q 2550 3084 2163 3084 
Q 1697 3084 1428 2787 
Q 1159 2491 1159 1978 
L 1159 0 
L 581 0 
L 581 4863 
L 1159 4863 
L 1159 2956 
Q 1366 3272 1645 3428 
Q 1925 3584 2291 3584 
Q 2894 3584 3203 3211 
Q 3513 2838 3513 2113 
z
" transform="scale(0.015625)"/>
      <path id="DejaVuSans-6d" d="M 3328 2828 
Q 3544 3216 3844 3400 
Q 4144 3584 4550 3584 
Q 5097 3584 5394 3201 
Q 5691 2819 5691 2113 
L 5691 0 
L 5113 0 
L 5113 2094 
Q 5113 2597 4934 2840 
Q 4756 3084 4391 3084 
Q 3944 3084 3684 2787 
Q 3425 2491 3425 1978 
L 3425 0 
L 2847 0 
L 2847 2094 
Q 2847 2600 2669 2842 
Q 2491 3084 2119 3084 
Q 1678 3084 1418 2786 
Q 1159 2488 1159 1978 
L 1159 0 
L 581 0 
L 581 3500 
L 1159 3500 
L 1159 2956 
Q 1356 3278 1631 3431 
Q 1906 3584 2284 3584 
Q 2666 3584 2933 3390 
Q 3200 3197 3328 2828 
z
" transform="scale(0.015625)"/>
     </defs>
     <use xlink:href="#DejaVuSans-68"/>
     <use xlink:href="#DejaVuSans-6f" x="63.378906"/>
     <use xlink:href="#DejaVuSans-6d" x="124.560547"/>
     <use xlink:href="#DejaVuSans-6f" x="221.972656"/>
    </g>
   </g>
  </g>
  <g id="axes_9">
   <g id="matplotlib.axis_17"/>
   <g id="matplotlib.axis_18"/>
   <g id="patch_18">
    <path d="M 284.275862 271.584 
C 284.275862 267.953744 283.473224 264.367989 281.925571 261.084161 
C 280.377917 257.800332 278.123191 254.89894 275.323263 252.588277 
L 259.646897 271.584 
L 284.275862 271.584 
z
" style="fill: #20b2aa"/>
   </g>
   <g id="patch_19">
    <path d="M 275.323263 252.588277 
C 273.180252 250.819741 270.753334 249.426536 268.145466 248.467766 
C 265.537598 247.508997 262.786188 246.998415 260.007959 246.957681 
C 257.22973 246.916948 254.464534 247.346647 251.829678 248.22855 
C 249.194823 249.110453 246.728103 250.431909 244.534166 252.136859 
C 242.340228 253.841808 240.450542 255.905794 238.945275 258.241257 
C 237.440007 260.576719 236.34075 263.150158 235.694137 265.852399 
C 235.047524 268.55464 234.86283 271.346922 235.147891 274.110788 
C 235.432951 276.874654 236.183678 279.570459 237.368222 282.083837 
C 238.552765 284.597216 240.154135 286.892116 242.104396 288.871181 
C 244.054657 290.850246 246.325834 292.485087 248.821577 293.70635 
C 251.317319 294.927614 254.001828 295.717781 256.761218 296.04333 
C 259.520608 296.368879 262.315298 296.22514 265.026728 295.618212 
C 267.738158 295.011284 270.327436 293.949872 272.684715 292.479005 
C 275.041994 291.008138 277.133462 289.148914 278.870392 286.980207 
C 280.607321 284.8115 281.964798 282.364418 282.885234 279.742775 
C 283.80567 277.121132 284.275862 274.362532 284.275862 271.584005 
L 259.646897 271.584 
L 275.323263 252.588277 
z
" style="fill: #ff6347"/>
   </g>
   <g id="text_25">
    <!-- 14% -->
    <g transform="translate(261.90082 268.043471)scale(0.1 -0.1)">
     <defs>
      <path id="DejaVuSans-34" d="M 2419 4116 
L 825 1625 
L 2419 1625 
L 2419 4116 
z
M 2253 4666 
L 3047 4666 
L 3047 1625 
L 3713 1625 
L 3713 1100 
L 3047 1100 
L 3047 0 
L 2419 0 
L 2419 1100 
L 313 1100 
L 313 1709 
L 2253 4666 
z
" transform="scale(0.015625)"/>
     </defs>
     <use xlink:href="#DejaVuSans-31"/>
     <use xlink:href="#DejaVuSans-34" x="63.623047"/>
     <use xlink:href="#DejaVuSans-25" x="127.246094"/>
    </g>
   </g>
   <g id="text_26">
    <!-- 86% -->
    <g transform="translate(235.16641 280.643277)scale(0.1 -0.1)">
     <defs>
      <path id="DejaVuSans-36" d="M 2113 2584 
Q 1688 2584 1439 2293 
Q 1191 2003 1191 1497 
Q 1191 994 1439 701 
Q 1688 409 2113 409 
Q 2538 409 2786 701 
Q 3034 994 3034 1497 
Q 3034 2003 2786 2293 
Q 2538 2584 2113 2584 
z
M 3366 4563 
L 3366 3988 
Q 3128 4100 2886 4159 
Q 2644 4219 2406 4219 
Q 1781 4219 1451 3797 
Q 1122 3375 1075 2522 
Q 1259 2794 1537 2939 
Q 1816 3084 2150 3084 
Q 2853 3084 3261 2657 
Q 3669 2231 3669 1497 
Q 3669 778 3244 343 
Q 2819 -91 2113 -91 
Q 1303 -91 875 529 
Q 447 1150 447 2328 
Q 447 3434 972 4092 
Q 1497 4750 2381 4750 
Q 2619 4750 2861 4703 
Q 3103 4656 3366 4563 
z
" transform="scale(0.015625)"/>
     </defs>
     <use xlink:href="#DejaVuSans-38"/>
     <use xlink:href="#DejaVuSans-36" x="63.623047"/>
     <use xlink:href="#DejaVuSans-25" x="127.246094"/>
    </g>
   </g>
   <g id="text_27">
    <!-- zwsp2 -->
    <g transform="translate(237.077147 234.797793)scale(0.144 -0.144)">
     <use xlink:href="#DejaVuSans-7a"/>
     <use xlink:href="#DejaVuSans-77" x="52.490234"/>
     <use xlink:href="#DejaVuSans-73" x="134.277344"/>
     <use xlink:href="#DejaVuSans-70" x="186.376953"/>
     <use xlink:href="#DejaVuSans-32" x="249.853516"/>
    </g>
   </g>
  </g>
  <g id="axes_10">
   <g id="matplotlib.axis_19"/>
   <g id="matplotlib.axis_20"/>
   <g id="patch_20">
    <path d="M 358.162759 271.584 
C 358.162759 271.582011 358.162758 271.580022 358.162758 271.578033 
C 358.162757 271.576044 358.162757 271.574055 358.162756 271.572067 
L 333.533793 271.584 
L 358.162759 271.584 
z
" style="fill: #20b2aa"/>
   </g>
   <g id="patch_21">
    <path d="M 358.162756 271.572067 
C 358.161189 268.338072 357.52266 265.135827 356.283707 262.148568 
C 355.044753 259.161309 353.229466 256.44712 350.941717 254.16131 
C 348.653968 251.8755 345.938241 250.062514 342.949932 248.826094 
C 339.961623 247.589674 336.758838 246.953861 333.524844 246.955036 
C 330.290849 246.956211 327.088527 247.594352 324.101117 248.832943 
C 321.113708 250.071535 318.399299 251.886493 316.113212 254.173966 
C 313.827125 256.461438 312.01381 259.176945 310.777028 262.165104 
C 309.540246 265.153263 308.904045 268.355971 308.904828 271.589966 
C 308.905612 274.823961 309.543364 278.02636 310.781594 281.013919 
C 312.019823 284.001479 313.834453 286.716107 316.121648 289.002472 
C 318.408843 291.288836 321.124131 293.102479 324.11214 294.339623 
C 327.100149 295.576768 330.30278 296.213357 333.536775 296.212965 
C 336.77077 296.212574 339.973246 295.575209 342.960956 294.337341 
C 345.948665 293.099474 348.663514 291.285173 350.950155 288.998255 
C 353.236797 286.711337 355.050769 283.996269 356.288275 281.00841 
C 357.525781 278.020551 358.162758 274.817997 358.162759 271.584002 
L 333.533793 271.584 
L 358.162756 271.572067 
z
" style="fill: #ff6347"/>
   </g>
   <g id="text_28">
    <!-- 0% -->
    <g transform="translate(340.379141 274.339795)scale(0.1 -0.1)">
     <use xlink:href="#DejaVuSans-30"/>
     <use xlink:href="#DejaVuSans-25" x="63.623047"/>
    </g>
   </g>
   <g id="text_29">
    <!-- 100% -->
    <g transform="translate(304.461883 274.346954)scale(0.1 -0.1)">
     <use xlink:href="#DejaVuSans-31"/>
     <use xlink:href="#DejaVuSans-30" x="63.623047"/>
     <use xlink:href="#DejaVuSans-30" x="127.246094"/>
     <use xlink:href="#DejaVuSans-25" x="190.869141"/>
    </g>
   </g>
   <g id="text_30">
    <!-- homo2 -->
    <g transform="translate(308.565543 234.797793)scale(0.144 -0.144)">
     <use xlink:href="#DejaVuSans-68"/>
     <use xlink:href="#DejaVuSans-6f" x="63.378906"/>
     <use xlink:href="#DejaVuSans-6d" x="124.560547"/>
     <use xlink:href="#DejaVuSans-6f" x="221.972656"/>
     <use xlink:href="#DejaVuSans-32" x="283.154297"/>
    </g>
   </g>
   <g id="legend_1">
    <g id="patch_22">
     <path d="M 87.219375 386.650207 
L 284.300625 386.650207 
Q 286.300625 386.650207 286.300625 384.650207 
L 286.300625 356.293957 
Q 286.300625 354.293957 284.300625 354.293957 
L 87.219375 354.293957 
Q 85.219375 354.293957 85.219375 356.293957 
L 85.219375 384.650207 
Q 85.219375 386.650207 87.219375 386.650207 
z
" style="fill: #e5e5e5; opacity: 0.8; stroke: #cccccc; stroke-width: 0.5; stroke-linejoin: miter"/>
    </g>
    <g id="patch_23">
     <path d="M 89.219375 365.892394 
L 109.219375 365.892394 
L 109.219375 358.892394 
L 89.219375 358.892394 
z
" style="fill: #20b2aa"/>
    </g>
    <g id="text_31">
     <!-- Perturbed Target Present in SERP -->
     <g transform="translate(117.219375 365.892394)scale(0.1 -0.1)">
      <defs>
       <path id="DejaVuSans-50" d="M 1259 4147 
L 1259 2394 
L 2053 2394 
Q 2494 2394 2734 2622 
Q 2975 2850 2975 3272 
Q 2975 3691 2734 3919 
Q 2494 4147 2053 4147 
L 1259 4147 
z
M 628 4666 
L 2053 4666 
Q 2838 4666 3239 4311 
Q 3641 3956 3641 3272 
Q 3641 2581 3239 2228 
Q 2838 1875 2053 1875 
L 1259 1875 
L 1259 0 
L 628 0 
L 628 4666 
z
" transform="scale(0.015625)"/>
       <path id="DejaVuSans-74" d="M 1172 4494 
L 1172 3500 
L 2356 3500 
L 2356 3053 
L 1172 3053 
L 1172 1153 
Q 1172 725 1289 603 
Q 1406 481 1766 481 
L 2356 481 
L 2356 0 
L 1766 0 
Q 1100 0 847 248 
Q 594 497 594 1153 
L 594 3053 
L 172 3053 
L 172 3500 
L 594 3500 
L 594 4494 
L 1172 4494 
z
" transform="scale(0.015625)"/>
       <path id="DejaVuSans-75" d="M 544 1381 
L 544 3500 
L 1119 3500 
L 1119 1403 
Q 1119 906 1312 657 
Q 1506 409 1894 409 
Q 2359 409 2629 706 
Q 2900 1003 2900 1516 
L 2900 3500 
L 3475 3500 
L 3475 0 
L 2900 0 
L 2900 538 
Q 2691 219 2414 64 
Q 2138 -91 1772 -91 
Q 1169 -91 856 284 
Q 544 659 544 1381 
z
M 1991 3584 
L 1991 3584 
z
" transform="scale(0.015625)"/>
       <path id="DejaVuSans-20" transform="scale(0.015625)"/>
       <path id="DejaVuSans-54" d="M -19 4666 
L 3928 4666 
L 3928 4134 
L 2272 4134 
L 2272 0 
L 1638 0 
L 1638 4134 
L -19 4134 
L -19 4666 
z
" transform="scale(0.015625)"/>
       <path id="DejaVuSans-67" d="M 2906 1791 
Q 2906 2416 2648 2759 
Q 2391 3103 1925 3103 
Q 1463 3103 1205 2759 
Q 947 2416 947 1791 
Q 947 1169 1205 825 
Q 1463 481 1925 481 
Q 2391 481 2648 825 
Q 2906 1169 2906 1791 
z
M 3481 434 
Q 3481 -459 3084 -895 
Q 2688 -1331 1869 -1331 
Q 1566 -1331 1297 -1286 
Q 1028 -1241 775 -1147 
L 775 -588 
Q 1028 -725 1275 -790 
Q 1522 -856 1778 -856 
Q 2344 -856 2625 -561 
Q 2906 -266 2906 331 
L 2906 616 
Q 2728 306 2450 153 
Q 2172 0 1784 0 
Q 1141 0 747 490 
Q 353 981 353 1791 
Q 353 2603 747 3093 
Q 1141 3584 1784 3584 
Q 2172 3584 2450 3431 
Q 2728 3278 2906 2969 
L 2906 3500 
L 3481 3500 
L 3481 434 
z
" transform="scale(0.015625)"/>
       <path id="DejaVuSans-69" d="M 603 3500 
L 1178 3500 
L 1178 0 
L 603 0 
L 603 3500 
z
M 603 4863 
L 1178 4863 
L 1178 4134 
L 603 4134 
L 603 4863 
z
" transform="scale(0.015625)"/>
       <path id="DejaVuSans-53" d="M 3425 4513 
L 3425 3897 
Q 3066 4069 2747 4153 
Q 2428 4238 2131 4238 
Q 1616 4238 1336 4038 
Q 1056 3838 1056 3469 
Q 1056 3159 1242 3001 
Q 1428 2844 1947 2747 
L 2328 2669 
Q 3034 2534 3370 2195 
Q 3706 1856 3706 1288 
Q 3706 609 3251 259 
Q 2797 -91 1919 -91 
Q 1588 -91 1214 -16 
Q 841 59 441 206 
L 441 856 
Q 825 641 1194 531 
Q 1563 422 1919 422 
Q 2459 422 2753 634 
Q 3047 847 3047 1241 
Q 3047 1584 2836 1778 
Q 2625 1972 2144 2069 
L 1759 2144 
Q 1053 2284 737 2584 
Q 422 2884 422 3419 
Q 422 4038 858 4394 
Q 1294 4750 2059 4750 
Q 2388 4750 2728 4690 
Q 3069 4631 3425 4513 
z
" transform="scale(0.015625)"/>
       <path id="DejaVuSans-45" d="M 628 4666 
L 3578 4666 
L 3578 4134 
L 1259 4134 
L 1259 2753 
L 3481 2753 
L 3481 2222 
L 1259 2222 
L 1259 531 
L 3634 531 
L 3634 0 
L 628 0 
L 628 4666 
z
" transform="scale(0.015625)"/>
       <path id="DejaVuSans-52" d="M 2841 2188 
Q 3044 2119 3236 1894 
Q 3428 1669 3622 1275 
L 4263 0 
L 3584 0 
L 2988 1197 
Q 2756 1666 2539 1819 
Q 2322 1972 1947 1972 
L 1259 1972 
L 1259 0 
L 628 0 
L 628 4666 
L 2053 4666 
Q 2853 4666 3247 4331 
Q 3641 3997 3641 3322 
Q 3641 2881 3436 2590 
Q 3231 2300 2841 2188 
z
M 1259 4147 
L 1259 2491 
L 2053 2491 
Q 2509 2491 2742 2702 
Q 2975 2913 2975 3322 
Q 2975 3731 2742 3939 
Q 2509 4147 2053 4147 
L 1259 4147 
z
" transform="scale(0.015625)"/>
      </defs>
      <use xlink:href="#DejaVuSans-50"/>
      <use xlink:href="#DejaVuSans-65" x="56.677734"/>
      <use xlink:href="#DejaVuSans-72" x="118.201172"/>
      <use xlink:href="#DejaVuSans-74" x="159.314453"/>
      <use xlink:href="#DejaVuSans-75" x="198.523438"/>
      <use xlink:href="#DejaVuSans-72" x="261.902344"/>
      <use xlink:href="#DejaVuSans-62" x="303.015625"/>
      <use xlink:href="#DejaVuSans-65" x="366.492188"/>
      <use xlink:href="#DejaVuSans-64" x="428.015625"/>
      <use xlink:href="#DejaVuSans-20" x="491.492188"/>
      <use xlink:href="#DejaVuSans-54" x="523.279297"/>
      <use xlink:href="#DejaVuSans-61" x="567.863281"/>
      <use xlink:href="#DejaVuSans-72" x="629.142578"/>
      <use xlink:href="#DejaVuSans-67" x="668.505859"/>
      <use xlink:href="#DejaVuSans-65" x="731.982422"/>
      <use xlink:href="#DejaVuSans-74" x="793.505859"/>
      <use xlink:href="#DejaVuSans-20" x="832.714844"/>
      <use xlink:href="#DejaVuSans-50" x="864.501953"/>
      <use xlink:href="#DejaVuSans-72" x="923.054688"/>
      <use xlink:href="#DejaVuSans-65" x="961.917969"/>
      <use xlink:href="#DejaVuSans-73" x="1023.441406"/>
      <use xlink:href="#DejaVuSans-65" x="1075.541016"/>
      <use xlink:href="#DejaVuSans-6e" x="1137.064453"/>
      <use xlink:href="#DejaVuSans-74" x="1200.443359"/>
      <use xlink:href="#DejaVuSans-20" x="1239.652344"/>
      <use xlink:href="#DejaVuSans-69" x="1271.439453"/>
      <use xlink:href="#DejaVuSans-6e" x="1299.222656"/>
      <use xlink:href="#DejaVuSans-20" x="1362.601562"/>
      <use xlink:href="#DejaVuSans-53" x="1394.388672"/>
      <use xlink:href="#DejaVuSans-45" x="1457.865234"/>
      <use xlink:href="#DejaVuSans-52" x="1521.048828"/>
      <use xlink:href="#DejaVuSans-50" x="1590.53125"/>
     </g>
    </g>
    <g id="patch_24">
     <path d="M 89.219375 380.570519 
L 109.219375 380.570519 
L 109.219375 373.570519 
L 89.219375 373.570519 
z
" style="fill: #ff6347"/>
    </g>
    <g id="text_32">
     <!-- Perturbed Target Absent in SERP -->
     <g transform="translate(117.219375 380.570519)scale(0.1 -0.1)">
      <defs>
       <path id="DejaVuSans-41" d="M 2188 4044 
L 1331 1722 
L 3047 1722 
L 2188 4044 
z
M 1831 4666 
L 2547 4666 
L 4325 0 
L 3669 0 
L 3244 1197 
L 1141 1197 
L 716 0 
L 50 0 
L 1831 4666 
z
" transform="scale(0.015625)"/>
      </defs>
      <use xlink:href="#DejaVuSans-50"/>
      <use xlink:href="#DejaVuSans-65" x="56.677734"/>
      <use xlink:href="#DejaVuSans-72" x="118.201172"/>
      <use xlink:href="#DejaVuSans-74" x="159.314453"/>
      <use xlink:href="#DejaVuSans-75" x="198.523438"/>
      <use xlink:href="#DejaVuSans-72" x="261.902344"/>
      <use xlink:href="#DejaVuSans-62" x="303.015625"/>
      <use xlink:href="#DejaVuSans-65" x="366.492188"/>
      <use xlink:href="#DejaVuSans-64" x="428.015625"/>
      <use xlink:href="#DejaVuSans-20" x="491.492188"/>
      <use xlink:href="#DejaVuSans-54" x="523.279297"/>
      <use xlink:href="#DejaVuSans-61" x="567.863281"/>
      <use xlink:href="#DejaVuSans-72" x="629.142578"/>
      <use xlink:href="#DejaVuSans-67" x="668.505859"/>
      <use xlink:href="#DejaVuSans-65" x="731.982422"/>
      <use xlink:href="#DejaVuSans-74" x="793.505859"/>
      <use xlink:href="#DejaVuSans-20" x="832.714844"/>
      <use xlink:href="#DejaVuSans-41" x="864.501953"/>
      <use xlink:href="#DejaVuSans-62" x="932.910156"/>
      <use xlink:href="#DejaVuSans-73" x="996.386719"/>
      <use xlink:href="#DejaVuSans-65" x="1048.486328"/>
      <use xlink:href="#DejaVuSans-6e" x="1110.009766"/>
      <use xlink:href="#DejaVuSans-74" x="1173.388672"/>
      <use xlink:href="#DejaVuSans-20" x="1212.597656"/>
      <use xlink:href="#DejaVuSans-69" x="1244.384766"/>
      <use xlink:href="#DejaVuSans-6e" x="1272.167969"/>
      <use xlink:href="#DejaVuSans-20" x="1335.546875"/>
      <use xlink:href="#DejaVuSans-53" x="1367.333984"/>
      <use xlink:href="#DejaVuSans-45" x="1430.810547"/>
      <use xlink:href="#DejaVuSans-52" x="1493.994141"/>
      <use xlink:href="#DejaVuSans-50" x="1563.476562"/>
     </g>
    </g>
   </g>
  </g>
  <g id="text_33">
   <!-- Elasticsearch: -->
   <g transform="translate(124.63 19.3575)scale(0.16 -0.16)">
    <defs>
     <path id="DejaVuSans-63" d="M 3122 3366 
L 3122 2828 
Q 2878 2963 2633 3030 
Q 2388 3097 2138 3097 
Q 1578 3097 1268 2742 
Q 959 2388 959 1747 
Q 959 1106 1268 751 
Q 1578 397 2138 397 
Q 2388 397 2633 464 
Q 2878 531 3122 666 
L 3122 134 
Q 2881 22 2623 -34 
Q 2366 -91 2075 -91 
Q 1284 -91 818 406 
Q 353 903 353 1747 
Q 353 2603 823 3093 
Q 1294 3584 2113 3584 
Q 2378 3584 2631 3529 
Q 2884 3475 3122 3366 
z
" transform="scale(0.015625)"/>
     <path id="DejaVuSans-3a" d="M 750 794 
L 1409 794 
L 1409 0 
L 750 0 
L 750 794 
z
M 750 3309 
L 1409 3309 
L 1409 2516 
L 750 2516 
L 750 3309 
z
" transform="scale(0.015625)"/>
    </defs>
    <use xlink:href="#DejaVuSans-45"/>
    <use xlink:href="#DejaVuSans-6c" x="63.183594"/>
    <use xlink:href="#DejaVuSans-61" x="90.966797"/>
    <use xlink:href="#DejaVuSans-73" x="152.246094"/>
    <use xlink:href="#DejaVuSans-74" x="204.345703"/>
    <use xlink:href="#DejaVuSans-69" x="243.554688"/>
    <use xlink:href="#DejaVuSans-63" x="271.337891"/>
    <use xlink:href="#DejaVuSans-73" x="326.318359"/>
    <use xlink:href="#DejaVuSans-65" x="378.417969"/>
    <use xlink:href="#DejaVuSans-61" x="439.941406"/>
    <use xlink:href="#DejaVuSans-72" x="501.220703"/>
    <use xlink:href="#DejaVuSans-63" x="540.083984"/>
    <use xlink:href="#DejaVuSans-68" x="595.064453"/>
    <use xlink:href="#DejaVuSans-3a" x="658.443359"/>
   </g>
   <!-- Perturbed Result from Perturbed Query -->
   <g transform="translate(23.54625 37.274)scale(0.16 -0.16)">
    <defs>
     <path id="DejaVuSans-66" d="M 2375 4863 
L 2375 4384 
L 1825 4384 
Q 1516 4384 1395 4259 
Q 1275 4134 1275 3809 
L 1275 3500 
L 2222 3500 
L 2222 3053 
L 1275 3053 
L 1275 0 
L 697 0 
L 697 3053 
L 147 3053 
L 147 3500 
L 697 3500 
L 697 3744 
Q 697 4328 969 4595 
Q 1241 4863 1831 4863 
L 2375 4863 
z
" transform="scale(0.015625)"/>
     <path id="DejaVuSans-51" d="M 2522 4238 
Q 1834 4238 1429 3725 
Q 1025 3213 1025 2328 
Q 1025 1447 1429 934 
Q 1834 422 2522 422 
Q 3209 422 3611 934 
Q 4013 1447 4013 2328 
Q 4013 3213 3611 3725 
Q 3209 4238 2522 4238 
z
M 3406 84 
L 4238 -825 
L 3475 -825 
L 2784 -78 
Q 2681 -84 2626 -87 
Q 2572 -91 2522 -91 
Q 1538 -91 948 567 
Q 359 1225 359 2328 
Q 359 3434 948 4092 
Q 1538 4750 2522 4750 
Q 3503 4750 4090 4092 
Q 4678 3434 4678 2328 
Q 4678 1516 4351 937 
Q 4025 359 3406 84 
z
" transform="scale(0.015625)"/>
     <path id="DejaVuSans-79" d="M 2059 -325 
Q 1816 -950 1584 -1140 
Q 1353 -1331 966 -1331 
L 506 -1331 
L 506 -850 
L 844 -850 
Q 1081 -850 1212 -737 
Q 1344 -625 1503 -206 
L 1606 56 
L 191 3500 
L 800 3500 
L 1894 763 
L 2988 3500 
L 3597 3500 
L 2059 -325 
z
" transform="scale(0.015625)"/>
    </defs>
    <use xlink:href="#DejaVuSans-50"/>
    <use xlink:href="#DejaVuSans-65" x="56.677734"/>
    <use xlink:href="#DejaVuSans-72" x="118.201172"/>
    <use xlink:href="#DejaVuSans-74" x="159.314453"/>
    <use xlink:href="#DejaVuSans-75" x="198.523438"/>
    <use xlink:href="#DejaVuSans-72" x="261.902344"/>
    <use xlink:href="#DejaVuSans-62" x="303.015625"/>
    <use xlink:href="#DejaVuSans-65" x="366.492188"/>
    <use xlink:href="#DejaVuSans-64" x="428.015625"/>
    <use xlink:href="#DejaVuSans-20" x="491.492188"/>
    <use xlink:href="#DejaVuSans-52" x="523.279297"/>
    <use xlink:href="#DejaVuSans-65" x="588.261719"/>
    <use xlink:href="#DejaVuSans-73" x="649.785156"/>
    <use xlink:href="#DejaVuSans-75" x="701.884766"/>
    <use xlink:href="#DejaVuSans-6c" x="765.263672"/>
    <use xlink:href="#DejaVuSans-74" x="793.046875"/>
    <use xlink:href="#DejaVuSans-20" x="832.255859"/>
    <use xlink:href="#DejaVuSans-66" x="864.042969"/>
    <use xlink:href="#DejaVuSans-72" x="899.248047"/>
    <use xlink:href="#DejaVuSans-6f" x="938.111328"/>
    <use xlink:href="#DejaVuSans-6d" x="999.292969"/>
    <use xlink:href="#DejaVuSans-20" x="1096.705078"/>
    <use xlink:href="#DejaVuSans-50" x="1128.492188"/>
    <use xlink:href="#DejaVuSans-65" x="1185.169922"/>
    <use xlink:href="#DejaVuSans-72" x="1246.693359"/>
    <use xlink:href="#DejaVuSans-74" x="1287.806641"/>
    <use xlink:href="#DejaVuSans-75" x="1327.015625"/>
    <use xlink:href="#DejaVuSans-72" x="1390.394531"/>
    <use xlink:href="#DejaVuSans-62" x="1431.507812"/>
    <use xlink:href="#DejaVuSans-65" x="1494.984375"/>
    <use xlink:href="#DejaVuSans-64" x="1556.507812"/>
    <use xlink:href="#DejaVuSans-20" x="1619.984375"/>
    <use xlink:href="#DejaVuSans-51" x="1651.771484"/>
    <use xlink:href="#DejaVuSans-75" x="1730.482422"/>
    <use xlink:href="#DejaVuSans-65" x="1793.861328"/>
    <use xlink:href="#DejaVuSans-72" x="1855.384766"/>
    <use xlink:href="#DejaVuSans-79" x="1896.498047"/>
   </g>
  </g>
 </g>
</svg>
